<svg width="104" height="24" viewBox="0 0 104 24" fill="none" xmlns="http://www.w3.org/2000/svg">
    <g clip-path="url(#clip0_1940_13022)">
        <path d="M52.5274 4.20299H54.0731V3.82003L53.6845 3.43359H51.7574L51.3696 3.82003V6.89173L51.7574 7.27469H53.6845L54.0731 6.89173V6.50878H52.5274V5.73947H54.0731V4.97365H52.5274V4.20299Z" fill="#1D1D1B"/>
        <path d="M53.8126 0H51.6313V2.1722H53.8126V0Z" fill="#3BBFF0"/>
        <path d="M49.5698 3.43359V4.97297H48.412V3.43359H47.6427L47.2549 3.82003V6.89173L47.6427 7.27469H48.412V5.73879H49.5698V7.27469H50.3426L50.7269 6.89173V3.82003L50.3426 3.43359H49.5698Z" fill="#1D1D1B"/>
        <path d="M43.5291 3.43359L43.1406 3.82003V4.20299H44.2984V6.89105L44.6862 7.27392H45.0712L45.4555 6.89105V4.20299H46.6126V3.82003L46.2276 3.43359H43.5291Z" fill="#1D1D1B"/>
        <path d="M43.2061 8.59814V23.9657H54.0086L55.5506 22.4299V10.1375L54.0086 8.60163H43.2061V8.59814ZM47.8359 11.6733H50.9236V20.8948H47.8359V11.6733Z" fill="#1D1D1B"/>
        <path d="M57.0928 8.59814V23.9657H67.8953L69.4375 22.4299V17.8189L67.8953 16.2831L69.4375 14.7472V10.1368L67.8953 8.60095H57.0928V8.59814ZM61.7226 17.8195H64.8104V20.8948H61.7226V17.8195ZM61.7226 14.7444V11.6727H64.8104V14.7444H61.7226Z" fill="#1D1D1B"/>
        <path d="M72.5249 8.59814L70.9829 10.134V22.4265L72.5249 23.9623H81.7846L83.3268 22.4265V10.134L81.7846 8.59814H72.5249ZM75.6093 11.6733H78.6969V20.8948H75.6093V11.6733Z" fill="#1D1D1B"/>
        <path d="M97.2114 16.2839L100.126 13.3813L103.04 16.2839L100.126 19.1865L97.2114 16.2839Z" fill="#3BBFF0"/>
        <path d="M92.5835 8.59814V13.2085L91.0413 14.7444L89.4993 13.2085V8.59814H86.4108L84.8687 10.1375V14.7444L86.4108 16.2837L84.8687 17.8195V22.4299L86.4108 23.9657H89.4993V19.3554L91.0413 17.8195L92.5835 19.3554V23.9657H95.6719L97.2141 22.4299V17.8195L95.6719 16.2837L97.2141 14.7444V10.1375L95.6719 8.59814H92.5835Z" fill="#1D1D1B"/>
        <path d="M37.0365 8.59834V13.2087L32.4066 8.59834H29.3224L27.7803 10.1377V22.4301L29.3224 23.9659H32.4066V14.7445L37.0365 19.3549V23.9653H40.1242L41.6663 22.4295V10.137L40.1242 8.59766L37.0365 8.59834Z" fill="#1D1D1B"/>
        <path d="M24.689 8.63232H15.4293L13.8872 10.1682V22.4606L15.4293 23.9964H18.517V17.8502H21.6013V23.9999H24.6855L26.2277 22.4641V10.1717L24.689 8.63232ZM20.0592 15.3432L18.0875 13.3799L20.0592 11.4165L22.0309 13.3799L20.0592 15.3432Z" fill="#1D1D1B"/>
        <path d="M1.54212 8.59814L0 10.1375V16.2837L1.54212 17.8195H7.71409V20.8906H4.62984V19.3548H0V22.4299L1.54212 23.9657H10.8018L12.3439 22.4299V16.2837L10.8018 14.7444H4.62984V11.6727H7.71409V13.2085H12.3439V10.1375L10.8018 8.59814H1.54212Z" fill="#1D1D1B"/>
    </g>
    <defs>
        <clipPath id="clip0_1940_13022">
            <rect width="103.04" height="24" fill="white"/>
        </clipPath>
    </defs>
</svg>
