<svg width="30" height="30" viewBox="0 0 30 30" fill="none" xmlns="http://www.w3.org/2000/svg">
<path d="M11.0066 21.8137C8.82607 21.8091 6.69585 21.1656 4.88506 19.9644C3.07428 18.7633 1.66417 17.0583 0.832916 15.065C0.00166625 13.0718 -0.213427 10.8796 0.214799 8.76548C0.643026 6.65137 1.69535 4.71021 3.23884 3.18723C4.78233 1.66426 6.74772 0.627818 8.88668 0.208861C11.0256 -0.210095 13.2422 0.007231 15.2563 0.833383C17.2704 1.65953 18.9916 3.05745 20.2026 4.85049C21.4136 6.64353 22.0599 8.75124 22.0599 10.9073C22.0583 12.3411 21.7712 13.7605 21.2149 15.0846C20.6586 16.4086 19.844 17.6113 18.8176 18.6241C17.7912 19.6368 16.5731 20.4398 15.2329 20.987C13.8927 21.5343 12.4566 21.8152 11.0066 21.8137V21.8137ZM11.0066 3.54596C9.53415 3.54596 8.09478 3.9777 6.87049 4.78658C5.64621 5.59546 4.69199 6.74514 4.12851 8.09026C3.56503 9.43537 3.41761 10.9155 3.70487 12.3435C3.99213 13.7714 4.70116 15.0831 5.74233 16.1126C6.7835 17.1421 8.11005 17.8432 9.55419 18.1273C10.9983 18.4113 12.4952 18.2655 13.8556 17.7083C15.2159 17.1512 16.3786 16.2077 17.1967 14.9971C18.0147 13.7865 18.4514 12.3633 18.4514 10.9073C18.4498 8.95544 17.6649 7.08394 16.2691 5.70375C14.8733 4.32356 12.9806 3.54749 11.0066 3.54596V3.54596Z" fill="#523774"/>
<path d="M21.1373 25.3057H0.869995V29.4223H21.1373V25.3057Z" fill="#523774"/>
<path d="M27.1866 30.0001C28.6571 30.0001 29.8492 28.9273 29.8492 27.604C29.8492 26.2807 28.6571 25.2079 27.1866 25.2079C25.7161 25.2079 24.524 26.2807 24.524 27.604C24.524 28.9273 25.7161 30.0001 27.1866 30.0001Z" fill="#523774"/>
<path d="M29.8491 2.19495V25.2894H24.5239V2.19495C24.5239 0.982494 25.6917 0.000976562 27.1865 0.000976562C28.6813 0.000976562 29.8491 0.982494 29.8491 2.19495Z" fill="url(#paint0_linear_1930_11239)"/>
<path d="M29.8492 25.2079H24.524V27.604H29.8492V25.2079Z" fill="#523774"/>
<defs>
<linearGradient id="paint0_linear_1930_11239" x1="27.1865" y1="0.000976562" x2="27.1865" y2="25.2837" gradientUnits="userSpaceOnUse">
<stop stop-color="white" stop-opacity="0"/>
<stop offset="0.12" stop-color="white" stop-opacity="0.02"/>
<stop offset="0.25" stop-color="white" stop-opacity="0.07"/>
<stop offset="0.37" stop-color="white" stop-opacity="0.15"/>
<stop offset="0.5" stop-color="white" stop-opacity="0.26"/>
<stop offset="0.63" stop-color="white" stop-opacity="0.41"/>
<stop offset="0.76" stop-color="white" stop-opacity="0.59"/>
<stop offset="0.89" stop-color="white" stop-opacity="0.8"/>
<stop offset="1" stop-color="white"/>
</linearGradient>
</defs>
</svg>
