<?xml version="1.0" standalone="no"?>
<!DOCTYPE svg PUBLIC "-//W3C//DTD SVG 1.1//EN" "http://www.w3.org/Graphics/SVG/1.1/DTD/svg11.dtd" >
<svg xmlns="http://www.w3.org/2000/svg" xmlns:xlink="http://www.w3.org/1999/xlink" version="1.1">
<metadata>
Created by FontForge 20200427 at Mon Jul 21 23:54:07 2014
 By www
Copyright (c) 2012 by Ryoichi Tsunekawa. All rights reserved.
</metadata>
<defs>
<font id="AllRoundGothic-Medium" horiz-adv-x="608" >
  <font-face 
    font-family="AllRoundGothic-Medium"
    font-weight="400"
    font-stretch="normal"
    units-per-em="1000"
    panose-1="2 11 6 3 2 2 2 2 1 4"
    ascent="763"
    descent="-237"
    x-height="494"
    cap-height="654"
    bbox="-66 -241 4589 920"
    underline-thickness="50"
    underline-position="-100"
    unicode-range="U+0020-FB02"
  />
<missing-glyph horiz-adv-x="650" 
d="M550 0h-450v654h450v-654zM495 55v544h-340v-544h340z" />
    <glyph glyph-name="IJ" unicode="IJ" horiz-adv-x="810" 
d="M171 0h-102v654h102v-654zM657 231v423h102v-423q0 -113 -65.5 -178.5t-183.5 -65.5q-117 0 -181 65.5t-64 178.5v6h99v-6q0 -71 37 -110.5t109 -39.5t109.5 39.5t37.5 110.5z" />
    <glyph glyph-name="ij" unicode="ij" horiz-adv-x="456" 
d="M114 564q-27 0 -46.5 19.5t-19.5 47.5q0 27 19.5 46.5t46.5 19.5q28 0 47 -19.5t19 -46.5q0 -28 -19 -47.5t-47 -19.5zM162 0h-95v494h95v-494zM342 564q-27 0 -46.5 19.5t-19.5 47.5q0 27 19.5 46.5t46.5 19.5q28 0 47 -19.5t19 -46.5q0 -28 -19 -47.5t-47 -19.5z
M220 -218h-20v82h11q46 0 65 22t19 75v533h95v-527q0 -94 -40 -139.5t-130 -45.5z" />
    <glyph glyph-name="fi" unicode="fi" horiz-adv-x="716" 
d="M160 0h-95v509q0 105 57.5 159.5t155.5 54.5q97 0 154.5 -55t57.5 -159v-1h-94v1q0 64 -31.5 95t-86.5 31t-86.5 -31.5t-31.5 -94.5v-83h271v-87h-271v-339zM601 564q-27 0 -46.5 19.5t-19.5 47.5q0 27 19.5 46.5t46.5 19.5q28 0 47 -19.5t19 -46.5q0 -28 -19 -47.5
t-47 -19.5zM649 0h-95v494h95v-494z" />
    <glyph glyph-name="fl" unicode="fl" horiz-adv-x="716" 
d="M160 0h-95v509q0 105 57.5 159.5t155.5 54.5q97 0 154.5 -55t57.5 -159v-1h-94v1q0 64 -31.5 95t-86.5 31t-86.5 -31.5t-31.5 -94.5v-83h271v-87h-271v-339zM649 0h-95v710h95v-710z" />
    <glyph glyph-name=".notdef" horiz-adv-x="650" 
d="M550 0h-450v654h450v-654zM495 55v544h-340v-544h340z" />
    <glyph glyph-name=".null" horiz-adv-x="0" 
 />
    <glyph glyph-name="nonmarkingreturn" horiz-adv-x="333" 
 />
    <glyph glyph-name="space" unicode=" " horiz-adv-x="266" 
 />
    <glyph glyph-name="exclam" unicode="!" horiz-adv-x="264" 
d="M132 -13q-28 0 -47 19t-19 47t19 47t47 19t47 -19t19 -47t-19 -47t-47 -19zM172 190h-80l-14 464h108z" />
    <glyph glyph-name="quotedbl" unicode="&#x22;" horiz-adv-x="392" 
d="M150 393h-73l-15 261h103zM314 393h-73l-15 261h103z" />
    <glyph glyph-name="numbersign" unicode="#" horiz-adv-x="582" 
d="M388 0h-73l22 159h-139l-22 -159h-73l22 159h-88l10 71h88l27 194h-88l10 71h88l22 159h73l-22 -159h139l22 159h73l-22 -159h88l-10 -71h-88l-27 -194h88l-10 -71h-88zM347 230l27 194h-139l-27 -194h139z" />
    <glyph glyph-name="dollar" unicode="$" horiz-adv-x="522" 
d="M292 -70h-59v75q-87 7 -139.5 56.5t-54.5 130.5h94q2 -89 98 -102h2v199q-41 7 -67 15.5t-56 26.5t-44.5 50t-14.5 79q0 78 50 129t132 59v76h59v-76q78 -9 126 -58t51 -123h-92q-2 38 -24 63.5t-59 32.5h-2v-194q43 -8 69 -15.5t57.5 -25.5t47 -50.5t15.5 -80.5
q0 -81 -52 -132.5t-137 -59.5v-75zM386 194q0 37 -24 55.5t-68 28.5h-2v-187h2q44 7 68 33.5t24 69.5zM145 462q0 -36 22 -54t64 -28h2v183h-2q-40 -7 -63 -33.5t-23 -67.5z" />
    <glyph glyph-name="percent" unicode="%" horiz-adv-x="684" 
d="M170 0h-73l415 654h73zM183 357q-64 0 -109 45.5t-45 109.5t45 109.5t109 45.5t109.5 -45.5t45.5 -109.5t-45.5 -109.5t-109.5 -45.5zM183 421q37 0 63 26.5t26 64.5t-26 64.5t-63 26.5t-63 -26.5t-26 -64.5t26 -64.5t63 -26.5zM501 -13q-64 0 -109.5 45.5t-45.5 110.5
q0 63 45.5 108.5t109.5 45.5t109 -45.5t45 -108.5q0 -65 -45 -110.5t-109 -45.5zM501 51q37 0 63 27t26 65q0 37 -26 63.5t-63 26.5t-63 -26.5t-26 -63.5q0 -38 26 -65t63 -27z" />
    <glyph glyph-name="ampersand" unicode="&#x26;" horiz-adv-x="566" 
d="M535 306h-114v-2q73 -38 73 -126q0 -87 -63.5 -139t-167.5 -52t-168 54t-64 144q0 121 116 161v2q-92 37 -92 143q0 79 57 127.5t151 48.5q92 0 147 -46t60 -129h-92q-5 40 -34.5 64t-79.5 24q-53 0 -84 -28t-31 -70q0 -45 31 -70t89 -25h266v-81zM400 192q0 53 -35 83.5
t-96 30.5h-12q-61 0 -96 -30t-35 -84t35.5 -86.5t101.5 -32.5t101.5 32.5t35.5 86.5z" />
    <glyph glyph-name="quotesingle" unicode="'" horiz-adv-x="228" 
d="M150 393h-73l-15 261h103z" />
    <glyph glyph-name="parenleft" unicode="(" horiz-adv-x="371" 
d="M333 -129v-90q-130 63 -203.5 183.5t-73.5 281.5t73.5 281.5t203.5 183.5v-90q-88 -55 -138 -150t-50 -225t50 -225t138 -150z" />
    <glyph glyph-name="parenright" unicode=")" horiz-adv-x="371" 
d="M38 621v90q130 -63 203.5 -183.5t73.5 -281.5t-73.5 -281.5t-203.5 -183.5v90q88 55 138 150t50 225t-50 225t-138 150z" />
    <glyph glyph-name="asterisk" unicode="*" horiz-adv-x="526" 
d="M438 280l-86 -63l-88 174h-2l-88 -174l-86 63l141 137l-1 2l-195 30l33 101l174 -91l2 2l-32 193h106l-32 -193l2 -2l174 91l33 -101l-195 -30l-1 -2z" />
    <glyph glyph-name="plus" unicode="+" horiz-adv-x="562" 
d="M322 30h-82v191h-191v82h191v191h82v-191h191v-82h-191v-191z" />
    <glyph glyph-name="comma" unicode="," horiz-adv-x="248" 
d="M119 -131h-56l38 123q-19 7 -31 23.5t-12 37.5q0 28 19 47t47 19t47 -19t19 -47q0 -17 -8 -36z" />
    <glyph glyph-name="hyphen" unicode="-" horiz-adv-x="346" 
d="M323 226h-300v91h300v-91z" />
    <glyph glyph-name="period" unicode="." horiz-adv-x="248" 
d="M124 -13q-28 0 -47 19t-19 47t19 47t47 19t47 -19t19 -47t-19 -47t-47 -19z" />
    <glyph glyph-name="slash" unicode="/" horiz-adv-x="426" 
d="M85 -100h-88l324 754h87z" />
    <glyph glyph-name="zero" unicode="0" horiz-adv-x="522" 
d="M493 434v-214q0 -105 -64.5 -169t-167.5 -64t-167.5 64t-64.5 169v214q0 105 64.5 169t167.5 64t167.5 -64t64.5 -169zM398 220v214q0 67 -37 106t-100 39t-100 -39t-37 -106v-214q0 -67 37 -106t100 -39t100 39t37 106z" />
    <glyph glyph-name="one" unicode="1" horiz-adv-x="522" 
d="M353 0h-95v569h-142v85h237v-654z" />
    <glyph glyph-name="two" unicode="2" horiz-adv-x="522" 
d="M465 0h-411v81l239 224q84 79 84 149q0 56 -30 90.5t-84 34.5t-84.5 -36t-30.5 -96v-9h-93v9q0 100 56 160t153 60q95 0 152 -60t57 -153q0 -61 -27 -107t-84 -98l-176 -162v-2h279v-85z" />
    <glyph glyph-name="three" unicode="3" horiz-adv-x="522" 
d="M254 304h-76v84h76q113 0 113 95q0 42 -29 69t-80 27q-50 0 -78.5 -27t-31.5 -70h-92q3 88 58 136.5t145 48.5q91 0 147 -48.5t56 -128.5q0 -105 -87 -142v-2q111 -40 111 -161q0 -90 -63.5 -144t-163.5 -54t-162.5 54.5t-63.5 148.5h92q0 -51 35.5 -83t97.5 -32t96.5 32
t34.5 83q0 54 -34.5 84t-100.5 30z" />
    <glyph glyph-name="four" unicode="4" horiz-adv-x="522" 
d="M436 0h-95v143h-316v81l316 430h95v-426h70v-85h-70v-143zM341 520h-2l-211 -290v-2h213v292z" />
    <glyph glyph-name="five" unicode="5" horiz-adv-x="522" 
d="M436 569h-268l-24 -185h2q44 57 132 57q90 0 151 -61.5t61 -158.5v-8q0 -99 -65 -162.5t-167 -63.5q-93 0 -156.5 54.5t-73.5 141.5h96q10 -49 46 -78.5t88 -29.5q62 0 99.5 38.5t37.5 99.5v8q0 61 -37.5 99.5t-99.5 38.5q-87 0 -122 -73l-85 26l44 342h341v-85z" />
    <glyph glyph-name="six" unicode="6" horiz-adv-x="522" 
d="M497 227v-9q0 -103 -64.5 -167t-167.5 -64t-167.5 64t-64.5 167v4q0 86 62 182l162 250h105l-149 -225v-2q37 20 77 20q91 0 149 -63.5t58 -156.5zM401 218v6q0 65 -37 103.5t-99 38.5q-61 0 -98.5 -39t-37.5 -103v-6q0 -65 37 -104t99 -39t99 39t37 104z" />
    <glyph glyph-name="seven" unicode="7" horiz-adv-x="522" 
d="M476 573l-298 -573h-103l295 567v2h-319v85h425v-81z" />
    <glyph glyph-name="eight" unicode="8" horiz-adv-x="522" 
d="M492 184q0 -89 -64 -143t-167 -54t-167 54t-64 143q0 122 115 162v2q-92 37 -92 142q0 81 57 129t151 48t151 -48t57 -129q0 -104 -92 -142v-2q115 -40 115 -162zM398 192q0 54 -35 84t-96 30h-12q-61 0 -96 -30t-35 -84q0 -52 36 -84.5t101 -32.5t101 32.5t36 84.5z
M375 481q0 43 -29.5 70.5t-84.5 27.5t-84.5 -27.5t-29.5 -70.5q0 -44 29 -69t79 -25h12q50 0 79 25t29 69z" />
    <glyph glyph-name="nine" unicode="9" horiz-adv-x="522" 
d="M265 0h-105l149 225v2q-37 -20 -77 -20q-91 0 -149 63.5t-58 156.5v9q0 103 64.5 167t167.5 64t167.5 -64t64.5 -167v-4q0 -86 -62 -182zM393 430v6q0 65 -37 104t-99 39t-99 -39t-37 -104v-6q0 -65 37 -103.5t99 -38.5q61 0 98.5 39t37.5 103z" />
    <glyph glyph-name="colon" unicode=":" horiz-adv-x="248" 
d="M124 -13q-28 0 -47 19t-19 47t19 47t47 19t47 -19t19 -47t-19 -47t-47 -19zM124 338q-28 0 -47 19t-19 47t19 47t47 19t47 -19t19 -47t-19 -47t-47 -19z" />
    <glyph glyph-name="semicolon" unicode=";" horiz-adv-x="248" 
d="M119 -131h-56l38 123q-19 7 -31 23.5t-12 37.5q0 28 19 47t47 19t47 -19t19 -47q0 -17 -8 -36zM124 338q-28 0 -47 19t-19 47t19 47t47 19t47 -19t19 -47t-19 -47t-47 -19z" />
    <glyph glyph-name="less" unicode="&#x3c;" horiz-adv-x="562" 
d="M513 27l-464 195v80l464 195v-90l-360 -144v-2l360 -144v-90z" />
    <glyph glyph-name="equal" unicode="=" horiz-adv-x="562" 
d="M513 338h-464v82h464v-82zM513 104h-464v82h464v-82z" />
    <glyph glyph-name="greater" unicode="&#x3e;" horiz-adv-x="562" 
d="M513 222l-464 -195v90l360 144v2l-360 144v90l464 -195v-80z" />
    <glyph glyph-name="question" unicode="?" horiz-adv-x="468" 
d="M248 190h-88v12q0 48 19 81.5t45.5 52.5t53.5 35.5t46 41.5t19 60q0 49 -31 77.5t-81 28.5q-49 0 -81 -29t-32 -79v-8h-89v11q0 87 57.5 140t147.5 53q91 0 148 -52t57 -141q0 -52 -19.5 -88t-48 -55t-56.5 -34.5t-47.5 -38.5t-19.5 -56v-12zM206 -13q-28 0 -47 19
t-19 47t19 47t47 19q27 0 46.5 -19t19.5 -47t-19.5 -47t-46.5 -19z" />
    <glyph glyph-name="at" unicode="@" horiz-adv-x="766" 
d="M453 227h-2q-52 -73 -132 -73q-52 0 -79 33.5t-27 85.5q0 49 21.5 100t65.5 88t98 37q36 0 60.5 -20.5t30.5 -54.5h2l19 62h61l-58 -210q-4 -13 -4 -27q0 -33 34 -33q45 0 83 52.5t38 131.5q0 91 -63 157.5t-188 66.5q-134 0 -221.5 -88t-87.5 -220q0 -127 78.5 -205.5
t209.5 -78.5q117 0 202 59l-5 -64q-86 -53 -199 -53q-155 0 -253 95.5t-98 243.5q0 159 106.5 264t268.5 105q152 0 232.5 -85t80.5 -200q0 -100 -58 -171t-138 -71q-34 0 -55.5 18.5t-22.5 54.5zM344 215q51 0 86.5 48t35.5 99q0 33 -17 54t-47 21q-51 0 -85.5 -51
t-34.5 -102q0 -69 62 -69z" />
    <glyph glyph-name="A" unicode="A" horiz-adv-x="672" 
d="M620 0h-102v207h-368v-207h-99v385q0 131 73.5 206.5t209.5 75.5q137 0 211.5 -75.5t74.5 -206.5v-385zM518 301v84q0 90 -47 139t-137 49t-137 -49t-47 -139v-84h368z" />
    <glyph glyph-name="B" unicode="B" horiz-adv-x="624" 
d="M408 0h-341v654h315q89 0 137.5 -46t48.5 -122q0 -105 -90 -146v-2q56 -17 88 -60t32 -103q0 -78 -50 -126.5t-140 -48.5zM393 286h-224v-192h222q52 0 77 26t25 70q0 42 -27 69t-73 27zM369 560h-200v-180h202q45 0 70.5 25t25.5 65q0 41 -24 65.5t-74 24.5z" />
    <glyph glyph-name="C" unicode="C" horiz-adv-x="751" 
d="M717 425h-108q-27 68 -87 108t-140 40q-108 0 -176.5 -69.5t-68.5 -176.5t68.5 -176.5t176.5 -69.5q80 0 140 40t87 108h108q-30 -109 -120.5 -175.5t-214.5 -66.5q-152 0 -250 96t-98 244t98 244t250 96q124 0 214.5 -66.5t120.5 -175.5z" />
    <glyph glyph-name="D" unicode="D" horiz-adv-x="682" 
d="M300 0h-233v654h233q168 0 258 -88.5t90 -238.5t-90 -238.5t-258 -88.5zM169 94h131q122 0 183.5 62t61.5 171t-61.5 171t-183.5 62h-131v-466z" />
    <glyph glyph-name="E" unicode="E" horiz-adv-x="594" 
d="M490 286h-321v-192h379v-94h-481v654h481v-94h-379v-180h321v-94z" />
    <glyph glyph-name="F" unicode="F" horiz-adv-x="569" 
d="M169 0h-102v654h473v-94h-371v-180h313v-94h-313v-286z" />
    <glyph glyph-name="G" unicode="G" horiz-adv-x="757" 
d="M710 448h-113q-29 59 -85 92t-130 33q-108 0 -176.5 -69.5t-68.5 -176.5t68.5 -176.5t176.5 -69.5q90 0 152.5 44.5t84.5 122.5v2h-277v94h387v-50q-11 -135 -107.5 -221t-239.5 -86q-152 0 -250 96t-98 244t98 244t250 96q118 0 205 -59.5t123 -159.5z" />
    <glyph glyph-name="H" unicode="H" horiz-adv-x="703" 
d="M636 0h-102v285h-365v-285h-102v654h102v-275h365v275h102v-654z" />
    <glyph glyph-name="I" unicode="I" horiz-adv-x="240" 
d="M171 0h-102v654h102v-654z" />
    <glyph glyph-name="J" unicode="J" horiz-adv-x="571" 
d="M417 231v423h102v-423q0 -113 -65.5 -178.5t-183.5 -65.5q-117 0 -181 65.5t-64 178.5v6h99v-6q0 -71 37 -110.5t109 -39.5t109.5 39.5t37.5 110.5z" />
    <glyph glyph-name="K" unicode="K" horiz-adv-x="595" 
d="M169 0h-102v654h102v-296h2l268 296h129l-303 -322l313 -332h-132l-275 303h-2v-303z" />
    <glyph glyph-name="L" unicode="L" horiz-adv-x="562" 
d="M536 0h-469v654h102v-560h367v-94z" />
    <glyph glyph-name="M" unicode="M" horiz-adv-x="930" 
d="M154 427v-427h-102v427q0 117 62.5 178.5t161.5 61.5q134 0 188 -108h2q25 52 74 80t114 28q100 0 162 -61.5t62 -178.5v-427h-102v427q0 72 -35.5 109t-94.5 37q-58 0 -94 -37.5t-36 -108.5v-427h-102v427q0 71 -35.5 108.5t-94.5 37.5q-58 0 -94 -37t-36 -109z" />
    <glyph glyph-name="N" unicode="N" horiz-adv-x="657" 
d="M605 0h-102v396q0 84 -45 130.5t-130 46.5q-84 0 -129 -46.5t-45 -130.5v-396h-102v396q0 126 72.5 198.5t203.5 72.5q132 0 204.5 -72.5t72.5 -198.5v-396z" />
    <glyph glyph-name="O" unicode="O" horiz-adv-x="764" 
d="M730 327q0 -148 -98 -244t-250 -96t-250 96t-98 244t98 244t250 96t250 -96t98 -244zM382 81q108 0 176.5 69.5t68.5 176.5t-68.5 176.5t-176.5 69.5t-176.5 -69.5t-68.5 -176.5t68.5 -176.5t176.5 -69.5z" />
    <glyph glyph-name="P" unicode="P" horiz-adv-x="600" 
d="M169 0h-102v654h274q119 0 178.5 -58.5t59.5 -156.5t-59.5 -157t-178.5 -59h-172v-223zM169 317h174q133 0 133 122q0 121 -133 121h-174v-243z" />
    <glyph glyph-name="Q" unicode="Q" horiz-adv-x="764" 
d="M730 327q0 -165 -118 -262l127 -168h-118l-88 120q-71 -30 -151 -30q-152 0 -250 96t-98 244t98 244t250 96t250 -96t98 -244zM382 81q49 0 91 15v2l-114 146h118l75 -100q75 70 75 183q0 107 -68.5 176.5t-176.5 69.5t-176.5 -69.5t-68.5 -176.5t68.5 -176.5
t176.5 -69.5z" />
    <glyph glyph-name="R" unicode="R" horiz-adv-x="627" 
d="M603 0h-122l-156 234h-156v-234h-102v654h281q116 0 173.5 -57t57.5 -153q0 -76 -37 -129t-111 -72v-2zM169 328h180q127 0 127 116t-127 116h-180v-232z" />
    <glyph glyph-name="S" unicode="S" horiz-adv-x="551" 
d="M503 471h-97q-2 45 -36 73t-93 28q-62 0 -96.5 -29t-34.5 -75q0 -36 27.5 -57t68.5 -27t89 -16.5t89 -25t68.5 -53.5t27.5 -100q0 -93 -66 -148t-176 -55q-108 0 -173.5 54t-67.5 146h101q2 -49 38 -77.5t102 -28.5q67 0 104.5 28.5t37.5 77.5q0 43 -38 63.5t-92 28.5
t-108 20.5t-92 53.5t-38 113q0 90 62.5 145.5t164.5 55.5q100 0 162.5 -53.5t65.5 -141.5z" />
    <glyph glyph-name="T" unicode="T" horiz-adv-x="571" 
d="M336 0h-102v560h-207v94h517v-94h-208v-560z" />
    <glyph glyph-name="U" unicode="U" horiz-adv-x="652" 
d="M502 258v396h99v-396q0 -126 -71.5 -198.5t-201.5 -72.5q-131 0 -203.5 72.5t-72.5 198.5v396h102v-396q0 -84 44.5 -130.5t129.5 -46.5t129.5 46.5t44.5 130.5z" />
    <glyph glyph-name="V" unicode="V" horiz-adv-x="651" 
d="M382 0h-112l-248 654h111l193 -533h2l193 533h108z" />
    <glyph glyph-name="W" unicode="W" horiz-adv-x="930" 
d="M776 227v427h102v-427q0 -117 -62.5 -178.5t-161.5 -61.5q-134 0 -188 108h-2q-25 -52 -74 -80t-114 -28q-100 0 -162 61.5t-62 178.5v427h102v-427q0 -72 35.5 -109t94.5 -37q58 0 94 37.5t36 108.5v427h102v-427q0 -71 35.5 -108.5t94.5 -37.5q58 0 94 37t36 109z" />
    <glyph glyph-name="X" unicode="X" horiz-adv-x="647" 
d="M138 0h-119l236 334l-225 320h122l172 -257h2l173 257h119l-226 -319l236 -335h-122l-183 273h-2z" />
    <glyph glyph-name="Y" unicode="Y" horiz-adv-x="650" 
d="M377 0h-102v280l-259 374h122l187 -284h2l188 284h119l-257 -371v-283z" />
    <glyph glyph-name="Z" unicode="Z" horiz-adv-x="603" 
d="M545 564l-376 -468v-2h386v-94h-512v90l376 468v2h-361v94h487v-90z" />
    <glyph glyph-name="bracketleft" unicode="[" horiz-adv-x="371" 
d="M342 -197h-258v886h258v-77h-169v-732h169v-77z" />
    <glyph glyph-name="backslash" unicode="\" horiz-adv-x="426" 
d="M429 -100h-88l-323 754h87z" />
    <glyph glyph-name="bracketright" unicode="]" horiz-adv-x="371" 
d="M29 689h258v-886h-258v77h169v732h-169v77z" />
    <glyph glyph-name="asciicircum" unicode="^" horiz-adv-x="562" 
d="M122 230h-93l210 424h80l214 -424h-93l-160 326h-2z" />
    <glyph glyph-name="underscore" unicode="_" horiz-adv-x="500" 
d="M500 -136h-500v61h500v-61z" />
    <glyph glyph-name="grave" unicode="`" horiz-adv-x="320" 
d="M262 566h-82l-123 154h100z" />
    <glyph glyph-name="a" unicode="a" 
d="M559 243v-243h-87v103h-2q-23 -53 -73.5 -84.5t-117.5 -31.5q-102 0 -176 70t-74 190q0 113 74.5 186.5t191.5 73.5t190.5 -73t73.5 -191zM295 75q76 0 123 48t47 124t-47 124t-123 48t-123 -48t-47 -124t47 -124t123 -48z" />
    <glyph glyph-name="b" unicode="b" 
d="M313 75q76 0 123 48t47 124t-47 124t-123 48q-75 0 -122 -48.5t-47 -123.5t47 -123.5t122 -48.5zM49 251v459h95v-300h2q26 45 74 71t110 26q102 0 175.5 -70t73.5 -190q0 -113 -74.5 -186.5t-191.5 -73.5q-118 0 -191 72.5t-73 191.5z" />
    <glyph glyph-name="c" unicode="c" horiz-adv-x="580" 
d="M550 315h-96q-18 48 -60 76t-99 28q-76 0 -123 -48t-47 -124t47 -124t123 -48q57 0 99 28t60 76h96q-20 -86 -89 -139t-166 -53q-117 0 -191.5 73.5t-74.5 186.5t74.5 186.5t191.5 73.5q97 0 166 -53t89 -139z" />
    <glyph glyph-name="d" unicode="d" 
d="M295 75q75 0 122 48.5t47 123.5t-47 123.5t-122 48.5q-76 0 -123 -48t-47 -124t47 -124t123 -48zM559 710v-459q0 -119 -73 -191.5t-191 -72.5q-117 0 -191.5 73.5t-74.5 186.5q0 120 73.5 190t175.5 70q62 0 110 -26t74 -71h2v300h95z" />
    <glyph glyph-name="e" unicode="e" horiz-adv-x="588" 
d="M559 212h-430v-2q11 -62 55 -98.5t111 -36.5q96 0 138 63h105q-29 -70 -93.5 -110.5t-149.5 -40.5q-117 0 -191.5 73.5t-74.5 186.5t74.5 186.5t191.5 73.5q116 0 190 -73.5t74 -186.5v-35zM295 419q-62 0 -105.5 -32.5t-57.5 -87.5v-2h327v2q-14 55 -58 87.5t-106 32.5z
" />
    <glyph glyph-name="f" unicode="f" horiz-adv-x="487" 
d="M160 0h-95v509q0 105 57.5 159.5t155.5 54.5q97 0 154.5 -55t57.5 -159v-1h-94v1q0 64 -31.5 95t-86.5 31t-86.5 -31.5t-31.5 -94.5v-83h271v-87h-271v-339z" />
    <glyph glyph-name="g" unicode="g" 
d="M465 36v53h-2q-26 -46 -74.5 -72t-109.5 -26q-103 0 -176.5 68t-73.5 188q0 113 74.5 186.5t191.5 73.5q118 0 191 -72.5t73 -191.5v-203q0 -135 -72 -199.5t-190 -64.5q-94 0 -159.5 41t-90.5 124h97q33 -82 153 -82q168 0 168 177zM465 247q0 76 -47 124t-123 48
t-123 -48t-47 -124q0 -75 47 -121t123 -46t123 46t47 121z" />
    <glyph glyph-name="h" unicode="h" horiz-adv-x="602" 
d="M309 419q-68 0 -108.5 -42t-40.5 -120v-257h-95v710h95v-293h2q51 90 163 90q99 0 163.5 -63.5t64.5 -186.5v-257h-95v257q0 79 -40 120.5t-109 41.5z" />
    <glyph glyph-name="i" unicode="i" horiz-adv-x="228" 
d="M114 564q-27 0 -46.5 19.5t-19.5 47.5q0 27 19.5 46.5t46.5 19.5q28 0 47 -19.5t19 -46.5q0 -28 -19 -47.5t-47 -19.5zM162 0h-95v494h95v-494z" />
    <glyph glyph-name="j" unicode="j" horiz-adv-x="228" 
d="M114 564q-27 0 -46.5 19.5t-19.5 47.5q0 27 19.5 46.5t46.5 19.5q28 0 47 -19.5t19 -46.5q0 -28 -19 -47.5t-47 -19.5zM-8 -218h-20v82h11q46 0 65 22t19 75v533h95v-527q0 -94 -40 -139.5t-130 -45.5z" />
    <glyph glyph-name="k" unicode="k" horiz-adv-x="537" 
d="M160 0h-95v710h95v-433h2l225 217h125l-258 -241l267 -253h-127l-232 228h-2v-228z" />
    <glyph glyph-name="l" unicode="l" horiz-adv-x="228" 
d="M162 0h-95v710h95v-710z" />
    <glyph glyph-name="m" unicode="m" horiz-adv-x="854" 
d="M475 0h-95v286q0 65 -32.5 99t-85.5 34q-54 0 -86 -33.5t-32 -99.5v-286h-95v286q0 109 56.5 165t147.5 56q120 0 173 -96h2q53 96 173 96q91 0 147.5 -56t56.5 -165v-286h-95v286q0 66 -32 99.5t-86 33.5q-53 0 -85 -34t-32 -99v-286z" />
    <glyph glyph-name="n" unicode="n" horiz-adv-x="586" 
d="M537 0h-95v257q0 79 -40 120.5t-109 41.5t-109 -41.5t-40 -120.5v-257h-95v257q0 121 66 185.5t178 64.5t178 -64t66 -186v-257z" />
    <glyph glyph-name="o" unicode="o" horiz-adv-x="590" 
d="M561 247q0 -113 -74.5 -186.5t-191.5 -73.5t-191.5 73.5t-74.5 186.5t74.5 186.5t191.5 73.5t191.5 -73.5t74.5 -186.5zM295 75q76 0 123 48t47 124t-47 124t-123 48t-123 -48t-47 -124t47 -124t123 -48z" />
    <glyph glyph-name="p" unicode="p" 
d="M313 419q-75 0 -122 -48.5t-47 -123.5t47 -123.5t122 -48.5q76 0 123 48t47 124t-47 124t-123 48zM49 -211v454q0 119 73 191.5t191 72.5q117 0 191.5 -73.5t74.5 -186.5q0 -120 -73.5 -190t-175.5 -70q-62 0 -110 26t-74 71h-2v-295h-95z" />
    <glyph glyph-name="q" unicode="q" 
d="M295 419q-76 0 -123 -48t-47 -124t47 -124t123 -48q75 0 122 48.5t47 123.5t-47 123.5t-122 48.5zM559 243v-454h-95v295h-2q-26 -45 -74 -71t-110 -26q-102 0 -175.5 70t-73.5 190q0 113 74.5 186.5t191.5 73.5q118 0 191 -72.5t73 -191.5z" />
    <glyph glyph-name="r" unicode="r" horiz-adv-x="490" 
d="M474 285h-94v6q0 128 -118 128t-118 -128v-291h-95v291q0 106 57.5 161t155.5 55t155 -55t57 -162v-5z" />
    <glyph glyph-name="s" unicode="s" horiz-adv-x="472" 
d="M428 355h-94q-2 29 -28 47.5t-69 18.5q-47 0 -73.5 -19.5t-26.5 -52.5q0 -24 22.5 -36.5t56.5 -15.5t73 -10.5t73 -18.5t56.5 -42t22.5 -80q0 -70 -56.5 -114.5t-148.5 -44.5q-91 0 -147 43.5t-58 112.5h96q2 -32 30 -51t78 -19q53 0 81.5 20t28.5 53q0 24 -22.5 37
t-56.5 16t-73 10.5t-73 18.5t-56.5 42t-22.5 79q0 69 53.5 113.5t140.5 44.5q86 0 138.5 -43t54.5 -109z" />
    <glyph glyph-name="t" unicode="t" horiz-adv-x="475" 
d="M445 198v-11q0 -98 -53.5 -149t-144.5 -51t-144.5 51t-53.5 149v476h95v-169h272v-87h-272v-220q0 -57 27.5 -84.5t75.5 -27.5q104 0 104 112v11h94z" />
    <glyph glyph-name="u" unicode="u" horiz-adv-x="586" 
d="M442 236v258h95v-258q0 -120 -66 -184.5t-178 -64.5t-178 64t-66 185v258h95v-258q0 -79 40 -120t109 -41t109 41t40 120z" />
    <glyph glyph-name="v" unicode="v" horiz-adv-x="565" 
d="M340 0h-115l-206 494h104l160 -406h2l160 406h101z" />
    <glyph glyph-name="w" unicode="w" horiz-adv-x="854" 
d="M379 494h95v-286q0 -65 32.5 -99t85.5 -34q54 0 86 33.5t32 99.5v286h95v-286q0 -109 -56.5 -165t-147.5 -56q-120 0 -173 96h-2q-53 -96 -173 -96q-91 0 -147.5 56t-56.5 165v286h95v-286q0 -66 32 -99.5t86 -33.5q53 0 85 34t32 99v286z" />
    <glyph glyph-name="x" unicode="x" horiz-adv-x="561" 
d="M130 0h-114l195 251l-187 243h117l140 -192h2l140 192h114l-188 -243l196 -251h-117l-148 201h-2z" />
    <glyph glyph-name="y" unicode="y" horiz-adv-x="602" 
d="M293 80q68 0 108.5 42t40.5 119v253h95v-477q0 -122 -68 -181.5t-178 -59.5q-89 0 -153 42t-85 123h95q34 -82 143 -82q151 0 151 156v67h-2q-49 -91 -163 -91q-99 0 -163.5 63.5t-64.5 186.5v253h95v-253q0 -79 40 -120t109 -41z" />
    <glyph glyph-name="z" unicode="z" horiz-adv-x="534" 
d="M492 0h-455v78l316 329v2h-301v85h430v-78l-316 -329v-2h326v-85z" />
    <glyph glyph-name="braceleft" unicode="{" horiz-adv-x="371" 
d="M351 -197h-45q-96 0 -142 43t-46 139v177q0 45 -44 45h-26v78h26q44 0 44 45v177q0 96 46 139t142 43h45v-76h-46q-98 0 -98 -100v-178q0 -78 -64 -88v-2q64 -12 64 -88v-178q0 -100 98 -100h46v-76z" />
    <glyph glyph-name="bar" unicode="|" horiz-adv-x="346" 
d="M209 -211h-73v1000h73v-1000z" />
    <glyph glyph-name="braceright" unicode="}" horiz-adv-x="371" 
d="M20 689h45q96 0 142 -43t46 -139v-177q0 -45 44 -45h26v-78h-26q-44 0 -44 -45v-177q0 -96 -46 -139t-142 -43h-45v76h46q98 0 98 100v178q0 78 64 88v2q-64 12 -64 88v178q0 100 -98 100h-46v76z" />
    <glyph glyph-name="asciitilde" unicode="~" horiz-adv-x="562" 
d="M443 348h77q-1 -86 -37.5 -132t-99.5 -46q-34 0 -64.5 15t-49 33.5t-41.5 33.5t-43 15q-62 0 -66 -92h-77q1 86 37 132.5t100 46.5q34 0 64.5 -15.5t49 -33.5t41.5 -33.5t43 -15.5q62 0 66 92z" />
    <glyph glyph-name="uni00A0" unicode="&#xa0;" horiz-adv-x="266" 
 />
    <glyph glyph-name="exclamdown" unicode="&#xa1;" horiz-adv-x="264" 
d="M132 456q28 0 47 -19t19 -47t-19 -47t-47 -19t-47 19t-19 47t19 47t47 19zM92 253h80l14 -464h-108z" />
    <glyph glyph-name="cent" unicode="&#xa2;" horiz-adv-x="522" 
d="M238 559v109h59v-110q75 -8 127.5 -53.5t69.5 -114.5h-98q-27 65 -97 79h-2v-282h2q70 14 97 79h98q-17 -70 -69.5 -115t-127.5 -54v-111h-59v111q-94 8 -152.5 72.5t-58.5 158.5t58.5 158t152.5 73zM122 328q0 -55 31.5 -94t82.5 -48h2v283h-2q-51 -8 -82.5 -47
t-31.5 -94z" />
    <glyph glyph-name="sterling" unicode="&#xa3;" horiz-adv-x="522" 
d="M460 0h-411v81q100 28 100 122q0 17 -2 26h-98v71l67 6v2q-3 4 -12 19.5t-12 22t-10.5 20.5t-10.5 24t-7.5 24.5t-6 29t-1.5 30.5q0 81 58 135t151 54q97 0 153 -60t56 -160v-9h-93v9q0 60 -30.5 96t-84.5 36q-53 0 -83.5 -29.5t-30.5 -77.5q0 -32 7.5 -56t27 -58.5
t23.5 -43.5h203v-85h-181q1 -6 1 -18q0 -86 -67 -124v-2h294v-85z" />
    <glyph glyph-name="currency" unicode="&#xa4;" horiz-adv-x="522" 
d="M453 87l-90 93q-43 -31 -104 -31q-58 0 -102 28l-88 -90l-48 47l89 87q-33 46 -33 107t32 105l-88 86l48 48l87 -90q45 29 103 29q60 0 105 -31l89 92l48 -48l-92 -89q32 -45 32 -102q0 -59 -33 -105l93 -89zM259 212q51 0 84 33t33 83t-33 83t-84 33t-84 -33t-33 -83
t33 -83t84 -33z" />
    <glyph glyph-name="yen" unicode="&#xa5;" horiz-adv-x="522" 
d="M474 100h-166v-100h-94v100h-166v76h166v66h-166v76h166v2l-205 334h110l142 -260h2l143 260h107l-205 -334v-2h166v-76h-166v-66h166v-76z" />
    <glyph glyph-name="brokenbar" unicode="&#xa6;" horiz-adv-x="346" 
d="M209 -211h-73v400h73v-400zM209 389h-73v400h73v-400z" />
    <glyph glyph-name="section" unicode="&#xa7;" horiz-adv-x="556" 
d="M68 -28h93q2 -40 32 -64t81 -24q54 0 83.5 24.5t29.5 65.5q0 35 -34.5 52.5t-83.5 25.5t-98 21.5t-83.5 52.5t-34.5 106q0 49 27 84t74 54v2q-82 35 -82 126q0 75 58 122t150 47t149 -46t59 -121h-94q-2 40 -32 64t-81 24q-54 0 -83.5 -24.5t-29.5 -65.5
q0 -35 34.5 -52.5t83.5 -25.5t98 -21.5t83.5 -52.5t34.5 -106q0 -49 -27.5 -84.5t-73.5 -53.5v-2q82 -35 82 -126q0 -75 -57.5 -122t-150.5 -47q-91 0 -148 46.5t-59 120.5zM412 234q0 28 -11 47.5t-33.5 31.5t-43 18t-54.5 12q-51 -2 -88.5 -29.5t-37.5 -75.5
q0 -23 8 -40.5t19.5 -28t32.5 -19t37.5 -12.5t43.5 -9q51 2 89 29.5t38 75.5z" />
    <glyph glyph-name="dieresis" unicode="&#xa8;" horiz-adv-x="320" 
d="M257 577q-24 0 -41 17t-17 42q0 24 17 41t41 17t41 -17t17 -41q0 -25 -17 -42t-41 -17zM64 577q-25 0 -42 17t-17 42q0 24 17 41t42 17q24 0 41 -17t17 -41q0 -25 -17 -42t-41 -17z" />
    <glyph glyph-name="copyright" unicode="&#xa9;" horiz-adv-x="764" 
d="M730 327q0 -148 -98 -244t-250 -96t-250 96t-98 244t98 244t250 96t250 -96t98 -244zM550 375h-62q-29 66 -106 66q-51 0 -83 -32t-32 -82t32 -82t83 -32q77 0 106 66h62q-14 -56 -59.5 -91t-108.5 -35q-78 0 -128 49.5t-50 124.5t50 124.5t128 49.5q63 0 108.5 -35
t59.5 -91zM668 327q0 122 -80 201.5t-206 79.5t-206 -79.5t-80 -201.5t79.5 -201.5t206.5 -79.5t206.5 79.5t79.5 201.5z" />
    <glyph glyph-name="ordfeminine" unicode="&#xaa;" horiz-adv-x="440" 
d="M391 321h-66v69h-2q-17 -35 -52 -56.5t-75 -21.5q-67 0 -117 47t-50 131q0 77 51 127t131 50t130 -49.5t50 -129.5v-167zM391 182h-352v63h352v-63zM211 381q47 0 77 31t30 78t-30 78t-77 31q-48 0 -78 -30.5t-30 -78.5t30 -78.5t78 -30.5z" />
    <glyph glyph-name="guillemotleft" unicode="&#xab;" horiz-adv-x="565" 
d="M313 48h-101l-159 199l159 199h101l-161 -199zM512 48h-101l-159 199l159 199h101l-161 -199z" />
    <glyph glyph-name="logicalnot" unicode="&#xac;" horiz-adv-x="562" 
d="M513 60h-82v191h-382v82h464v-273z" />
    <glyph glyph-name="uni00AD" unicode="&#xad;" horiz-adv-x="346" 
d="M323 226h-300v91h300v-91z" />
    <glyph glyph-name="registered" unicode="&#xae;" horiz-adv-x="764" 
d="M730 327q0 -148 -98 -244t-250 -96t-250 96t-98 244t98 244t250 96t250 -96t98 -244zM668 327q0 122 -80 201.5t-206 79.5t-206 -79.5t-80 -201.5t79.5 -201.5t206.5 -79.5t206.5 79.5t79.5 201.5zM545 163h-75l-82 112h-76v-112h-62v328h168q53 0 84.5 -29.5t31.5 -77.5
q0 -40 -21 -67.5t-58 -37.5v-2zM412 437h-100v-108h100q58 0 58 54t-58 54z" />
    <glyph glyph-name="macron" unicode="&#xaf;" horiz-adv-x="320" 
d="M313 586h-306v67h306v-67z" />
    <glyph glyph-name="degree" unicode="&#xb0;" horiz-adv-x="331" 
d="M165 395q-56 0 -96 40t-40 96t40 96t96 40t96 -40t40 -96t-40 -96t-96 -40zM230 531q0 27 -19 46t-46 19q-26 0 -45.5 -19t-19.5 -46t19.5 -46t45.5 -19q27 0 46 19t19 46z" />
    <glyph glyph-name="plusminus" unicode="&#xb1;" horiz-adv-x="562" 
d="M513 7h-464v81h191v155h-191v82h191v174h82v-174h191v-82h-191v-155h191v-81z" />
    <glyph glyph-name="twosuperior" unicode="&#xb2;" horiz-adv-x="340" 
d="M299 242h-260v61l145 141q48 46 48 84q0 30 -16 48.5t-45 18.5t-45.5 -19t-16.5 -52v-6h-70v6q0 63 35.5 100.5t96.5 37.5t97 -38t36 -97q0 -37 -16.5 -65.5t-52.5 -61.5l-98 -92v-2h162v-64z" />
    <glyph glyph-name="threesuperior" unicode="&#xb3;" horiz-adv-x="340" 
d="M162 428h-47v62h48q63 0 63 53q0 23 -15.5 38t-43.5 15q-27 0 -42 -14.5t-17 -38.5h-68q1 57 36 88t92 31q58 0 93.5 -31t35.5 -82q0 -64 -52 -88v-2q66 -25 66 -100q0 -57 -39.5 -91t-103.5 -34t-103 34.5t-40 94.5h70q0 -27 19.5 -44.5t52.5 -17.5t52.5 17.5t19.5 45.5
q0 64 -77 64z" />
    <glyph glyph-name="acute" unicode="&#xb4;" horiz-adv-x="320" 
d="M139 566h-82l105 154h100z" />
    <glyph glyph-name="uni00B5" unicode="&#xb5;" horiz-adv-x="604" 
d="M161 -211h-95v705h95v-257q0 -78 40.5 -120t108.5 -42q69 0 109 41.5t40 120.5v257h95v-257q0 -123 -64.5 -186.5t-163.5 -63.5q-114 0 -163 91h-2v-289z" />
    <glyph glyph-name="paragraph" unicode="&#xb6;" horiz-adv-x="596" 
d="M324 -172h-72v373q-99 8 -157 70t-58 156q0 100 66 163.5t176 63.5h246v-826h-72v758h-129v-758z" />
    <glyph glyph-name="periodcentered" unicode="&#xb7;" horiz-adv-x="248" 
d="M124 261q-28 0 -47 19t-19 47t19 47t47 19t47 -19t19 -47t-19 -47t-47 -19z" />
    <glyph glyph-name="cedilla" unicode="&#xb8;" horiz-adv-x="320" 
d="M138 -114l-43 27l36 87h57l-25 -59v-1q9 3 22 3q37 0 59.5 -22t22.5 -58q0 -41 -29 -64t-79 -23q-48 0 -76.5 21t-30.5 59h66q3 -28 41 -28q41 0 41 34q0 14 -9.5 22.5t-24.5 8.5t-28 -7z" />
    <glyph glyph-name="onesuperior" unicode="&#xb9;" horiz-adv-x="340" 
d="M234 242h-71v348h-84v64h155v-412z" />
    <glyph glyph-name="ordmasculine" unicode="&#xba;" horiz-adv-x="420" 
d="M391 490q0 -77 -51 -127t-130 -50t-130 50t-51 127t51 127t130 50t130 -50t51 -127zM210 381q48 0 77.5 30.5t29.5 78.5t-29.5 78.5t-77.5 30.5q-47 0 -77 -31t-30 -78t30 -78t77 -31zM380 182h-342v63h342v-63z" />
    <glyph glyph-name="guillemotright" unicode="&#xbb;" horiz-adv-x="565" 
d="M154 48h-101l161 199l-161 199h101l160 -199zM353 48h-101l161 199l-161 199h101l160 -199z" />
    <glyph glyph-name="onequarter" unicode="&#xbc;" horiz-adv-x="824" 
d="M241 0h-73l415 654h73zM234 242h-71v348h-84v64h155v-412zM766 0h-71v87h-190v61l190 264h71v-261h41v-64h-41v-87zM696 313h-2l-112 -160v-2h114v162z" />
    <glyph glyph-name="onehalf" unicode="&#xbd;" horiz-adv-x="824" 
d="M241 0h-73l415 654h73zM234 242h-71v348h-84v64h155v-412zM783 0h-260v61l145 141q48 46 48 84q0 30 -16 48.5t-45 18.5t-45.5 -19t-16.5 -52v-6h-70v6q0 63 35.5 100.5t96.5 37.5t97 -38t36 -97q0 -37 -16.5 -65.5t-52.5 -61.5l-98 -92v-2h162v-64z" />
    <glyph glyph-name="threequarters" unicode="&#xbe;" horiz-adv-x="824" 
d="M285 0h-73l415 654h73zM766 0h-71v87h-190v61l190 264h71v-261h41v-64h-41v-87zM696 313h-2l-112 -160v-2h114v162zM162 428h-47v62h48q63 0 63 53q0 23 -15.5 38t-43.5 15q-27 0 -42 -14.5t-17 -38.5h-68q1 57 36 88t92 31q58 0 93.5 -31t35.5 -82q0 -64 -52 -88v-2
q66 -25 66 -100q0 -57 -39.5 -91t-103.5 -34t-103 34.5t-40 94.5h70q0 -27 19.5 -44.5t52.5 -17.5t52.5 17.5t19.5 45.5q0 64 -77 64z" />
    <glyph glyph-name="questiondown" unicode="&#xbf;" horiz-adv-x="468" 
d="M220 253h88v-12q0 -48 -19 -81.5t-46 -52.5t-53.5 -35.5t-45.5 -41.5t-19 -60q0 -49 31 -77.5t81 -28.5q49 0 81 29t32 79v8h89v-11q0 -87 -57.5 -140t-147.5 -53q-91 0 -148 52t-57 141q0 52 19.5 88t48 55t56.5 34.5t47.5 38.5t19.5 56v12zM262 456q28 0 47 -19t19 -47
t-19 -47t-47 -19q-27 0 -46.5 19t-19.5 47t19.5 47t46.5 19z" />
    <glyph glyph-name="Agrave" unicode="&#xc0;" horiz-adv-x="672" 
d="M620 0h-102v207h-368v-207h-99v385q0 131 73.5 206.5t209.5 75.5q137 0 211.5 -75.5t74.5 -206.5v-385zM518 301v84q0 90 -47 139t-137 49t-137 -49t-47 -139v-84h368zM402 716h-82l-123 154h100z" />
    <glyph glyph-name="Aacute" unicode="&#xc1;" horiz-adv-x="672" 
d="M620 0h-102v207h-368v-207h-99v385q0 131 73.5 206.5t209.5 75.5q137 0 211.5 -75.5t74.5 -206.5v-385zM518 301v84q0 90 -47 139t-137 49t-137 -49t-47 -139v-84h368zM352 716h-82l105 154h100z" />
    <glyph glyph-name="Acircumflex" unicode="&#xc2;" horiz-adv-x="672" 
d="M620 0h-102v207h-368v-207h-99v385q0 131 73.5 206.5t209.5 75.5q137 0 211.5 -75.5t74.5 -206.5v-385zM518 301v84q0 90 -47 139t-137 49t-137 -49t-47 -139v-84h368zM496 716h-82l-77 99h-2l-77 -99h-82l112 154h96z" />
    <glyph glyph-name="Atilde" unicode="&#xc3;" horiz-adv-x="672" 
d="M620 0h-102v207h-368v-207h-99v385q0 131 73.5 206.5t209.5 75.5q137 0 211.5 -75.5t74.5 -206.5v-385zM518 301v84q0 90 -47 139t-137 49t-137 -49t-47 -139v-84h368zM450 855h65q-16 -136 -110 -136q-39 0 -77.5 30t-57.5 30q-40 0 -50 -61h-65q17 135 110 135
q39 0 77.5 -30t57.5 -30q39 0 50 62z" />
    <glyph glyph-name="Adieresis" unicode="&#xc4;" horiz-adv-x="672" 
d="M620 0h-102v207h-368v-207h-99v385q0 131 73.5 206.5t209.5 75.5q137 0 211.5 -75.5t74.5 -206.5v-385zM518 301v84q0 90 -47 139t-137 49t-137 -49t-47 -139v-84h368zM432 727q-24 0 -41 17t-17 42q0 24 17 41t41 17t41 -17t17 -41q0 -25 -17 -42t-41 -17zM239 727
q-25 0 -42 17t-17 42q0 24 17 41t42 17q24 0 41 -17t17 -41q0 -25 -17 -42t-41 -17z" />
    <glyph glyph-name="Aring" unicode="&#xc5;" horiz-adv-x="672" 
d="M620 0h-102v207h-368v-207h-99v385q0 131 73.5 206.5t209.5 75.5q137 0 211.5 -75.5t74.5 -206.5v-385zM518 301v84q0 90 -47 139t-137 49t-137 -49t-47 -139v-84h368zM376 800q0 17 -12 29.5t-29 12.5t-29 -12.5t-12 -29.5t12 -29.5t29 -12.5t29 12.5t12 29.5zM335 700
q-43 0 -71.5 28.5t-28.5 71.5t28.5 71.5t71.5 28.5t71.5 -28.5t28.5 -71.5t-28.5 -71.5t-71.5 -28.5z" />
    <glyph glyph-name="AE" unicode="&#xc6;" horiz-adv-x="1008" 
d="M962 0h-478v207h-334v-207h-99v372q0 131 73.5 206.5t209.5 75.5h628v-94h-376v-180h318v-94h-318v-192h376v-94zM484 301v259h-150q-90 0 -137 -49t-47 -139v-71h334z" />
    <glyph glyph-name="Ccedilla" unicode="&#xc7;" horiz-adv-x="751" 
d="M354 -114l-43 27l31 74v2q-137 13 -222.5 107t-85.5 231q0 148 98 244t250 96q124 0 214.5 -66.5t120.5 -175.5h-108q-27 68 -87 108t-140 40q-108 0 -176.5 -69.5t-68.5 -176.5t68.5 -176.5t176.5 -69.5q80 0 140 40t87 108h108q-30 -105 -115.5 -171.5t-203.5 -70.5
l-19 -46v-1q9 3 22 3q37 0 59.5 -22t22.5 -58q0 -41 -29 -64t-79 -23q-48 0 -76.5 21t-30.5 59h66q3 -28 41 -28q41 0 41 34q0 14 -9.5 22.5t-24.5 8.5t-28 -7z" />
    <glyph glyph-name="Egrave" unicode="&#xc8;" horiz-adv-x="594" 
d="M490 286h-321v-192h379v-94h-481v654h481v-94h-379v-180h321v-94zM375 716h-82l-123 154h100z" />
    <glyph glyph-name="Eacute" unicode="&#xc9;" horiz-adv-x="594" 
d="M490 286h-321v-192h379v-94h-481v654h481v-94h-379v-180h321v-94zM325 716h-82l105 154h100z" />
    <glyph glyph-name="Ecircumflex" unicode="&#xca;" horiz-adv-x="594" 
d="M490 286h-321v-192h379v-94h-481v654h481v-94h-379v-180h321v-94zM469 716h-82l-77 99h-2l-77 -99h-82l112 154h96z" />
    <glyph glyph-name="Edieresis" unicode="&#xcb;" horiz-adv-x="594" 
d="M490 286h-321v-192h379v-94h-481v654h481v-94h-379v-180h321v-94zM405 727q-24 0 -41 17t-17 42q0 24 17 41t41 17t41 -17t17 -41q0 -25 -17 -42t-41 -17zM212 727q-25 0 -42 17t-17 42q0 24 17 41t42 17q24 0 41 -17t17 -41q0 -25 -17 -42t-41 -17z" />
    <glyph glyph-name="Igrave" unicode="&#xcc;" horiz-adv-x="240" 
d="M171 0h-102v654h102v-654zM186 716h-82l-123 154h100z" />
    <glyph glyph-name="Iacute" unicode="&#xcd;" horiz-adv-x="240" 
d="M171 0h-102v654h102v-654zM136 716h-82l105 154h100z" />
    <glyph glyph-name="Icircumflex" unicode="&#xce;" horiz-adv-x="240" 
d="M171 0h-102v654h102v-654zM280 716h-82l-77 99h-2l-77 -99h-82l112 154h96z" />
    <glyph glyph-name="Idieresis" unicode="&#xcf;" horiz-adv-x="240" 
d="M171 0h-102v654h102v-654zM217 727q-24 0 -41 17t-17 42q0 24 17 41t41 17t41 -17t17 -41q0 -25 -17 -42t-41 -17zM24 727q-25 0 -42 17t-17 42q0 24 17 41t42 17q24 0 41 -17t17 -41q0 -25 -17 -42t-41 -17z" />
    <glyph glyph-name="Eth" unicode="&#xd0;" horiz-adv-x="690" 
d="M308 0h-233v286h-61v94h61v274h233q168 0 258 -88.5t90 -238.5t-90 -238.5t-258 -88.5zM177 94h131q122 0 183.5 62t61.5 171t-61.5 171t-183.5 62h-131v-180h184v-94h-184v-192z" />
    <glyph glyph-name="Ntilde" unicode="&#xd1;" horiz-adv-x="657" 
d="M605 0h-102v396q0 84 -45 130.5t-130 46.5q-84 0 -129 -46.5t-45 -130.5v-396h-102v396q0 126 72.5 198.5t203.5 72.5q132 0 204.5 -72.5t72.5 -198.5v-396zM443 855h65q-16 -136 -110 -136q-39 0 -77.5 30t-57.5 30q-40 0 -50 -61h-65q16 135 110 135q39 0 77.5 -30
t57.5 -30q39 0 50 62z" />
    <glyph glyph-name="Ograve" unicode="&#xd2;" horiz-adv-x="764" 
d="M730 327q0 -148 -98 -244t-250 -96t-250 96t-98 244t98 244t250 96t250 -96t98 -244zM382 81q108 0 176.5 69.5t68.5 176.5t-68.5 176.5t-176.5 69.5t-176.5 -69.5t-68.5 -176.5t68.5 -176.5t176.5 -69.5zM448 716h-82l-123 154h100z" />
    <glyph glyph-name="Oacute" unicode="&#xd3;" horiz-adv-x="764" 
d="M730 327q0 -148 -98 -244t-250 -96t-250 96t-98 244t98 244t250 96t250 -96t98 -244zM382 81q108 0 176.5 69.5t68.5 176.5t-68.5 176.5t-176.5 69.5t-176.5 -69.5t-68.5 -176.5t68.5 -176.5t176.5 -69.5zM397 716h-82l105 154h100z" />
    <glyph glyph-name="Ocircumflex" unicode="&#xd4;" horiz-adv-x="764" 
d="M730 327q0 -148 -98 -244t-250 -96t-250 96t-98 244t98 244t250 96t250 -96t98 -244zM382 81q108 0 176.5 69.5t68.5 176.5t-68.5 176.5t-176.5 69.5t-176.5 -69.5t-68.5 -176.5t68.5 -176.5t176.5 -69.5zM542 716h-82l-77 99h-2l-77 -99h-82l112 154h96z" />
    <glyph glyph-name="Otilde" unicode="&#xd5;" horiz-adv-x="764" 
d="M730 327q0 -148 -98 -244t-250 -96t-250 96t-98 244t98 244t250 96t250 -96t98 -244zM382 81q108 0 176.5 69.5t68.5 176.5t-68.5 176.5t-176.5 69.5t-176.5 -69.5t-68.5 -176.5t68.5 -176.5t176.5 -69.5zM497 855h65q-16 -136 -110 -136q-39 0 -77.5 30t-57.5 30
q-40 0 -50 -61h-65q16 135 110 135q39 0 77.5 -30t57.5 -30q39 0 50 62z" />
    <glyph glyph-name="Odieresis" unicode="&#xd6;" horiz-adv-x="764" 
d="M730 327q0 -148 -98 -244t-250 -96t-250 96t-98 244t98 244t250 96t250 -96t98 -244zM382 81q108 0 176.5 69.5t68.5 176.5t-68.5 176.5t-176.5 69.5t-176.5 -69.5t-68.5 -176.5t68.5 -176.5t176.5 -69.5zM478 727q-24 0 -41 17t-17 42q0 24 17 41t41 17t41 -17t17 -41
q0 -25 -17 -42t-41 -17zM285 727q-25 0 -42 17t-17 42q0 24 17 41t42 17q24 0 41 -17t17 -41q0 -25 -17 -42t-41 -17z" />
    <glyph glyph-name="multiply" unicode="&#xd7;" horiz-adv-x="562" 
d="M446 39l-165 165l-165 -165l-58 58l165 165l-165 165l58 58l165 -165l165 165l58 -58l-165 -165l165 -165z" />
    <glyph glyph-name="Oslash" unicode="&#xd8;" horiz-adv-x="764" 
d="M160 0h-126l84 97q-84 94 -84 230q0 148 98 244t250 96q106 0 190 -50l32 37h126l-85 -97q85 -96 85 -230q0 -148 -98 -244t-250 -96q-107 0 -190 50zM137 327q0 -88 47 -152h2l320 366v2q-57 30 -124 30q-108 0 -176.5 -69.5t-68.5 -176.5zM382 81q108 0 176.5 69.5
t68.5 176.5q0 89 -48 152h-2l-319 -366v-2q53 -30 124 -30z" />
    <glyph glyph-name="Ugrave" unicode="&#xd9;" horiz-adv-x="652" 
d="M502 258v396h99v-396q0 -126 -71.5 -198.5t-201.5 -72.5q-131 0 -203.5 72.5t-72.5 198.5v396h102v-396q0 -84 44.5 -130.5t129.5 -46.5t129.5 46.5t44.5 130.5zM392 716h-82l-123 154h100z" />
    <glyph glyph-name="Uacute" unicode="&#xda;" horiz-adv-x="652" 
d="M502 258v396h99v-396q0 -126 -71.5 -198.5t-201.5 -72.5q-131 0 -203.5 72.5t-72.5 198.5v396h102v-396q0 -84 44.5 -130.5t129.5 -46.5t129.5 46.5t44.5 130.5zM342 716h-82l105 154h100z" />
    <glyph glyph-name="Ucircumflex" unicode="&#xdb;" horiz-adv-x="652" 
d="M502 258v396h99v-396q0 -126 -71.5 -198.5t-201.5 -72.5q-131 0 -203.5 72.5t-72.5 198.5v396h102v-396q0 -84 44.5 -130.5t129.5 -46.5t129.5 46.5t44.5 130.5zM486 716h-82l-77 99h-2l-77 -99h-82l112 154h96z" />
    <glyph glyph-name="Udieresis" unicode="&#xdc;" horiz-adv-x="652" 
d="M502 258v396h99v-396q0 -126 -71.5 -198.5t-201.5 -72.5q-131 0 -203.5 72.5t-72.5 198.5v396h102v-396q0 -84 44.5 -130.5t129.5 -46.5t129.5 46.5t44.5 130.5zM423 727q-24 0 -41 17t-17 42q0 24 17 41t41 17t41 -17t17 -41q0 -25 -17 -42t-41 -17zM230 727
q-25 0 -42 17t-17 42q0 24 17 41t42 17q24 0 41 -17t17 -41q0 -25 -17 -42t-41 -17z" />
    <glyph glyph-name="Yacute" unicode="&#xdd;" horiz-adv-x="650" 
d="M377 0h-102v280l-259 374h122l187 -284h2l188 284h119l-257 -371v-283zM341 716h-82l105 154h100z" />
    <glyph glyph-name="Thorn" unicode="&#xde;" horiz-adv-x="602" 
d="M169 0h-102v654h102v-85h177q113 0 173 -59t60 -156t-60 -156.5t-173 -59.5h-177v-138zM169 232h177q67 0 98.5 33t31.5 89q0 55 -32 88t-98 33h-177v-243z" />
    <glyph glyph-name="germandbls" unicode="&#xdf;" 
d="M405 382q85 -12 129 -63.5t44 -130.5q0 -90 -55 -145.5t-153 -55.5q-93 0 -148 50.5t-60 135.5h83q4 -45 35.5 -73t83.5 -28q56 0 87 32t31 90q0 128 -163 128h-56v85h15q54 0 86.5 29t32.5 84q0 56 -32.5 85.5t-86.5 29.5q-55 0 -86.5 -31.5t-31.5 -94.5v-509h-95v509
q0 104 57.5 159t155.5 55q95 0 153.5 -51.5t58.5 -139.5q0 -105 -85 -148v-2z" />
    <glyph glyph-name="agrave" unicode="&#xe0;" 
d="M559 243v-243h-87v103h-2q-23 -53 -73.5 -84.5t-117.5 -31.5q-102 0 -176 70t-74 190q0 113 74.5 186.5t191.5 73.5t190.5 -73t73.5 -191zM295 75q76 0 123 48t47 124t-47 124t-123 48t-123 -48t-47 -124t47 -124t123 -48zM366 566h-82l-123 154h100z" />
    <glyph glyph-name="aacute" unicode="&#xe1;" 
d="M559 243v-243h-87v103h-2q-23 -53 -73.5 -84.5t-117.5 -31.5q-102 0 -176 70t-74 190q0 113 74.5 186.5t191.5 73.5t190.5 -73t73.5 -191zM295 75q76 0 123 48t47 124t-47 124t-123 48t-123 -48t-47 -124t47 -124t123 -48zM316 566h-82l105 154h100z" />
    <glyph glyph-name="acircumflex" unicode="&#xe2;" 
d="M559 243v-243h-87v103h-2q-23 -53 -73.5 -84.5t-117.5 -31.5q-102 0 -176 70t-74 190q0 113 74.5 186.5t191.5 73.5t190.5 -73t73.5 -191zM295 75q76 0 123 48t47 124t-47 124t-123 48t-123 -48t-47 -124t47 -124t123 -48zM460 566h-82l-77 99h-2l-77 -99h-82l112 154h96
z" />
    <glyph glyph-name="atilde" unicode="&#xe3;" 
d="M559 243v-243h-87v103h-2q-23 -53 -73.5 -84.5t-117.5 -31.5q-102 0 -176 70t-74 190q0 113 74.5 186.5t191.5 73.5t190.5 -73t73.5 -191zM295 75q76 0 123 48t47 124t-47 124t-123 48t-123 -48t-47 -124t47 -124t123 -48zM415 705h65q-16 -136 -110 -136q-39 0 -77.5 30
t-57.5 30q-40 0 -50 -61h-65q16 135 110 135q39 0 77.5 -30t57.5 -30q39 0 50 62z" />
    <glyph glyph-name="adieresis" unicode="&#xe4;" 
d="M559 243v-243h-87v103h-2q-23 -53 -73.5 -84.5t-117.5 -31.5q-102 0 -176 70t-74 190q0 113 74.5 186.5t191.5 73.5t190.5 -73t73.5 -191zM295 75q76 0 123 48t47 124t-47 124t-123 48t-123 -48t-47 -124t47 -124t123 -48zM396 577q-24 0 -41 17t-17 42q0 24 17 41t41 17
t41 -17t17 -41q0 -25 -17 -42t-41 -17zM203 577q-25 0 -42 17t-17 42q0 24 17 41t42 17q24 0 41 -17t17 -41q0 -25 -17 -42t-41 -17z" />
    <glyph glyph-name="aring" unicode="&#xe5;" 
d="M559 243v-243h-87v103h-2q-23 -53 -73.5 -84.5t-117.5 -31.5q-102 0 -176 70t-74 190q0 113 74.5 186.5t191.5 73.5t190.5 -73t73.5 -191zM295 75q76 0 123 48t47 124t-47 124t-123 48t-123 -48t-47 -124t47 -124t123 -48zM341 650q0 17 -12 29.5t-29 12.5t-29 -12.5
t-12 -29.5t12 -29.5t29 -12.5t29 12.5t12 29.5zM300 550q-43 0 -71.5 28.5t-28.5 71.5t28.5 71.5t71.5 28.5t71.5 -28.5t28.5 -71.5t-28.5 -71.5t-71.5 -28.5z" />
    <glyph glyph-name="ae" unicode="&#xe6;" horiz-adv-x="1023" 
d="M295 75q76 0 123 48t47 124t-47 124t-123 48t-123 -48t-47 -124t47 -124t123 -48zM730 419q-62 0 -105.5 -32.5t-57.5 -87.5v-2h327v2q-14 55 -58 87.5t-106 32.5zM868 138h105q-28 -69 -89 -110t-139 -41q-65 0 -114.5 29.5t-73.5 79.5h-1v-96h-87v96h-2
q-24 -50 -73.5 -79.5t-114.5 -29.5q-102 0 -176 70t-74 190q0 113 73 186.5t187 73.5q79 0 136 -33.5t87 -92.5h2q30 59 87 92.5t135 33.5q114 0 186 -73.5t72 -186.5v-35h-430v-2q11 -62 55 -98.5t111 -36.5q96 0 138 63z" />
    <glyph glyph-name="ccedilla" unicode="&#xe7;" horiz-adv-x="580" 
d="M265 -114l-43 27l30 75v2q-100 13 -161.5 83.5t-61.5 173.5q0 113 74.5 186.5t191.5 73.5q97 0 166 -53t89 -139h-96q-18 48 -60 76t-99 28q-76 0 -123 -48t-47 -124t47 -124t123 -48q57 0 99 28t60 76h96q-19 -83 -84 -135.5t-157 -56.5l-19 -46v-1q9 3 22 3
q37 0 59.5 -22t22.5 -58q0 -41 -29 -64t-79 -23q-48 0 -76.5 21t-30.5 59h66q3 -28 41 -28q41 0 41 34q0 14 -9.5 22.5t-24.5 8.5t-28 -7z" />
    <glyph glyph-name="egrave" unicode="&#xe8;" horiz-adv-x="588" 
d="M559 212h-430v-2q11 -62 55 -98.5t111 -36.5q96 0 138 63h105q-29 -70 -93.5 -110.5t-149.5 -40.5q-117 0 -191.5 73.5t-74.5 186.5t74.5 186.5t191.5 73.5q116 0 190 -73.5t74 -186.5v-35zM295 419q-62 0 -105.5 -32.5t-57.5 -87.5v-2h327v2q-14 55 -58 87.5t-106 32.5z
M361 566h-82l-123 154h100z" />
    <glyph glyph-name="eacute" unicode="&#xe9;" horiz-adv-x="588" 
d="M559 212h-430v-2q11 -62 55 -98.5t111 -36.5q96 0 138 63h105q-29 -70 -93.5 -110.5t-149.5 -40.5q-117 0 -191.5 73.5t-74.5 186.5t74.5 186.5t191.5 73.5q116 0 190 -73.5t74 -186.5v-35zM295 419q-62 0 -105.5 -32.5t-57.5 -87.5v-2h327v2q-14 55 -58 87.5t-106 32.5z
M311 566h-82l105 154h100z" />
    <glyph glyph-name="ecircumflex" unicode="&#xea;" horiz-adv-x="588" 
d="M559 212h-430v-2q11 -62 55 -98.5t111 -36.5q96 0 138 63h105q-29 -70 -93.5 -110.5t-149.5 -40.5q-117 0 -191.5 73.5t-74.5 186.5t74.5 186.5t191.5 73.5q116 0 190 -73.5t74 -186.5v-35zM295 419q-62 0 -105.5 -32.5t-57.5 -87.5v-2h327v2q-14 55 -58 87.5t-106 32.5z
M455 566h-82l-77 99h-2l-77 -99h-82l112 154h96z" />
    <glyph glyph-name="edieresis" unicode="&#xeb;" horiz-adv-x="588" 
d="M559 212h-430v-2q11 -62 55 -98.5t111 -36.5q96 0 138 63h105q-29 -70 -93.5 -110.5t-149.5 -40.5q-117 0 -191.5 73.5t-74.5 186.5t74.5 186.5t191.5 73.5q116 0 190 -73.5t74 -186.5v-35zM295 419q-62 0 -105.5 -32.5t-57.5 -87.5v-2h327v2q-14 55 -58 87.5t-106 32.5z
M392 577q-24 0 -41 17t-17 42q0 24 17 41t41 17t41 -17t17 -41q0 -25 -17 -42t-41 -17zM199 577q-25 0 -42 17t-17 42q0 24 17 41t42 17q24 0 41 -17t17 -41q0 -25 -17 -42t-41 -17z" />
    <glyph glyph-name="igrave" unicode="&#xec;" horiz-adv-x="228" 
d="M181 566h-82l-123 154h100zM162 0h-95v494h95v-494z" />
    <glyph glyph-name="iacute" unicode="&#xed;" horiz-adv-x="228" 
d="M130 566h-82l105 154h100zM162 0h-95v494h95v-494z" />
    <glyph glyph-name="icircumflex" unicode="&#xee;" horiz-adv-x="228" 
d="M162 0h-95v494h95v-494zM275 566h-82l-77 99h-2l-77 -99h-82l112 154h96z" />
    <glyph glyph-name="idieresis" unicode="&#xef;" horiz-adv-x="228" 
d="M203 577q-24 0 -41.5 17t-17.5 42q0 24 17.5 41t41.5 17t41 -17t17 -41q0 -25 -17 -42t-41 -17zM26 577q-24 0 -41 17t-17 42q0 24 17 41t41 17t41 -17t17 -41q0 -25 -17 -42t-41 -17zM161 0h-94v494h94v-494z" />
    <glyph glyph-name="eth" unicode="&#xf0;" horiz-adv-x="590" 
d="M561 267q0 -129 -73.5 -204.5t-192.5 -75.5q-117 0 -191.5 73.5t-74.5 186.5q0 110 66 179t166 69q98 0 166 -65h2q-41 75 -109 132l-229 -63v73l153 42v2q-60 35 -141 57l110 37q78 -25 138 -66l139 38v-73l-69 -20v-2q140 -137 140 -320zM295 75q76 0 123 48t47 124
t-47 124t-123 48t-123 -48t-47 -124t47 -124t123 -48z" />
    <glyph glyph-name="ntilde" unicode="&#xf1;" horiz-adv-x="586" 
d="M537 0h-95v257q0 79 -40 120.5t-109 41.5t-109 -41.5t-40 -120.5v-257h-95v257q0 121 66 185.5t178 64.5t178 -64t66 -186v-257zM408 705h65q-16 -136 -110 -136q-39 0 -77.5 30t-57.5 30q-40 0 -50 -61h-65q17 135 110 135q39 0 77.5 -30t57.5 -30q39 0 50 62z" />
    <glyph glyph-name="ograve" unicode="&#xf2;" horiz-adv-x="590" 
d="M561 247q0 -113 -74.5 -186.5t-191.5 -73.5t-191.5 73.5t-74.5 186.5t74.5 186.5t191.5 73.5t191.5 -73.5t74.5 -186.5zM295 75q76 0 123 48t47 124t-47 124t-123 48t-123 -48t-47 -124t47 -124t123 -48zM361 566h-82l-123 154h100z" />
    <glyph glyph-name="oacute" unicode="&#xf3;" horiz-adv-x="590" 
d="M561 247q0 -113 -74.5 -186.5t-191.5 -73.5t-191.5 73.5t-74.5 186.5t74.5 186.5t191.5 73.5t191.5 -73.5t74.5 -186.5zM295 75q76 0 123 48t47 124t-47 124t-123 48t-123 -48t-47 -124t47 -124t123 -48zM310 566h-82l105 154h100z" />
    <glyph glyph-name="ocircumflex" unicode="&#xf4;" horiz-adv-x="590" 
d="M561 247q0 -113 -74.5 -186.5t-191.5 -73.5t-191.5 73.5t-74.5 186.5t74.5 186.5t191.5 73.5t191.5 -73.5t74.5 -186.5zM295 75q76 0 123 48t47 124t-47 124t-123 48t-123 -48t-47 -124t47 -124t123 -48zM455 566h-82l-77 99h-2l-77 -99h-82l112 154h96z" />
    <glyph glyph-name="otilde" unicode="&#xf5;" horiz-adv-x="590" 
d="M561 247q0 -113 -74.5 -186.5t-191.5 -73.5t-191.5 73.5t-74.5 186.5t74.5 186.5t191.5 73.5t191.5 -73.5t74.5 -186.5zM295 75q76 0 123 48t47 124t-47 124t-123 48t-123 -48t-47 -124t47 -124t123 -48zM410 705h65q-16 -136 -110 -136q-39 0 -77.5 30t-57.5 30
q-40 0 -50 -61h-65q17 135 110 135q39 0 77.5 -30t57.5 -30q39 0 50 62z" />
    <glyph glyph-name="odieresis" unicode="&#xf6;" horiz-adv-x="590" 
d="M561 247q0 -113 -74.5 -186.5t-191.5 -73.5t-191.5 73.5t-74.5 186.5t74.5 186.5t191.5 73.5t191.5 -73.5t74.5 -186.5zM295 75q76 0 123 48t47 124t-47 124t-123 48t-123 -48t-47 -124t47 -124t123 -48zM391 577q-24 0 -41 17t-17 42q0 24 17 41t41 17t41 -17t17 -41
q0 -25 -17 -42t-41 -17zM198 577q-25 0 -42 17t-17 42q0 24 17 41t42 17q24 0 41 -17t17 -41q0 -25 -17 -42t-41 -17z" />
    <glyph glyph-name="divide" unicode="&#xf7;" horiz-adv-x="562" 
d="M281 8q-26 0 -43.5 17.5t-17.5 42.5q0 26 18 43.5t43 17.5t43 -17.5t18 -43.5q0 -25 -17.5 -42.5t-43.5 -17.5zM281 395q-25 0 -43 17.5t-18 43.5q0 25 17.5 42.5t43.5 17.5t43.5 -17.5t17.5 -42.5q0 -26 -18 -43.5t-43 -17.5zM513 221h-464v82h464v-82z" />
    <glyph glyph-name="oslash" unicode="&#xf8;" horiz-adv-x="590" 
d="M139 0h-110l62 73q-62 72 -62 174q0 113 74.5 186.5t191.5 73.5q73 0 138 -34l18 21h110l-63 -74q63 -71 63 -173q0 -113 -74.5 -186.5t-191.5 -73.5q-75 0 -138 34zM295 75q76 0 123 48t47 124q0 59 -28 100h-2l-217 -255v-2q37 -15 77 -15zM125 247q0 -59 27 -100h2
l217 254v2q-32 16 -76 16q-76 0 -123 -48t-47 -124z" />
    <glyph glyph-name="ugrave" unicode="&#xf9;" horiz-adv-x="586" 
d="M442 236v258h95v-258q0 -120 -66 -184.5t-178 -64.5t-178 64t-66 185v258h95v-258q0 -79 40 -120t109 -41t109 41t40 120zM359 566h-82l-123 154h100z" />
    <glyph glyph-name="uacute" unicode="&#xfa;" horiz-adv-x="586" 
d="M442 236v258h95v-258q0 -120 -66 -184.5t-178 -64.5t-178 64t-66 185v258h95v-258q0 -79 40 -120t109 -41t109 41t40 120zM308 566h-82l105 154h100z" />
    <glyph glyph-name="ucircumflex" unicode="&#xfb;" horiz-adv-x="586" 
d="M442 236v258h95v-258q0 -120 -66 -184.5t-178 -64.5t-178 64t-66 185v258h95v-258q0 -79 40 -120t109 -41t109 41t40 120zM453 566h-82l-77 99h-2l-77 -99h-82l112 154h96z" />
    <glyph glyph-name="udieresis" unicode="&#xfc;" horiz-adv-x="586" 
d="M442 236v258h95v-258q0 -120 -66 -184.5t-178 -64.5t-178 64t-66 185v258h95v-258q0 -79 40 -120t109 -41t109 41t40 120zM389 577q-24 0 -41 17t-17 42q0 24 17 41t41 17t41 -17t17 -41q0 -25 -17 -42t-41 -17zM196 577q-25 0 -42 17t-17 42q0 24 17 41t42 17
q24 0 41 -17t17 -41q0 -25 -17 -42t-41 -17z" />
    <glyph glyph-name="yacute" unicode="&#xfd;" horiz-adv-x="602" 
d="M293 80q68 0 108.5 42t40.5 119v253h95v-477q0 -122 -68 -181.5t-178 -59.5q-89 0 -153 42t-85 123h95q34 -82 143 -82q151 0 151 156v67h-2q-49 -91 -163 -91q-99 0 -163.5 63.5t-64.5 186.5v253h95v-253q0 -79 40 -120t109 -41zM316 566h-82l105 154h100z" />
    <glyph glyph-name="thorn" unicode="&#xfe;" horiz-adv-x="624" 
d="M160 -211h-95v921h95v-300h2q26 45 74 71t110 26q102 0 175.5 -70t73.5 -190t-73.5 -190t-175.5 -70q-62 0 -110 25.5t-74 71.5h-2v-295zM329 75q76 0 123 48t47 124t-47 124t-123 48t-122.5 -48t-46.5 -124t46.5 -124t122.5 -48z" />
    <glyph glyph-name="ydieresis" unicode="&#xff;" horiz-adv-x="602" 
d="M293 80q68 0 108.5 42t40.5 119v253h95v-477q0 -122 -68 -181.5t-178 -59.5q-89 0 -153 42t-85 123h95q34 -82 143 -82q151 0 151 156v67h-2q-49 -91 -163 -91q-99 0 -163.5 63.5t-64.5 186.5v253h95v-253q0 -79 40 -120t109 -41zM397 577q-24 0 -41 17t-17 42
q0 24 17 41t41 17t41 -17t17 -41q0 -25 -17 -42t-41 -17zM204 577q-25 0 -42 17t-17 42q0 24 17 41t42 17q24 0 41 -17t17 -41q0 -25 -17 -42t-41 -17z" />
    <glyph glyph-name="Amacron" unicode="&#x100;" horiz-adv-x="672" 
d="M620 0h-102v207h-368v-207h-99v385q0 131 73.5 206.5t209.5 75.5q137 0 211.5 -75.5t74.5 -206.5v-385zM518 301v84q0 90 -47 139t-137 49t-137 -49t-47 -139v-84h368zM488 736h-306v67h306v-67z" />
    <glyph glyph-name="amacron" unicode="&#x101;" 
d="M559 243v-243h-87v103h-2q-23 -53 -73.5 -84.5t-117.5 -31.5q-102 0 -176 70t-74 190q0 113 74.5 186.5t191.5 73.5t190.5 -73t73.5 -191zM295 75q76 0 123 48t47 124t-47 124t-123 48t-123 -48t-47 -124t47 -124t123 -48zM453 586h-306v67h306v-67z" />
    <glyph glyph-name="Abreve" unicode="&#x102;" horiz-adv-x="672" 
d="M620 0h-102v207h-368v-207h-99v385q0 131 73.5 206.5t209.5 75.5q137 0 211.5 -75.5t74.5 -206.5v-385zM518 301v84q0 90 -47 139t-137 49t-137 -49t-47 -139v-84h368zM412 864h68q-1 -69 -40.5 -108.5t-104.5 -39.5q-66 0 -105 39.5t-40 108.5h68q7 -79 77 -79t77 79z
" />
    <glyph glyph-name="abreve" unicode="&#x103;" 
d="M559 243v-243h-87v103h-2q-23 -53 -73.5 -84.5t-117.5 -31.5q-102 0 -176 70t-74 190q0 113 74.5 186.5t191.5 73.5t190.5 -73t73.5 -191zM295 75q76 0 123 48t47 124t-47 124t-123 48t-123 -48t-47 -124t47 -124t123 -48zM377 714h68q-1 -69 -40.5 -108.5t-104.5 -39.5
q-66 0 -105 39.5t-40 108.5h68q7 -79 77 -79t77 79z" />
    <glyph glyph-name="Aogonek" unicode="&#x104;" horiz-adv-x="672" 
d="M633 -107v-73q-33 -44 -105 -44q-51 0 -83.5 26.5t-32.5 70.5q0 95 106 134v200h-368v-207h-99v385q0 131 73.5 206.5t209.5 75.5q137 0 211.5 -75.5t74.5 -206.5v-385h-27q-53 -10 -82 -36t-29 -60q0 -28 17 -42.5t42 -14.5q54 0 92 46zM518 301v84q0 90 -47 139
t-137 49t-137 -49t-47 -139v-84h368z" />
    <glyph glyph-name="aogonek" unicode="&#x105;" 
d="M573 -107v-73q-33 -44 -105 -44q-51 0 -83.5 26.5t-32.5 70.5q0 102 120 139v91h-2q-23 -53 -73.5 -84.5t-117.5 -31.5q-102 0 -176 70t-74 190q0 113 74.5 186.5t191.5 73.5t190.5 -73t73.5 -191v-243h-26q-53 -10 -82 -36t-29 -60q0 -28 17 -42.5t42 -14.5q54 0 92 46z
M295 75q76 0 123 48t47 124t-47 124t-123 48t-123 -48t-47 -124t47 -124t123 -48z" />
    <glyph glyph-name="Cacute" unicode="&#x106;" horiz-adv-x="751" 
d="M717 425h-108q-27 68 -87 108t-140 40q-108 0 -176.5 -69.5t-68.5 -176.5t68.5 -176.5t176.5 -69.5q80 0 140 40t87 108h108q-30 -109 -120.5 -175.5t-214.5 -66.5q-152 0 -250 96t-98 244t98 244t250 96q124 0 214.5 -66.5t120.5 -175.5zM397 716h-82l105 154h100z" />
    <glyph glyph-name="cacute" unicode="&#x107;" horiz-adv-x="580" 
d="M550 315h-96q-18 48 -60 76t-99 28q-76 0 -123 -48t-47 -124t47 -124t123 -48q57 0 99 28t60 76h96q-20 -86 -89 -139t-166 -53q-117 0 -191.5 73.5t-74.5 186.5t74.5 186.5t191.5 73.5q97 0 166 -53t89 -139zM310 566h-82l105 154h100z" />
    <glyph glyph-name="Ccircumflex" unicode="&#x108;" horiz-adv-x="751" 
d="M717 425h-108q-27 68 -87 108t-140 40q-108 0 -176.5 -69.5t-68.5 -176.5t68.5 -176.5t176.5 -69.5q80 0 140 40t87 108h108q-30 -109 -120.5 -175.5t-214.5 -66.5q-152 0 -250 96t-98 244t98 244t250 96q124 0 214.5 -66.5t120.5 -175.5zM541 716h-82l-77 99h-2l-77 -99
h-82l112 154h96z" />
    <glyph glyph-name="ccircumflex" unicode="&#x109;" horiz-adv-x="580" 
d="M550 315h-96q-18 48 -60 76t-99 28q-76 0 -123 -48t-47 -124t47 -124t123 -48q57 0 99 28t60 76h96q-20 -86 -89 -139t-166 -53q-117 0 -191.5 73.5t-74.5 186.5t74.5 186.5t191.5 73.5q97 0 166 -53t89 -139zM454 566h-82l-77 99h-2l-77 -99h-82l112 154h96z" />
    <glyph glyph-name="Cdotaccent" unicode="&#x10a;" horiz-adv-x="751" 
d="M717 425h-108q-27 68 -87 108t-140 40q-108 0 -176.5 -69.5t-68.5 -176.5t68.5 -176.5t176.5 -69.5q80 0 140 40t87 108h108q-30 -109 -120.5 -175.5t-214.5 -66.5q-152 0 -250 96t-98 244t98 244t250 96q124 0 214.5 -66.5t120.5 -175.5zM381 727q-24 0 -41 17t-17 42
q0 24 17 41t41 17t41 -17t17 -41q0 -25 -17 -42t-41 -17z" />
    <glyph glyph-name="cdotaccent" unicode="&#x10b;" horiz-adv-x="580" 
d="M550 315h-96q-18 48 -60 76t-99 28q-76 0 -123 -48t-47 -124t47 -124t123 -48q57 0 99 28t60 76h96q-20 -86 -89 -139t-166 -53q-117 0 -191.5 73.5t-74.5 186.5t74.5 186.5t191.5 73.5q97 0 166 -53t89 -139zM294 577q-24 0 -41 17t-17 42q0 24 17 41t41 17t41 -17
t17 -41q0 -25 -17 -42t-41 -17z" />
    <glyph glyph-name="Ccaron" unicode="&#x10c;" horiz-adv-x="751" 
d="M717 425h-108q-27 68 -87 108t-140 40q-108 0 -176.5 -69.5t-68.5 -176.5t68.5 -176.5t176.5 -69.5q80 0 140 40t87 108h108q-30 -109 -120.5 -175.5t-214.5 -66.5q-152 0 -250 96t-98 244t98 244t250 96q124 0 214.5 -66.5t120.5 -175.5zM429 716h-96l-112 154h82
l77 -99h2l77 99h82z" />
    <glyph glyph-name="ccaron" unicode="&#x10d;" horiz-adv-x="580" 
d="M550 315h-96q-18 48 -60 76t-99 28q-76 0 -123 -48t-47 -124t47 -124t123 -48q57 0 99 28t60 76h96q-20 -86 -89 -139t-166 -53q-117 0 -191.5 73.5t-74.5 186.5t74.5 186.5t191.5 73.5q97 0 166 -53t89 -139zM342 566h-96l-112 154h82l77 -99h2l77 99h82z" />
    <glyph glyph-name="Dcaron" unicode="&#x10e;" horiz-adv-x="682" 
d="M300 0h-233v654h233q168 0 258 -88.5t90 -238.5t-90 -238.5t-258 -88.5zM169 94h131q122 0 183.5 62t61.5 171t-61.5 171t-183.5 62h-131v-466zM362 716h-96l-112 154h82l77 -99h2l77 99h82z" />
    <glyph glyph-name="dcaron" unicode="&#x10f;" horiz-adv-x="765" 
d="M295 75q75 0 122 48.5t47 123.5t-47 123.5t-122 48.5q-76 0 -123 -48t-47 -124t47 -124t123 -48zM559 710v-459q0 -119 -73 -191.5t-191 -72.5q-117 0 -191.5 73.5t-74.5 186.5q0 120 73.5 190t175.5 70q62 0 110 -26t74 -71h2v300h95zM685 437h-51l35 114
q-18 6 -29 21.5t-11 34.5q0 25 17.5 42.5t43.5 17.5t43.5 -17.5t17.5 -42.5q0 -15 -8 -33z" />
    <glyph glyph-name="Dcroat" unicode="&#x110;" horiz-adv-x="690" 
d="M308 0h-233v286h-61v94h61v274h233q168 0 258 -88.5t90 -238.5t-90 -238.5t-258 -88.5zM177 94h131q122 0 183.5 62t61.5 171t-61.5 171t-183.5 62h-131v-180h184v-94h-184v-192z" />
    <glyph glyph-name="dcroat" unicode="&#x111;" 
d="M559 710v-92h49v-77h-49v-290q0 -119 -73 -191.5t-191 -72.5q-117 0 -191.5 73.5t-74.5 186.5q0 120 73.5 190t175.5 70q62 0 110 -26t74 -71h2v131h-141v77h141v92h95zM295 75q75 0 122 48.5t47 123.5t-47 123.5t-122 48.5q-76 0 -123 -48t-47 -124t47 -124t123 -48z
" />
    <glyph glyph-name="Emacron" unicode="&#x112;" horiz-adv-x="594" 
d="M490 286h-321v-192h379v-94h-481v654h481v-94h-379v-180h321v-94zM462 736h-306v67h306v-67z" />
    <glyph glyph-name="emacron" unicode="&#x113;" horiz-adv-x="588" 
d="M559 212h-430v-2q11 -62 55 -98.5t111 -36.5q96 0 138 63h105q-29 -70 -93.5 -110.5t-149.5 -40.5q-117 0 -191.5 73.5t-74.5 186.5t74.5 186.5t191.5 73.5q116 0 190 -73.5t74 -186.5v-35zM295 419q-62 0 -105.5 -32.5t-57.5 -87.5v-2h327v2q-14 55 -58 87.5t-106 32.5z
M448 586h-306v67h306v-67z" />
    <glyph glyph-name="Ebreve" unicode="&#x114;" horiz-adv-x="594" 
d="M490 286h-321v-192h379v-94h-481v654h481v-94h-379v-180h321v-94zM386 864h68q-1 -69 -40.5 -108.5t-104.5 -39.5q-66 0 -105 39.5t-40 108.5h68q7 -79 77 -79t77 79z" />
    <glyph glyph-name="ebreve" unicode="&#x115;" horiz-adv-x="588" 
d="M559 212h-430v-2q11 -62 55 -98.5t111 -36.5q96 0 138 63h105q-29 -70 -93.5 -110.5t-149.5 -40.5q-117 0 -191.5 73.5t-74.5 186.5t74.5 186.5t191.5 73.5q116 0 190 -73.5t74 -186.5v-35zM295 419q-62 0 -105.5 -32.5t-57.5 -87.5v-2h327v2q-14 55 -58 87.5t-106 32.5z
M372 714h68q-1 -69 -40.5 -108.5t-104.5 -39.5q-66 0 -105 39.5t-40 108.5h68q7 -79 77 -79t77 79z" />
    <glyph glyph-name="Edotaccent" unicode="&#x116;" horiz-adv-x="594" 
d="M490 286h-321v-192h379v-94h-481v654h481v-94h-379v-180h321v-94zM309 727q-24 0 -41 17t-17 42q0 24 17 41t41 17t41 -17t17 -41q0 -25 -17 -42t-41 -17z" />
    <glyph glyph-name="edotaccent" unicode="&#x117;" horiz-adv-x="588" 
d="M559 212h-430v-2q11 -62 55 -98.5t111 -36.5q96 0 138 63h105q-29 -70 -93.5 -110.5t-149.5 -40.5q-117 0 -191.5 73.5t-74.5 186.5t74.5 186.5t191.5 73.5q116 0 190 -73.5t74 -186.5v-35zM295 419q-62 0 -105.5 -32.5t-57.5 -87.5v-2h327v2q-14 55 -58 87.5t-106 32.5z
M295 577q-24 0 -41 17t-17 42q0 24 17 41t41 17t41 -17t17 -41q0 -25 -17 -42t-41 -17z" />
    <glyph glyph-name="Eogonek" unicode="&#x118;" horiz-adv-x="594" 
d="M547 -107v-73q-33 -44 -105 -44q-51 0 -83.5 26.5t-32.5 70.5q0 85 83 125v2h-342v654h481v-94h-379v-180h321v-94h-321v-192h379v-94h-41q-53 -10 -82 -36t-29 -60q0 -28 17 -42.5t42 -14.5q54 0 92 46z" />
    <glyph glyph-name="eogonek" unicode="&#x119;" horiz-adv-x="588" 
d="M335 -12v2q-19 -3 -40 -3q-117 0 -191.5 73.5t-74.5 186.5t74.5 186.5t191.5 73.5q116 0 190 -73.5t74 -186.5v-35h-430v-2q11 -62 55 -98.5t111 -36.5q96 0 138 63h105q-37 -87 -124 -127q-68 -40 -68 -107q0 -28 17 -42.5t42 -14.5q53 0 92 46v-73q-33 -44 -105 -44
q-52 0 -84 26.5t-32 70.5q0 67 59 115zM295 419q-62 0 -105.5 -32.5t-57.5 -87.5v-2h327v2q-14 55 -58 87.5t-106 32.5z" />
    <glyph glyph-name="Ecaron" unicode="&#x11a;" horiz-adv-x="594" 
d="M490 286h-321v-192h379v-94h-481v654h481v-94h-379v-180h321v-94zM357 716h-96l-112 154h82l77 -99h2l77 99h82z" />
    <glyph glyph-name="ecaron" unicode="&#x11b;" horiz-adv-x="588" 
d="M559 212h-430v-2q11 -62 55 -98.5t111 -36.5q96 0 138 63h105q-29 -70 -93.5 -110.5t-149.5 -40.5q-117 0 -191.5 73.5t-74.5 186.5t74.5 186.5t191.5 73.5q116 0 190 -73.5t74 -186.5v-35zM295 419q-62 0 -105.5 -32.5t-57.5 -87.5v-2h327v2q-14 55 -58 87.5t-106 32.5z
M343 566h-96l-112 154h82l77 -99h2l77 99h82z" />
    <glyph glyph-name="Gcircumflex" unicode="&#x11c;" horiz-adv-x="757" 
d="M710 448h-113q-29 59 -85 92t-130 33q-108 0 -176.5 -69.5t-68.5 -176.5t68.5 -176.5t176.5 -69.5q90 0 152.5 44.5t84.5 122.5v2h-277v94h387v-50q-11 -135 -107.5 -221t-239.5 -86q-152 0 -250 96t-98 244t98 244t250 96q118 0 205 -59.5t123 -159.5zM541 716h-82
l-77 99h-2l-77 -99h-82l112 154h96z" />
    <glyph glyph-name="gcircumflex" unicode="&#x11d;" 
d="M465 36v53h-2q-26 -46 -74.5 -72t-109.5 -26q-103 0 -176.5 68t-73.5 188q0 113 74.5 186.5t191.5 73.5q118 0 191 -72.5t73 -191.5v-203q0 -135 -72 -199.5t-190 -64.5q-94 0 -159.5 41t-90.5 124h97q33 -82 153 -82q168 0 168 177zM465 247q0 76 -47 124t-123 48
t-123 -48t-47 -124q0 -75 47 -121t123 -46t123 46t47 121zM460 566h-82l-77 99h-2l-77 -99h-82l112 154h96z" />
    <glyph glyph-name="Gbreve" unicode="&#x11e;" horiz-adv-x="757" 
d="M710 448h-113q-29 59 -85 92t-130 33q-108 0 -176.5 -69.5t-68.5 -176.5t68.5 -176.5t176.5 -69.5q90 0 152.5 44.5t84.5 122.5v2h-277v94h387v-50q-11 -135 -107.5 -221t-239.5 -86q-152 0 -250 96t-98 244t98 244t250 96q118 0 205 -59.5t123 -159.5zM458 864h68
q-1 -69 -40.5 -108.5t-104.5 -39.5q-66 0 -105 39.5t-40 108.5h68q7 -79 77 -79t77 79z" />
    <glyph glyph-name="gbreve" unicode="&#x11f;" 
d="M465 36v53h-2q-26 -46 -74.5 -72t-109.5 -26q-103 0 -176.5 68t-73.5 188q0 113 74.5 186.5t191.5 73.5q118 0 191 -72.5t73 -191.5v-203q0 -135 -72 -199.5t-190 -64.5q-94 0 -159.5 41t-90.5 124h97q33 -82 153 -82q168 0 168 177zM465 247q0 76 -47 124t-123 48
t-123 -48t-47 -124q0 -75 47 -121t123 -46t123 46t47 121zM377 714h68q-1 -69 -40.5 -108.5t-104.5 -39.5q-66 0 -105 39.5t-40 108.5h68q7 -79 77 -79t77 79z" />
    <glyph glyph-name="Gdotaccent" unicode="&#x120;" horiz-adv-x="757" 
d="M710 448h-113q-29 59 -85 92t-130 33q-108 0 -176.5 -69.5t-68.5 -176.5t68.5 -176.5t176.5 -69.5q90 0 152.5 44.5t84.5 122.5v2h-277v94h387v-50q-11 -135 -107.5 -221t-239.5 -86q-152 0 -250 96t-98 244t98 244t250 96q118 0 205 -59.5t123 -159.5zM381 727
q-24 0 -41 17t-17 42q0 24 17 41t41 17t41 -17t17 -41q0 -25 -17 -42t-41 -17z" />
    <glyph glyph-name="gdotaccent" unicode="&#x121;" 
d="M465 36v53h-2q-26 -46 -74.5 -72t-109.5 -26q-103 0 -176.5 68t-73.5 188q0 113 74.5 186.5t191.5 73.5q118 0 191 -72.5t73 -191.5v-203q0 -135 -72 -199.5t-190 -64.5q-94 0 -159.5 41t-90.5 124h97q33 -82 153 -82q168 0 168 177zM465 247q0 76 -47 124t-123 48
t-123 -48t-47 -124q0 -75 47 -121t123 -46t123 46t47 121zM300 577q-24 0 -41 17t-17 42q0 24 17 41t41 17t41 -17t17 -41q0 -25 -17 -42t-41 -17z" />
    <glyph glyph-name="uni0122" unicode="&#x122;" horiz-adv-x="757" 
d="M710 448h-113q-29 59 -85 92t-130 33q-108 0 -176.5 -69.5t-68.5 -176.5t68.5 -176.5t176.5 -69.5q90 0 152.5 44.5t84.5 122.5v2h-277v94h387v-50q-11 -135 -107.5 -221t-239.5 -86q-152 0 -250 96t-98 244t98 244t250 96q118 0 205 -59.5t123 -159.5zM380 -241h-48
l28 69q-36 14 -36 53q0 24 16.5 41t40.5 17t40.5 -17t16.5 -41q0 -17 -9 -32z" />
    <glyph glyph-name="uni0123" unicode="&#x123;" 
d="M301 757h48l-28 -68q36 -14 36 -53q0 -24 -16.5 -41t-40.5 -17t-40.5 17t-16.5 41q0 15 9 32zM465 36v53h-2q-26 -46 -74.5 -72t-109.5 -26q-103 0 -176.5 68t-73.5 188q0 113 74.5 186.5t191.5 73.5q118 0 191 -72.5t73 -191.5v-203q0 -135 -72 -199.5t-190 -64.5
q-94 0 -159.5 41t-90.5 124h97q33 -82 153 -82q168 0 168 177zM465 247q0 76 -47 124t-123 48t-123 -48t-47 -124q0 -75 47 -121t123 -46t123 46t47 121z" />
    <glyph glyph-name="Hcircumflex" unicode="&#x124;" horiz-adv-x="703" 
d="M636 0h-102v285h-365v-285h-102v654h102v-275h365v275h102v-654zM511 716h-82l-77 99h-2l-77 -99h-82l112 154h96z" />
    <glyph glyph-name="hcircumflex" unicode="&#x125;" horiz-adv-x="602" 
d="M309 419q-68 0 -108.5 -42t-40.5 -120v-257h-95v710h95v-293h2q51 90 163 90q99 0 163.5 -63.5t64.5 -186.5v-257h-95v257q0 79 -40 120.5t-109 41.5zM274 766h-82l-77 99h-2l-77 -99h-82l112 154h96z" />
    <glyph glyph-name="Hbar" unicode="&#x126;" horiz-adv-x="703" 
d="M636 0h-102v285h-365v-285h-102v470h-57v80h57v104h102v-104h365v104h102v-104h57v-80h-57v-470zM169 379h365v91h-365v-91z" />
    <glyph glyph-name="hbar" unicode="&#x127;" horiz-adv-x="602" 
d="M309 419q-68 0 -108.5 -42t-40.5 -120v-257h-95v541h-65v77h65v92h95v-92h125v-77h-125v-124h2q51 90 163 90q99 0 163.5 -63.5t64.5 -186.5v-257h-95v257q0 79 -40 120.5t-109 41.5z" />
    <glyph glyph-name="Itilde" unicode="&#x128;" horiz-adv-x="240" 
d="M171 0h-102v654h102v-654zM235 855h65q-16 -136 -110 -136q-39 0 -77.5 30t-57.5 30q-40 0 -50 -61h-65q16 135 110 135q39 0 77.5 -30t57.5 -30q39 0 50 62z" />
    <glyph glyph-name="itilde" unicode="&#x129;" horiz-adv-x="228" 
d="M229 705h65q-16 -136 -110 -136q-39 0 -77.5 30t-57.5 30q-40 0 -50 -61h-65q16 135 110 135q39 0 77.5 -30t57.5 -30q39 0 50 62zM162 0h-95v494h95v-494z" />
    <glyph glyph-name="Imacron" unicode="&#x12a;" horiz-adv-x="240" 
d="M171 0h-102v654h102v-654zM273 736h-306v67h306v-67z" />
    <glyph glyph-name="imacron" unicode="&#x12b;" horiz-adv-x="228" 
d="M233 586h-238v67h238v-67zM162 0h-95v494h95v-494z" />
    <glyph glyph-name="Ibreve" unicode="&#x12c;" horiz-adv-x="240" 
d="M171 0h-102v654h102v-654zM197 864h68q-1 -69 -40.5 -108.5t-104.5 -39.5q-66 0 -105 39.5t-40 108.5h68q7 -79 77 -79t77 79z" />
    <glyph glyph-name="ibreve" unicode="&#x12d;" horiz-adv-x="228" 
d="M191 714h68q-1 -69 -40.5 -108.5t-104.5 -39.5q-66 0 -105 39.5t-40 108.5h68q7 -79 77 -79t77 79zM162 0h-95v494h95v-494z" />
    <glyph glyph-name="Iogonek" unicode="&#x12e;" horiz-adv-x="240" 
d="M171 0h-11q-88 -29 -88 -96q0 -28 17 -42.5t42 -14.5q53 0 92 46v-73q-33 -44 -105 -44q-52 0 -84.5 26.5t-32.5 70.5q0 82 75 125v2h-7v654h102v-654z" />
    <glyph glyph-name="iogonek" unicode="&#x12f;" horiz-adv-x="228" 
d="M162 0h-6q-88 -29 -88 -96q0 -28 17 -42.5t42 -14.5q53 0 92 46v-73q-33 -44 -106 -44q-51 0 -83.5 26.5t-32.5 70.5q0 82 75 125v2h-5v494h95v-494zM114 564q-27 0 -46.5 19.5t-19.5 47.5q0 27 19.5 46.5t46.5 19.5q28 0 47 -19.5t19 -46.5q0 -28 -19 -47.5t-47 -19.5z
" />
    <glyph glyph-name="Idotaccent" unicode="&#x130;" horiz-adv-x="240" 
d="M171 0h-102v654h102v-654zM120 727q-24 0 -41 17t-17 42q0 24 17 41t41 17t41 -17t17 -41q0 -25 -17 -42t-41 -17z" />
    <glyph glyph-name="dotlessi" unicode="&#x131;" horiz-adv-x="228" 
d="M162 0h-95v494h95v-494z" />
    <glyph glyph-name="Jcircumflex" unicode="&#x134;" horiz-adv-x="571" 
d="M417 231v423h102v-423q0 -113 -65.5 -178.5t-183.5 -65.5q-117 0 -181 65.5t-64 178.5v6h99v-6q0 -71 37 -110.5t109 -39.5t109.5 39.5t37.5 110.5zM609 716h-82l-77 99h-2l-77 -99h-82l112 154h96z" />
    <glyph glyph-name="jcircumflex" unicode="&#x135;" horiz-adv-x="228" 
d="M-8 -218h-20v82h11q46 0 65 22t19 75v533h95v-527q0 -94 -40 -139.5t-130 -45.5zM275 566h-82l-77 99h-2l-77 -99h-82l112 154h96z" />
    <glyph glyph-name="uni0136" unicode="&#x136;" horiz-adv-x="595" 
d="M169 0h-102v654h102v-296h2l268 296h129l-303 -322l313 -332h-132l-275 303h-2v-303zM296 -241h-48l28 69q-36 14 -36 53q0 24 16.5 41t40.5 17t40.5 -17t16.5 -41q0 -17 -9 -32z" />
    <glyph glyph-name="uni0137" unicode="&#x137;" horiz-adv-x="537" 
d="M160 0h-95v710h95v-433h2l225 217h125l-258 -241l267 -253h-127l-232 228h-2v-228zM265 -241h-48l28 69q-36 14 -36 53q0 24 16.5 41t40.5 17t40.5 -17t16.5 -41q0 -17 -9 -32z" />
    <glyph glyph-name="kgreenlandic" unicode="&#x138;" horiz-adv-x="537" 
d="M160 228v-228h-95v494h95v-217h2l225 217h125l-258 -241l267 -253h-127l-232 228h-2z" />
    <glyph glyph-name="Lacute" unicode="&#x139;" horiz-adv-x="562" 
d="M536 0h-469v654h102v-560h367v-94zM136 716h-82l105 154h100z" />
    <glyph glyph-name="lacute" unicode="&#x13a;" horiz-adv-x="228" 
d="M162 0h-95v710h95v-710zM130 766h-82l105 154h100z" />
    <glyph glyph-name="uni013B" unicode="&#x13b;" horiz-adv-x="562" 
d="M536 0h-469v654h102v-560h367v-94zM290 -241h-48l28 69q-36 14 -36 53q0 24 16.5 41t40.5 17t40.5 -17t16.5 -41q0 -17 -9 -32z" />
    <glyph glyph-name="uni013C" unicode="&#x13c;" horiz-adv-x="228" 
d="M162 0h-95v710h95v-710zM114 -241h-48l28 69q-36 14 -36 53q0 24 16.5 41t40.5 17t40.5 -17t16.5 -41q0 -17 -9 -32z" />
    <glyph glyph-name="Lcaron" unicode="&#x13d;" horiz-adv-x="562" 
d="M536 0h-469v654h102v-560h367v-94zM317 437h-51l35 114q-18 6 -29 21.5t-11 34.5q0 25 17.5 42.5t43.5 17.5t43.5 -17.5t17.5 -42.5q0 -15 -8 -33z" />
    <glyph glyph-name="lcaron" unicode="&#x13e;" horiz-adv-x="375" 
d="M162 0h-95v710h95v-710zM295 437h-51l35 114q-18 6 -29 21.5t-11 34.5q0 25 17.5 42.5t43.5 17.5t43.5 -17.5t17.5 -42.5q0 -15 -8 -33z" />
    <glyph glyph-name="Ldot" unicode="&#x13f;" horiz-adv-x="562" 
d="M536 0h-469v654h102v-560h367v-94zM399 296q-28 0 -47 19t-19 47t19 47t47 19t47 -19t19 -47t-19 -47t-47 -19z" />
    <glyph glyph-name="ldot" unicode="&#x140;" horiz-adv-x="385" 
d="M162 0h-95v710h95v-710zM306 261q-28 0 -47 19t-19 47t19 47t47 19t47 -19t19 -47t-19 -47t-47 -19z" />
    <glyph glyph-name="Lslash" unicode="&#x141;" horiz-adv-x="562" 
d="M536 0h-469v197h-2l-65 -44v109l67 45v347h102v-278h2l228 153v-108l-230 -155v-172h367v-94z" />
    <glyph glyph-name="lslash" unicode="&#x142;" horiz-adv-x="238" 
d="M167 0h-95v312h-2l-65 -41v104l67 42v293h95v-232h2l84 54v-105l-86 -54v-373z" />
    <glyph glyph-name="Nacute" unicode="&#x143;" horiz-adv-x="657" 
d="M605 0h-102v396q0 84 -45 130.5t-130 46.5q-84 0 -129 -46.5t-45 -130.5v-396h-102v396q0 126 72.5 198.5t203.5 72.5q132 0 204.5 -72.5t72.5 -198.5v-396zM344 716h-82l105 154h100z" />
    <glyph glyph-name="nacute" unicode="&#x144;" horiz-adv-x="586" 
d="M537 0h-95v257q0 79 -40 120.5t-109 41.5t-109 -41.5t-40 -120.5v-257h-95v257q0 121 66 185.5t178 64.5t178 -64t66 -186v-257zM308 566h-82l105 154h100z" />
    <glyph glyph-name="uni0145" unicode="&#x145;" horiz-adv-x="657" 
d="M605 0h-102v396q0 84 -45 130.5t-130 46.5q-84 0 -129 -46.5t-45 -130.5v-396h-102v396q0 126 72.5 198.5t203.5 72.5q132 0 204.5 -72.5t72.5 -198.5v-396zM327 -241h-48l28 69q-36 14 -36 53q0 24 16.5 41t40.5 17t40.5 -17t16.5 -41q0 -17 -9 -32z" />
    <glyph glyph-name="uni0146" unicode="&#x146;" horiz-adv-x="586" 
d="M537 0h-95v257q0 79 -40 120.5t-109 41.5t-109 -41.5t-40 -120.5v-257h-95v257q0 121 66 185.5t178 64.5t178 -64t66 -186v-257zM292 -241h-48l28 69q-36 14 -36 53q0 24 16.5 41t40.5 17t40.5 -17t16.5 -41q0 -17 -9 -32z" />
    <glyph glyph-name="Ncaron" unicode="&#x147;" horiz-adv-x="657" 
d="M605 0h-102v396q0 84 -45 130.5t-130 46.5q-84 0 -129 -46.5t-45 -130.5v-396h-102v396q0 126 72.5 198.5t203.5 72.5q132 0 204.5 -72.5t72.5 -198.5v-396zM376 716h-96l-112 154h82l77 -99h2l77 99h82z" />
    <glyph glyph-name="ncaron" unicode="&#x148;" horiz-adv-x="586" 
d="M537 0h-95v257q0 79 -40 120.5t-109 41.5t-109 -41.5t-40 -120.5v-257h-95v257q0 121 66 185.5t178 64.5t178 -64t66 -186v-257zM341 566h-96l-112 154h82l77 -99h2l77 99h82z" />
    <glyph glyph-name="napostrophe" unicode="&#x149;" horiz-adv-x="711" 
d="M662 0h-95v257q0 79 -40 120.5t-109 41.5t-109 -41.5t-40 -120.5v-257h-95v257q0 121 66 185.5t178 64.5t178 -64t66 -186v-257zM110 379h-56l38 123q-19 7 -31 23.5t-12 37.5q0 28 19 47t47 19t47 -19t19 -47q0 -17 -8 -36z" />
    <glyph glyph-name="Eng" unicode="&#x14a;" horiz-adv-x="657" 
d="M434 -218h-30v94h19q43 0 61.5 21t18.5 71v428q0 84 -45 130.5t-130 46.5q-84 0 -129 -46.5t-45 -130.5v-396h-102v396q0 126 72.5 198.5t203.5 72.5q132 0 204.5 -72.5t72.5 -198.5v-429q0 -93 -40.5 -139t-130.5 -46z" />
    <glyph glyph-name="eng" unicode="&#x14b;" horiz-adv-x="586" 
d="M367 -218h-21v82h13q46 0 64.5 22t18.5 75v296q0 79 -40 120.5t-109 41.5t-109 -41.5t-40 -120.5v-257h-95v257q0 121 66 185.5t178 64.5t178 -64t66 -186v-290q0 -93 -40.5 -139t-129.5 -46z" />
    <glyph glyph-name="Omacron" unicode="&#x14c;" horiz-adv-x="764" 
d="M730 327q0 -148 -98 -244t-250 -96t-250 96t-98 244t98 244t250 96t250 -96t98 -244zM382 81q108 0 176.5 69.5t68.5 176.5t-68.5 176.5t-176.5 69.5t-176.5 -69.5t-68.5 -176.5t68.5 -176.5t176.5 -69.5zM535 736h-306v67h306v-67z" />
    <glyph glyph-name="omacron" unicode="&#x14d;" horiz-adv-x="590" 
d="M561 247q0 -113 -74.5 -186.5t-191.5 -73.5t-191.5 73.5t-74.5 186.5t74.5 186.5t191.5 73.5t191.5 -73.5t74.5 -186.5zM295 75q76 0 123 48t47 124t-47 124t-123 48t-123 -48t-47 -124t47 -124t123 -48zM448 586h-306v67h306v-67z" />
    <glyph glyph-name="Obreve" unicode="&#x14e;" horiz-adv-x="764" 
d="M730 327q0 -148 -98 -244t-250 -96t-250 96t-98 244t98 244t250 96t250 -96t98 -244zM382 81q108 0 176.5 69.5t68.5 176.5t-68.5 176.5t-176.5 69.5t-176.5 -69.5t-68.5 -176.5t68.5 -176.5t176.5 -69.5zM459 864h68q-1 -69 -40.5 -108.5t-104.5 -39.5q-66 0 -105 39.5
t-40 108.5h68q7 -79 77 -79t77 79z" />
    <glyph glyph-name="obreve" unicode="&#x14f;" horiz-adv-x="590" 
d="M561 247q0 -113 -74.5 -186.5t-191.5 -73.5t-191.5 73.5t-74.5 186.5t74.5 186.5t191.5 73.5t191.5 -73.5t74.5 -186.5zM295 75q76 0 123 48t47 124t-47 124t-123 48t-123 -48t-47 -124t47 -124t123 -48zM372 714h68q-1 -69 -40.5 -108.5t-104.5 -39.5q-66 0 -105 39.5
t-40 108.5h68q7 -79 77 -79t77 79z" />
    <glyph glyph-name="Ohungarumlaut" unicode="&#x150;" horiz-adv-x="764" 
d="M730 327q0 -148 -98 -244t-250 -96t-250 96t-98 244t98 244t250 96t250 -96t98 -244zM382 81q108 0 176.5 69.5t68.5 176.5t-68.5 176.5t-176.5 69.5t-176.5 -69.5t-68.5 -176.5t68.5 -176.5t176.5 -69.5zM310 716h-82l105 154h100zM485 716h-82l105 154h100z" />
    <glyph glyph-name="ohungarumlaut" unicode="&#x151;" horiz-adv-x="590" 
d="M561 247q0 -113 -74.5 -186.5t-191.5 -73.5t-191.5 73.5t-74.5 186.5t74.5 186.5t191.5 73.5t191.5 -73.5t74.5 -186.5zM295 75q76 0 123 48t47 124t-47 124t-123 48t-123 -48t-47 -124t47 -124t123 -48zM223 566h-82l105 154h100zM398 566h-82l105 154h100z" />
    <glyph glyph-name="OE" unicode="&#x152;" horiz-adv-x="1151" 
d="M1105 0h-478v130h-2q-30 -63 -96 -103t-158 -40q-88 0 -163.5 38t-124.5 117t-49 185t49 185t124.5 117t163.5 38q91 0 157 -40t97 -102h2v129h478v-94h-376v-180h318v-94h-318v-192h376v-94zM382 81q108 0 176.5 69.5t68.5 176.5t-68.5 176.5t-176.5 69.5t-176.5 -69.5
t-68.5 -176.5t68.5 -176.5t176.5 -69.5z" />
    <glyph glyph-name="oe" unicode="&#x153;" horiz-adv-x="1023" 
d="M289 507q79 0 136 -33.5t87 -92.5h2q30 59 87 92.5t135 33.5q114 0 186 -73.5t72 -186.5v-35h-430v-2q11 -62 55 -98.5t111 -36.5q96 0 138 63h105q-28 -70 -90.5 -110.5t-146.5 -40.5q-78 0 -135 33.5t-87 92.5h-2q-30 -59 -87.5 -92.5t-135.5 -33.5q-114 0 -187 73.5
t-73 186.5t73 186.5t187 73.5zM295 75q76 0 123 48t47 124t-47 124t-123 48t-123 -48t-47 -124t47 -124t123 -48zM730 419q-62 0 -105.5 -32.5t-57.5 -87.5v-2h327v2q-14 55 -58 87.5t-106 32.5z" />
    <glyph glyph-name="Racute" unicode="&#x154;" horiz-adv-x="627" 
d="M603 0h-122l-156 234h-156v-234h-102v654h281q116 0 173.5 -57t57.5 -153q0 -76 -37 -129t-111 -72v-2zM169 328h180q127 0 127 116t-127 116h-180v-232zM320 716h-82l105 154h100z" />
    <glyph glyph-name="racute" unicode="&#x155;" horiz-adv-x="490" 
d="M474 285h-94v6q0 128 -118 128t-118 -128v-291h-95v291q0 106 57.5 161t155.5 55t155 -55t57 -162v-5zM276 566h-82l105 154h100z" />
    <glyph glyph-name="uni0156" unicode="&#x156;" horiz-adv-x="627" 
d="M603 0h-122l-156 234h-156v-234h-102v654h281q116 0 173.5 -57t57.5 -153q0 -76 -37 -129t-111 -72v-2zM169 328h180q127 0 127 116t-127 116h-180v-232zM316 -241h-48l28 69q-36 14 -36 53q0 24 16.5 41t40.5 17t40.5 -17t16.5 -41q0 -17 -9 -32z" />
    <glyph glyph-name="uni0157" unicode="&#x157;" horiz-adv-x="490" 
d="M474 285h-94v6q0 128 -118 128t-118 -128v-291h-95v291q0 106 57.5 161t155.5 55t155 -55t57 -162v-5zM97 -241h-48l28 69q-36 14 -36 53q0 24 16.5 41t40.5 17t40.5 -17t16.5 -41q0 -17 -9 -32z" />
    <glyph glyph-name="Rcaron" unicode="&#x158;" horiz-adv-x="627" 
d="M603 0h-122l-156 234h-156v-234h-102v654h281q116 0 173.5 -57t57.5 -153q0 -76 -37 -129t-111 -72v-2zM169 328h180q127 0 127 116t-127 116h-180v-232zM352 716h-96l-112 154h82l77 -99h2l77 99h82z" />
    <glyph glyph-name="rcaron" unicode="&#x159;" horiz-adv-x="490" 
d="M474 285h-94v6q0 128 -118 128t-118 -128v-291h-95v291q0 106 57.5 161t155.5 55t155 -55t57 -162v-5zM308 566h-96l-112 154h82l77 -99h2l77 99h82z" />
    <glyph glyph-name="Sacute" unicode="&#x15a;" horiz-adv-x="551" 
d="M503 471h-97q-2 45 -36 73t-93 28q-62 0 -96.5 -29t-34.5 -75q0 -36 27.5 -57t68.5 -27t89 -16.5t89 -25t68.5 -53.5t27.5 -100q0 -93 -66 -148t-176 -55q-108 0 -173.5 54t-67.5 146h101q2 -49 38 -77.5t102 -28.5q67 0 104.5 28.5t37.5 77.5q0 43 -38 63.5t-92 28.5
t-108 20.5t-92 53.5t-38 113q0 90 62.5 145.5t164.5 55.5q100 0 162.5 -53.5t65.5 -141.5zM294 716h-82l105 154h100z" />
    <glyph glyph-name="sacute" unicode="&#x15b;" horiz-adv-x="472" 
d="M428 355h-94q-2 29 -28 47.5t-69 18.5q-47 0 -73.5 -19.5t-26.5 -52.5q0 -24 22.5 -36.5t56.5 -15.5t73 -10.5t73 -18.5t56.5 -42t22.5 -80q0 -70 -56.5 -114.5t-148.5 -44.5q-91 0 -147 43.5t-58 112.5h96q2 -32 30 -51t78 -19q53 0 81.5 20t28.5 53q0 24 -22.5 37
t-56.5 16t-73 10.5t-73 18.5t-56.5 42t-22.5 79q0 69 53.5 113.5t140.5 44.5q86 0 138.5 -43t54.5 -109zM252 566h-82l105 154h100z" />
    <glyph glyph-name="Scircumflex" unicode="&#x15c;" horiz-adv-x="551" 
d="M503 471h-97q-2 45 -36 73t-93 28q-62 0 -96.5 -29t-34.5 -75q0 -36 27.5 -57t68.5 -27t89 -16.5t89 -25t68.5 -53.5t27.5 -100q0 -93 -66 -148t-176 -55q-108 0 -173.5 54t-67.5 146h101q2 -49 38 -77.5t102 -28.5q67 0 104.5 28.5t37.5 77.5q0 43 -38 63.5t-92 28.5
t-108 20.5t-92 53.5t-38 113q0 90 62.5 145.5t164.5 55.5q100 0 162.5 -53.5t65.5 -141.5zM438 716h-82l-77 99h-2l-77 -99h-82l112 154h96z" />
    <glyph glyph-name="scircumflex" unicode="&#x15d;" horiz-adv-x="472" 
d="M428 355h-94q-2 29 -28 47.5t-69 18.5q-47 0 -73.5 -19.5t-26.5 -52.5q0 -24 22.5 -36.5t56.5 -15.5t73 -10.5t73 -18.5t56.5 -42t22.5 -80q0 -70 -56.5 -114.5t-148.5 -44.5q-91 0 -147 43.5t-58 112.5h96q2 -32 30 -51t78 -19q53 0 81.5 20t28.5 53q0 24 -22.5 37
t-56.5 16t-73 10.5t-73 18.5t-56.5 42t-22.5 79q0 69 53.5 113.5t140.5 44.5q86 0 138.5 -43t54.5 -109zM397 566h-82l-77 99h-2l-77 -99h-82l112 154h96z" />
    <glyph glyph-name="Scedilla" unicode="&#x15e;" horiz-adv-x="551" 
d="M248 -114l-43 27l30 73v2q-92 9 -146.5 61.5t-55.5 136.5h101q2 -49 38 -77.5t102 -28.5q67 0 104.5 28.5t37.5 77.5q0 43 -38 63.5t-92 28.5t-108 20.5t-92 53.5t-38 113q0 90 62.5 145.5t164.5 55.5q100 0 162.5 -53.5t65.5 -141.5h-97q-2 45 -36 73t-93 28
q-62 0 -96.5 -29t-34.5 -75q0 -36 27.5 -57t68.5 -27t89 -16.5t89 -25t68.5 -53.5t27.5 -100q0 -89 -60.5 -143t-163.5 -59l-19 -46v-1q9 3 22 3q37 0 59.5 -22t22.5 -58q0 -41 -29 -64t-79 -23q-48 0 -76.5 21t-30.5 59h66q3 -28 41 -28q41 0 41 34q0 14 -9.5 22.5
t-24.5 8.5t-28 -7z" />
    <glyph glyph-name="scedilla" unicode="&#x15f;" horiz-adv-x="472" 
d="M209 -114l-43 27l30 75v2q-75 8 -119 50t-46 103h96q2 -32 30 -51t78 -19q53 0 81.5 20t28.5 53q0 24 -22.5 37t-56.5 16t-73 10.5t-73 18.5t-56.5 42t-22.5 79q0 69 53.5 113.5t140.5 44.5q86 0 138.5 -43t54.5 -109h-94q-2 29 -28 47.5t-69 18.5q-47 0 -73.5 -19.5
t-26.5 -52.5q0 -24 22.5 -36.5t56.5 -15.5t73 -10.5t73 -18.5t56.5 -42t22.5 -80q0 -66 -51.5 -110t-136.5 -48l-19 -47v-1q9 3 22 3q37 0 59.5 -22t22.5 -58q0 -41 -29 -64t-79 -23q-48 0 -76.5 21t-30.5 59h66q3 -28 41 -28q41 0 41 34q0 14 -9.5 22.5t-24.5 8.5t-28 -7z
" />
    <glyph glyph-name="Scaron" unicode="&#x160;" horiz-adv-x="551" 
d="M503 471h-97q-2 45 -36 73t-93 28q-62 0 -96.5 -29t-34.5 -75q0 -36 27.5 -57t68.5 -27t89 -16.5t89 -25t68.5 -53.5t27.5 -100q0 -93 -66 -148t-176 -55q-108 0 -173.5 54t-67.5 146h101q2 -49 38 -77.5t102 -28.5q67 0 104.5 28.5t37.5 77.5q0 43 -38 63.5t-92 28.5
t-108 20.5t-92 53.5t-38 113q0 90 62.5 145.5t164.5 55.5q100 0 162.5 -53.5t65.5 -141.5zM326 716h-96l-112 154h82l77 -99h2l77 99h82z" />
    <glyph glyph-name="scaron" unicode="&#x161;" horiz-adv-x="472" 
d="M428 355h-94q-2 29 -28 47.5t-69 18.5q-47 0 -73.5 -19.5t-26.5 -52.5q0 -24 22.5 -36.5t56.5 -15.5t73 -10.5t73 -18.5t56.5 -42t22.5 -80q0 -70 -56.5 -114.5t-148.5 -44.5q-91 0 -147 43.5t-58 112.5h96q2 -32 30 -51t78 -19q53 0 81.5 20t28.5 53q0 24 -22.5 37
t-56.5 16t-73 10.5t-73 18.5t-56.5 42t-22.5 79q0 69 53.5 113.5t140.5 44.5q86 0 138.5 -43t54.5 -109zM285 566h-96l-112 154h82l77 -99h2l77 99h82z" />
    <glyph glyph-name="uni0162" unicode="&#x162;" horiz-adv-x="571" 
d="M260 -114l-43 27l35 85v2h-18v560h-207v94h517v-94h-208v-560h-26l-25 -59v-1q9 3 22 3q37 0 59.5 -22t22.5 -58q0 -41 -29 -64t-79 -23q-48 0 -76.5 21t-30.5 59h66q3 -28 41 -28q41 0 41 34q0 14 -9.5 22.5t-24.5 8.5t-28 -7z" />
    <glyph glyph-name="uni0163" unicode="&#x163;" horiz-adv-x="475" 
d="M208 -114l-43 27l31 77v2q-69 12 -108 61.5t-39 133.5v476h95v-169h272v-87h-272v-220q0 -57 27.5 -84.5t75.5 -27.5q104 0 104 112v11h94v-11q0 -96 -52 -147t-141 -53l-19 -46v-1q9 3 22 3q37 0 59.5 -22t22.5 -58q0 -41 -29 -64t-79 -23q-48 0 -76.5 21t-30.5 59h66
q3 -28 41 -28q41 0 41 34q0 14 -9.5 22.5t-24.5 8.5t-28 -7z" />
    <glyph glyph-name="Tcaron" unicode="&#x164;" horiz-adv-x="571" 
d="M336 0h-102v560h-207v94h517v-94h-208v-560zM334 716h-96l-112 154h82l77 -99h2l77 99h82z" />
    <glyph glyph-name="tcaron" unicode="&#x165;" horiz-adv-x="475" 
d="M445 198v-11q0 -98 -53.5 -149t-144.5 -51t-144.5 51t-53.5 149v476h95v-169h272v-87h-272v-220q0 -57 27.5 -84.5t75.5 -27.5q104 0 104 112v11h94zM383 543h-51l35 114q-18 6 -29 21.5t-11 34.5q0 25 17.5 42.5t43.5 17.5t43.5 -17.5t17.5 -42.5q0 -15 -8 -33z" />
    <glyph glyph-name="Tbar" unicode="&#x166;" horiz-adv-x="571" 
d="M336 0h-102v286h-130v94h130v180h-207v94h517v-94h-208v-180h130v-94h-130v-286z" />
    <glyph glyph-name="tbar" unicode="&#x167;" horiz-adv-x="475" 
d="M445 198v-11q0 -98 -53.5 -149t-144.5 -51t-144.5 51t-53.5 149v73h-39v75h39v328h95v-169h272v-87h-272v-72h176v-75h-176v-73q0 -57 27.5 -84.5t75.5 -27.5q104 0 104 112v11h94z" />
    <glyph glyph-name="Utilde" unicode="&#x168;" horiz-adv-x="652" 
d="M502 258v396h99v-396q0 -126 -71.5 -198.5t-201.5 -72.5q-131 0 -203.5 72.5t-72.5 198.5v396h102v-396q0 -84 44.5 -130.5t129.5 -46.5t129.5 46.5t44.5 130.5zM441 855h65q-16 -136 -110 -136q-39 0 -77.5 30t-57.5 30q-40 0 -50 -61h-65q16 135 110 135q39 0 77.5 -30
t57.5 -30q39 0 50 62z" />
    <glyph glyph-name="utilde" unicode="&#x169;" horiz-adv-x="586" 
d="M442 236v258h95v-258q0 -120 -66 -184.5t-178 -64.5t-178 64t-66 185v258h95v-258q0 -79 40 -120t109 -41t109 41t40 120zM408 705h65q-16 -136 -110 -136q-39 0 -77.5 30t-57.5 30q-40 0 -50 -61h-65q17 135 110 135q39 0 77.5 -30t57.5 -30q39 0 50 62z" />
    <glyph glyph-name="Umacron" unicode="&#x16a;" horiz-adv-x="652" 
d="M502 258v396h99v-396q0 -126 -71.5 -198.5t-201.5 -72.5q-131 0 -203.5 72.5t-72.5 198.5v396h102v-396q0 -84 44.5 -130.5t129.5 -46.5t129.5 46.5t44.5 130.5zM479 736h-306v67h306v-67z" />
    <glyph glyph-name="umacron" unicode="&#x16b;" horiz-adv-x="586" 
d="M442 236v258h95v-258q0 -120 -66 -184.5t-178 -64.5t-178 64t-66 185v258h95v-258q0 -79 40 -120t109 -41t109 41t40 120zM446 586h-306v67h306v-67z" />
    <glyph glyph-name="Ubreve" unicode="&#x16c;" horiz-adv-x="652" 
d="M502 258v396h99v-396q0 -126 -71.5 -198.5t-201.5 -72.5q-131 0 -203.5 72.5t-72.5 198.5v396h102v-396q0 -84 44.5 -130.5t129.5 -46.5t129.5 46.5t44.5 130.5zM403 864h68q-1 -69 -40.5 -108.5t-104.5 -39.5q-66 0 -105 39.5t-40 108.5h68q7 -79 77 -79t77 79z" />
    <glyph glyph-name="ubreve" unicode="&#x16d;" horiz-adv-x="586" 
d="M442 236v258h95v-258q0 -120 -66 -184.5t-178 -64.5t-178 64t-66 185v258h95v-258q0 -79 40 -120t109 -41t109 41t40 120zM370 714h68q-1 -69 -40.5 -108.5t-104.5 -39.5q-66 0 -105 39.5t-40 108.5h68q7 -79 77 -79t77 79z" />
    <glyph glyph-name="Uring" unicode="&#x16e;" horiz-adv-x="652" 
d="M502 258v396h99v-396q0 -126 -71.5 -198.5t-201.5 -72.5q-131 0 -203.5 72.5t-72.5 198.5v396h102v-396q0 -84 44.5 -130.5t129.5 -46.5t129.5 46.5t44.5 130.5zM367 800q0 17 -12 29.5t-29 12.5t-29 -12.5t-12 -29.5t12 -29.5t29 -12.5t29 12.5t12 29.5zM326 700
q-43 0 -71.5 28.5t-28.5 71.5t28.5 71.5t71.5 28.5t71.5 -28.5t28.5 -71.5t-28.5 -71.5t-71.5 -28.5z" />
    <glyph glyph-name="uring" unicode="&#x16f;" horiz-adv-x="586" 
d="M442 236v258h95v-258q0 -120 -66 -184.5t-178 -64.5t-178 64t-66 185v258h95v-258q0 -79 40 -120t109 -41t109 41t40 120zM334 650q0 17 -12 29.5t-29 12.5t-29 -12.5t-12 -29.5t12 -29.5t29 -12.5t29 12.5t12 29.5zM293 550q-43 0 -71.5 28.5t-28.5 71.5t28.5 71.5
t71.5 28.5t71.5 -28.5t28.5 -71.5t-28.5 -71.5t-71.5 -28.5z" />
    <glyph glyph-name="Uhungarumlaut" unicode="&#x170;" horiz-adv-x="652" 
d="M502 258v396h99v-396q0 -126 -71.5 -198.5t-201.5 -72.5q-131 0 -203.5 72.5t-72.5 198.5v396h102v-396q0 -84 44.5 -130.5t129.5 -46.5t129.5 46.5t44.5 130.5zM254 716h-82l105 154h100zM429 716h-82l105 154h100z" />
    <glyph glyph-name="uhungarumlaut" unicode="&#x171;" horiz-adv-x="586" 
d="M442 236v258h95v-258q0 -120 -66 -184.5t-178 -64.5t-178 64t-66 185v258h95v-258q0 -79 40 -120t109 -41t109 41t40 120zM221 566h-82l105 154h100zM396 566h-82l105 154h100z" />
    <glyph glyph-name="Uogonek" unicode="&#x172;" horiz-adv-x="652" 
d="M380 -11v2q-34 -4 -52 -4q-131 0 -203.5 72.5t-72.5 198.5v396h102v-396q0 -84 44.5 -130.5t129.5 -46.5t129.5 46.5t44.5 130.5v396h99v-396q0 -177 -134 -242q-77 -42 -77 -112q0 -28 17 -42.5t42 -14.5q53 0 92 46v-73q-33 -44 -105 -44q-52 0 -84 26.5t-32 70.5
q0 68 60 116z" />
    <glyph glyph-name="uogonek" unicode="&#x173;" horiz-adv-x="586" 
d="M334 -12v2q-20 -3 -41 -3q-112 0 -178 64t-66 185v258h95v-258q0 -79 40 -120t109 -41t109 41t40 120v258h95v-258q0 -164 -121 -224q-71 -39 -71 -108q0 -28 17 -42.5t42 -14.5q53 0 92 46v-73q-33 -44 -106 -44q-51 0 -83.5 26.5t-32.5 70.5q0 67 60 115z" />
    <glyph glyph-name="Wcircumflex" unicode="&#x174;" horiz-adv-x="930" 
d="M776 227v427h102v-427q0 -117 -62.5 -178.5t-161.5 -61.5q-134 0 -188 108h-2q-25 -52 -74 -80t-114 -28q-100 0 -162 61.5t-62 178.5v427h102v-427q0 -72 35.5 -109t94.5 -37q58 0 94 37.5t36 108.5v427h102v-427q0 -71 35.5 -108.5t94.5 -37.5q58 0 94 37t36 109z
M625 716h-82l-77 99h-2l-77 -99h-82l112 154h96z" />
    <glyph glyph-name="wcircumflex" unicode="&#x175;" horiz-adv-x="854" 
d="M379 494h95v-286q0 -65 32.5 -99t85.5 -34q54 0 86 33.5t32 99.5v286h95v-286q0 -109 -56.5 -165t-147.5 -56q-120 0 -173 96h-2q-53 -96 -173 -96q-91 0 -147.5 56t-56.5 165v286h95v-286q0 -66 32 -99.5t86 -33.5q53 0 85 34t32 99v286zM587 566h-82l-77 99h-2l-77 -99
h-82l112 154h96z" />
    <glyph glyph-name="Ycircumflex" unicode="&#x176;" horiz-adv-x="650" 
d="M377 0h-102v280l-259 374h122l187 -284h2l188 284h119l-257 -371v-283zM485 716h-82l-77 99h-2l-77 -99h-82l112 154h96z" />
    <glyph glyph-name="ycircumflex" unicode="&#x177;" horiz-adv-x="602" 
d="M293 80q68 0 108.5 42t40.5 119v253h95v-477q0 -122 -68 -181.5t-178 -59.5q-89 0 -153 42t-85 123h95q34 -82 143 -82q151 0 151 156v67h-2q-49 -91 -163 -91q-99 0 -163.5 63.5t-64.5 186.5v253h95v-253q0 -79 40 -120t109 -41zM461 566h-82l-77 99h-2l-77 -99h-82
l112 154h96z" />
    <glyph glyph-name="Ydieresis" unicode="&#x178;" horiz-adv-x="650" 
d="M377 0h-102v280l-259 374h122l187 -284h2l188 284h119l-257 -371v-283zM421 727q-24 0 -41 17t-17 42q0 24 17 41t41 17t41 -17t17 -41q0 -25 -17 -42t-41 -17zM228 727q-25 0 -42 17t-17 42q0 24 17 41t42 17q24 0 41 -17t17 -41q0 -25 -17 -42t-41 -17z" />
    <glyph glyph-name="Zacute" unicode="&#x179;" horiz-adv-x="603" 
d="M545 564l-376 -468v-2h386v-94h-512v90l376 468v2h-361v94h487v-90zM317 716h-82l105 154h100z" />
    <glyph glyph-name="zacute" unicode="&#x17a;" horiz-adv-x="534" 
d="M492 0h-455v78l316 329v2h-301v85h430v-78l-316 -329v-2h326v-85zM282 566h-82l105 154h100z" />
    <glyph glyph-name="Zdotaccent" unicode="&#x17b;" horiz-adv-x="603" 
d="M545 564l-376 -468v-2h386v-94h-512v90l376 468v2h-361v94h487v-90zM301 727q-24 0 -41 17t-17 42q0 24 17 41t41 17t41 -17t17 -41q0 -25 -17 -42t-41 -17z" />
    <glyph glyph-name="zdotaccent" unicode="&#x17c;" horiz-adv-x="534" 
d="M492 0h-455v78l316 329v2h-301v85h430v-78l-316 -329v-2h326v-85zM267 577q-24 0 -41 17t-17 42q0 24 17 41t41 17t41 -17t17 -41q0 -25 -17 -42t-41 -17z" />
    <glyph glyph-name="Zcaron" unicode="&#x17d;" horiz-adv-x="603" 
d="M545 564l-376 -468v-2h386v-94h-512v90l376 468v2h-361v94h487v-90zM349 716h-96l-112 154h82l77 -99h2l77 99h82z" />
    <glyph glyph-name="zcaron" unicode="&#x17e;" horiz-adv-x="534" 
d="M492 0h-455v78l316 329v2h-301v85h430v-78l-316 -329v-2h326v-85zM315 566h-96l-112 154h82l77 -99h2l77 99h82z" />
    <glyph glyph-name="florin" unicode="&#x192;" horiz-adv-x="522" 
d="M96 -109h-40v83h37q45 0 66 23.5t26 73.5l22 260h-117v85h124l8 81q9 93 52 139.5t132 46.5h60v-82h-57q-45 0 -66 -24t-26 -74l-8 -87h138v-85h-145l-22 -254q-8 -92 -51.5 -139t-132.5 -47z" />
    <glyph glyph-name="AEacute" unicode="&#x1fc;" horiz-adv-x="1008" 
d="M962 0h-478v207h-334v-207h-99v372q0 131 73.5 206.5t209.5 75.5h628v-94h-376v-180h318v-94h-318v-192h376v-94zM484 301v259h-150q-90 0 -137 -49t-47 -139v-71h334zM520 716h-82l105 154h100z" />
    <glyph glyph-name="aeacute" unicode="&#x1fd;" horiz-adv-x="1023" 
d="M295 75q76 0 123 48t47 124t-47 124t-123 48t-123 -48t-47 -124t47 -124t123 -48zM730 419q-62 0 -105.5 -32.5t-57.5 -87.5v-2h327v2q-14 55 -58 87.5t-106 32.5zM868 138h105q-28 -69 -89 -110t-139 -41q-65 0 -114.5 29.5t-73.5 79.5h-1v-96h-87v96h-2
q-24 -50 -73.5 -79.5t-114.5 -29.5q-102 0 -176 70t-74 190q0 113 73 186.5t187 73.5q79 0 136 -33.5t87 -92.5h2q30 59 87 92.5t135 33.5q114 0 186 -73.5t72 -186.5v-35h-430v-2q11 -62 55 -98.5t111 -36.5q96 0 138 63zM528 566h-82l105 154h100z" />
    <glyph glyph-name="Oslashacute" unicode="&#x1fe;" horiz-adv-x="764" 
d="M397 716h-82l105 154h100zM160 0h-126l84 97q-84 94 -84 230q0 148 98 244t250 96q106 0 190 -50l32 37h126l-85 -97q85 -96 85 -230q0 -148 -98 -244t-250 -96q-107 0 -190 50zM137 327q0 -88 47 -152h2l320 366v2q-57 30 -124 30q-108 0 -176.5 -69.5t-68.5 -176.5z
M382 81q108 0 176.5 69.5t68.5 176.5q0 89 -48 152h-2l-319 -366v-2q53 -30 124 -30z" />
    <glyph glyph-name="oslashacute" unicode="&#x1ff;" horiz-adv-x="590" 
d="M310 566h-82l105 154h100zM139 0h-110l62 73q-62 72 -62 174q0 113 74.5 186.5t191.5 73.5q73 0 138 -34l18 21h110l-63 -74q63 -71 63 -173q0 -113 -74.5 -186.5t-191.5 -73.5q-75 0 -138 34zM295 75q76 0 123 48t47 124q0 59 -28 100h-2l-217 -255v-2q37 -15 77 -15z
M125 247q0 -59 27 -100h2l217 254v2q-32 16 -76 16q-76 0 -123 -48t-47 -124z" />
    <glyph glyph-name="uni0218" unicode="&#x218;" horiz-adv-x="551" 
d="M503 471h-97q-2 45 -36 73t-93 28q-62 0 -96.5 -29t-34.5 -75q0 -36 27.5 -57t68.5 -27t89 -16.5t89 -25t68.5 -53.5t27.5 -100q0 -93 -66 -148t-176 -55q-108 0 -173.5 54t-67.5 146h101q2 -49 38 -77.5t102 -28.5q67 0 104.5 28.5t37.5 77.5q0 43 -38 63.5t-92 28.5
t-108 20.5t-92 53.5t-38 113q0 90 62.5 145.5t164.5 55.5q100 0 162.5 -53.5t65.5 -141.5zM273 -241h-48l28 69q-36 14 -36 53q0 24 16.5 41t40.5 17t40.5 -17t16.5 -41q0 -17 -9 -32z" />
    <glyph glyph-name="uni0219" unicode="&#x219;" horiz-adv-x="472" 
d="M428 355h-94q-2 29 -28 47.5t-69 18.5q-47 0 -73.5 -19.5t-26.5 -52.5q0 -24 22.5 -36.5t56.5 -15.5t73 -10.5t73 -18.5t56.5 -42t22.5 -80q0 -70 -56.5 -114.5t-148.5 -44.5q-91 0 -147 43.5t-58 112.5h96q2 -32 30 -51t78 -19q53 0 81.5 20t28.5 53q0 24 -22.5 37
t-56.5 16t-73 10.5t-73 18.5t-56.5 42t-22.5 79q0 69 53.5 113.5t140.5 44.5q86 0 138.5 -43t54.5 -109zM232 -241h-48l28 69q-36 14 -36 53q0 24 16.5 41t40.5 17t40.5 -17t16.5 -41q0 -17 -9 -32z" />
    <glyph glyph-name="uni021A" unicode="&#x21a;" horiz-adv-x="571" 
d="M336 0h-102v560h-207v94h517v-94h-208v-560zM285 -241h-48l28 69q-36 14 -36 53q0 24 16.5 41t40.5 17t40.5 -17t16.5 -41q0 -17 -9 -32z" />
    <glyph glyph-name="uni021B" unicode="&#x21b;" horiz-adv-x="475" 
d="M445 198v-11q0 -98 -53.5 -149t-144.5 -51t-144.5 51t-53.5 149v476h95v-169h272v-87h-272v-220q0 -57 27.5 -84.5t75.5 -27.5q104 0 104 112v11h94zM229 -241h-48l28 69q-36 14 -36 53q0 24 16.5 41t40.5 17t40.5 -17t16.5 -41q0 -17 -9 -32z" />
    <glyph glyph-name="uni0237" unicode="&#x237;" horiz-adv-x="228" 
d="M-8 -218h-20v82h11q46 0 65 22t19 75v533h95v-527q0 -94 -40 -139.5t-130 -45.5z" />
    <glyph glyph-name="circumflex" unicode="&#x2c6;" horiz-adv-x="320" 
d="M320 566h-82l-77 99h-2l-77 -99h-82l112 154h96z" />
    <glyph glyph-name="caron" unicode="&#x2c7;" horiz-adv-x="320" 
d="M208 566h-96l-112 154h82l77 -99h2l77 99h82z" />
    <glyph glyph-name="breve" unicode="&#x2d8;" horiz-adv-x="320" 
d="M237 714h68q-1 -69 -40.5 -108.5t-104.5 -39.5q-66 0 -105 39.5t-40 108.5h68q7 -79 77 -79t77 79z" />
    <glyph glyph-name="dotaccent" unicode="&#x2d9;" horiz-adv-x="320" 
d="M160 577q-24 0 -41 17t-17 42q0 24 17 41t41 17t41 -17t17 -41q0 -25 -17 -42t-41 -17z" />
    <glyph glyph-name="ring" unicode="&#x2da;" horiz-adv-x="320" 
d="M201 650q0 17 -12 29.5t-29 12.5t-29 -12.5t-12 -29.5t12 -29.5t29 -12.5t29 12.5t12 29.5zM160 550q-43 0 -71.5 28.5t-28.5 71.5t28.5 71.5t71.5 28.5t71.5 -28.5t28.5 -71.5t-28.5 -71.5t-71.5 -28.5z" />
    <glyph glyph-name="ogonek" unicode="&#x2db;" horiz-adv-x="320" 
d="M272 -107v-73q-33 -44 -105 -44q-51 0 -83.5 26.5t-32.5 70.5q0 113 147 147l34 -20q-53 -10 -82 -36t-29 -60q0 -28 17 -42.5t42 -14.5q54 0 92 46z" />
    <glyph glyph-name="tilde" unicode="&#x2dc;" horiz-adv-x="320" 
d="M275 705h65q-16 -136 -110 -136q-39 0 -77.5 30t-57.5 30q-40 0 -50 -61h-65q17 135 110 135q39 0 77.5 -30t57.5 -30q39 0 50 62z" />
    <glyph glyph-name="hungarumlaut" unicode="&#x2dd;" horiz-adv-x="320" 
d="M52 566h-82l105 154h100zM227 566h-82l105 154h100z" />
    <glyph glyph-name="pi" unicode="&#x3c0;" horiz-adv-x="621" 
d="M555 0h-95v407h-299v-407h-95v494h489v-494z" />
    <glyph glyph-name="uni1E02" unicode="&#x1e02;" horiz-adv-x="624" 
d="M408 0h-341v654h315q89 0 137.5 -46t48.5 -122q0 -105 -90 -146v-2q56 -17 88 -60t32 -103q0 -78 -50 -126.5t-140 -48.5zM393 286h-224v-192h222q52 0 77 26t25 70q0 42 -27 69t-73 27zM369 560h-200v-180h202q45 0 70.5 25t25.5 65q0 41 -24 65.5t-74 24.5zM313 727
q-24 0 -41 17t-17 42q0 24 17 41t41 17t41 -17t17 -41q0 -25 -17 -42t-41 -17z" />
    <glyph glyph-name="uni1E03" unicode="&#x1e03;" 
d="M313 75q76 0 123 48t47 124t-47 124t-123 48q-75 0 -122 -48.5t-47 -123.5t47 -123.5t122 -48.5zM49 251v459h95v-300h2q26 45 74 71t110 26q102 0 175.5 -70t73.5 -190q0 -113 -74.5 -186.5t-191.5 -73.5q-118 0 -191 72.5t-73 191.5zM333 577q-24 0 -41 17t-17 42
q0 24 17 41t41 17t41 -17t17 -41q0 -25 -17 -42t-41 -17z" />
    <glyph glyph-name="uni1E0A" unicode="&#x1e0a;" horiz-adv-x="682" 
d="M300 0h-233v654h233q168 0 258 -88.5t90 -238.5t-90 -238.5t-258 -88.5zM169 94h131q122 0 183.5 62t61.5 171t-61.5 171t-183.5 62h-131v-466zM314 727q-24 0 -41 17t-17 42q0 24 17 41t41 17t41 -17t17 -41q0 -25 -17 -42t-41 -17z" />
    <glyph glyph-name="uni1E0B" unicode="&#x1e0b;" 
d="M295 75q75 0 122 48.5t47 123.5t-47 123.5t-122 48.5q-76 0 -123 -48t-47 -124t47 -124t123 -48zM559 710v-459q0 -119 -73 -191.5t-191 -72.5q-117 0 -191.5 73.5t-74.5 186.5q0 120 73.5 190t175.5 70q62 0 110 -26t74 -71h2v300h95zM275 577q-24 0 -41 17t-17 42
q0 24 17 41t41 17t41 -17t17 -41q0 -25 -17 -42t-41 -17z" />
    <glyph glyph-name="uni1E1E" unicode="&#x1e1e;" horiz-adv-x="569" 
d="M169 0h-102v654h473v-94h-371v-180h313v-94h-313v-286zM309 727q-24 0 -41 17t-17 42q0 24 17 41t41 17t41 -17t17 -41q0 -25 -17 -42t-41 -17z" />
    <glyph glyph-name="uni1E1F" unicode="&#x1e1f;" horiz-adv-x="487" 
d="M160 0h-95v509q0 105 57.5 159.5t155.5 54.5q97 0 154.5 -55t57.5 -159v-1h-94v1q0 64 -31.5 95t-86.5 31t-86.5 -31.5t-31.5 -94.5v-83h271v-87h-271v-339zM272 770q-24 0 -41 17t-17 42q0 24 17 41t41 17t41 -17t17 -41q0 -25 -17 -42t-41 -17z" />
    <glyph glyph-name="uni1E40" unicode="&#x1e40;" horiz-adv-x="930" 
d="M154 427v-427h-102v427q0 117 62.5 178.5t161.5 61.5q134 0 188 -108h2q25 52 74 80t114 28q100 0 162 -61.5t62 -178.5v-427h-102v427q0 72 -35.5 109t-94.5 37q-58 0 -94 -37.5t-36 -108.5v-427h-102v427q0 71 -35.5 108.5t-94.5 37.5q-58 0 -94 -37t-36 -109zM465 727
q-24 0 -41 17t-17 42q0 24 17 41t41 17t41 -17t17 -41q0 -25 -17 -42t-41 -17z" />
    <glyph glyph-name="uni1E41" unicode="&#x1e41;" horiz-adv-x="854" 
d="M475 0h-95v286q0 65 -32.5 99t-85.5 34q-54 0 -86 -33.5t-32 -99.5v-286h-95v286q0 109 56.5 165t147.5 56q120 0 173 -96h2q53 96 173 96q91 0 147.5 -56t56.5 -165v-286h-95v286q0 66 -32 99.5t-86 33.5q-53 0 -85 -34t-32 -99v-286zM427 577q-24 0 -41 17t-17 42
q0 24 17 41t41 17t41 -17t17 -41q0 -25 -17 -42t-41 -17z" />
    <glyph glyph-name="uni1E56" unicode="&#x1e56;" horiz-adv-x="600" 
d="M169 0h-102v654h274q119 0 178.5 -58.5t59.5 -156.5t-59.5 -157t-178.5 -59h-172v-223zM169 317h174q133 0 133 122q0 121 -133 121h-174v-243zM306 727q-24 0 -41 17t-17 42q0 24 17 41t41 17t41 -17t17 -41q0 -25 -17 -42t-41 -17z" />
    <glyph glyph-name="uni1E57" unicode="&#x1e57;" 
d="M313 419q-75 0 -122 -48.5t-47 -123.5t47 -123.5t122 -48.5q76 0 123 48t47 124t-47 124t-123 48zM49 -211v454q0 119 73 191.5t191 72.5q117 0 191.5 -73.5t74.5 -186.5q0 -120 -73.5 -190t-175.5 -70q-62 0 -110 26t-74 71h-2v-295h-95zM312 577q-24 0 -41 17t-17 42
q0 24 17 41t41 17t41 -17t17 -41q0 -25 -17 -42t-41 -17z" />
    <glyph glyph-name="uni1E60" unicode="&#x1e60;" horiz-adv-x="551" 
d="M503 471h-97q-2 45 -36 73t-93 28q-62 0 -96.5 -29t-34.5 -75q0 -36 27.5 -57t68.5 -27t89 -16.5t89 -25t68.5 -53.5t27.5 -100q0 -93 -66 -148t-176 -55q-108 0 -173.5 54t-67.5 146h101q2 -49 38 -77.5t102 -28.5q67 0 104.5 28.5t37.5 77.5q0 43 -38 63.5t-92 28.5
t-108 20.5t-92 53.5t-38 113q0 90 62.5 145.5t164.5 55.5q100 0 162.5 -53.5t65.5 -141.5zM277 727q-24 0 -41 17t-17 42q0 24 17 41t41 17t41 -17t17 -41q0 -25 -17 -42t-41 -17z" />
    <glyph glyph-name="uni1E61" unicode="&#x1e61;" horiz-adv-x="472" 
d="M428 355h-94q-2 29 -28 47.5t-69 18.5q-47 0 -73.5 -19.5t-26.5 -52.5q0 -24 22.5 -36.5t56.5 -15.5t73 -10.5t73 -18.5t56.5 -42t22.5 -80q0 -70 -56.5 -114.5t-148.5 -44.5q-91 0 -147 43.5t-58 112.5h96q2 -32 30 -51t78 -19q53 0 81.5 20t28.5 53q0 24 -22.5 37
t-56.5 16t-73 10.5t-73 18.5t-56.5 42t-22.5 79q0 69 53.5 113.5t140.5 44.5q86 0 138.5 -43t54.5 -109zM237 577q-24 0 -41 17t-17 42q0 24 17 41t41 17t41 -17t17 -41q0 -25 -17 -42t-41 -17z" />
    <glyph glyph-name="uni1E6A" unicode="&#x1e6a;" horiz-adv-x="571" 
d="M336 0h-102v560h-207v94h517v-94h-208v-560zM285 727q-24 0 -41 17t-17 42q0 24 17 41t41 17t41 -17t17 -41q0 -25 -17 -42t-41 -17z" />
    <glyph glyph-name="uni1E6B" unicode="&#x1e6b;" horiz-adv-x="475" 
d="M445 198v-11q0 -98 -53.5 -149t-144.5 -51t-144.5 51t-53.5 149v476h95v-169h272v-87h-272v-220q0 -57 27.5 -84.5t75.5 -27.5q104 0 104 112v11h94zM96 730q-24 0 -41 17t-17 42q0 24 17 41t41 17t41 -17t17 -41q0 -25 -17 -42t-41 -17z" />
    <glyph glyph-name="Wgrave" unicode="&#x1e80;" horiz-adv-x="930" 
d="M776 227v427h102v-427q0 -117 -62.5 -178.5t-161.5 -61.5q-134 0 -188 108h-2q-25 -52 -74 -80t-114 -28q-100 0 -162 61.5t-62 178.5v427h102v-427q0 -72 35.5 -109t94.5 -37q58 0 94 37.5t36 108.5v427h102v-427q0 -71 35.5 -108.5t94.5 -37.5q58 0 94 37t36 109z
M531 716h-82l-123 154h100z" />
    <glyph glyph-name="wgrave" unicode="&#x1e81;" horiz-adv-x="854" 
d="M379 494h95v-286q0 -65 32.5 -99t85.5 -34q54 0 86 33.5t32 99.5v286h95v-286q0 -109 -56.5 -165t-147.5 -56q-120 0 -173 96h-2q-53 -96 -173 -96q-91 0 -147.5 56t-56.5 165v286h95v-286q0 -66 32 -99.5t86 -33.5q53 0 85 34t32 99v286zM493 566h-82l-123 154h100z" />
    <glyph glyph-name="Wacute" unicode="&#x1e82;" horiz-adv-x="930" 
d="M776 227v427h102v-427q0 -117 -62.5 -178.5t-161.5 -61.5q-134 0 -188 108h-2q-25 -52 -74 -80t-114 -28q-100 0 -162 61.5t-62 178.5v427h102v-427q0 -72 35.5 -109t94.5 -37q58 0 94 37.5t36 108.5v427h102v-427q0 -71 35.5 -108.5t94.5 -37.5q58 0 94 37t36 109z
M481 716h-82l105 154h100z" />
    <glyph glyph-name="wacute" unicode="&#x1e83;" horiz-adv-x="854" 
d="M379 494h95v-286q0 -65 32.5 -99t85.5 -34q54 0 86 33.5t32 99.5v286h95v-286q0 -109 -56.5 -165t-147.5 -56q-120 0 -173 96h-2q-53 -96 -173 -96q-91 0 -147.5 56t-56.5 165v286h95v-286q0 -66 32 -99.5t86 -33.5q53 0 85 34t32 99v286zM442 566h-82l105 154h100z" />
    <glyph glyph-name="Wdieresis" unicode="&#x1e84;" horiz-adv-x="930" 
d="M776 227v427h102v-427q0 -117 -62.5 -178.5t-161.5 -61.5q-134 0 -188 108h-2q-25 -52 -74 -80t-114 -28q-100 0 -162 61.5t-62 178.5v427h102v-427q0 -72 35.5 -109t94.5 -37q58 0 94 37.5t36 108.5v427h102v-427q0 -71 35.5 -108.5t94.5 -37.5q58 0 94 37t36 109z
M562 727q-24 0 -41 17t-17 42q0 24 17 41t41 17t41 -17t17 -41q0 -25 -17 -42t-41 -17zM369 727q-25 0 -42 17t-17 42q0 24 17 41t42 17q24 0 41 -17t17 -41q0 -25 -17 -42t-41 -17z" />
    <glyph glyph-name="wdieresis" unicode="&#x1e85;" horiz-adv-x="854" 
d="M379 494h95v-286q0 -65 32.5 -99t85.5 -34q54 0 86 33.5t32 99.5v286h95v-286q0 -109 -56.5 -165t-147.5 -56q-120 0 -173 96h-2q-53 -96 -173 -96q-91 0 -147.5 56t-56.5 165v286h95v-286q0 -66 32 -99.5t86 -33.5q53 0 85 34t32 99v286zM523 577q-24 0 -41 17t-17 42
q0 24 17 41t41 17t41 -17t17 -41q0 -25 -17 -42t-41 -17zM330 577q-25 0 -42 17t-17 42q0 24 17 41t42 17q24 0 41 -17t17 -41q0 -25 -17 -42t-41 -17z" />
    <glyph glyph-name="Ygrave" unicode="&#x1ef2;" horiz-adv-x="650" 
d="M377 0h-102v280l-259 374h122l187 -284h2l188 284h119l-257 -371v-283zM391 716h-82l-123 154h100z" />
    <glyph glyph-name="ygrave" unicode="&#x1ef3;" horiz-adv-x="602" 
d="M293 80q68 0 108.5 42t40.5 119v253h95v-477q0 -122 -68 -181.5t-178 -59.5q-89 0 -153 42t-85 123h95q34 -82 143 -82q151 0 151 156v67h-2q-49 -91 -163 -91q-99 0 -163.5 63.5t-64.5 186.5v253h95v-253q0 -79 40 -120t109 -41zM367 566h-82l-123 154h100z" />
    <glyph glyph-name="figuredash" unicode="&#x2012;" horiz-adv-x="522" 
d="M472 237h-422v74h422v-74z" />
    <glyph glyph-name="endash" unicode="&#x2013;" horiz-adv-x="500" 
d="M450 237h-400v74h400v-74z" />
    <glyph glyph-name="emdash" unicode="&#x2014;" horiz-adv-x="1000" 
d="M950 237h-900v74h900v-74z" />
    <glyph glyph-name="quoteleft" unicode="&#x2018;" horiz-adv-x="248" 
d="M67 506l62 148h57l-38 -123q19 -6 30.5 -22.5t11.5 -38.5q0 -27 -19 -46.5t-47 -19.5t-47 19.5t-19 46.5q0 18 9 36z" />
    <glyph glyph-name="quoteright" unicode="&#x2019;" horiz-adv-x="248" 
d="M119 417h-56l38 123q-19 7 -31 23.5t-12 37.5q0 28 19 47t47 19t47 -19t19 -47q0 -17 -8 -36z" />
    <glyph glyph-name="quotesinglbase" unicode="&#x201a;" horiz-adv-x="248" 
d="M119 -131h-56l38 123q-19 7 -31 23.5t-12 37.5q0 28 19 47t47 19t47 -19t19 -47q0 -17 -8 -36z" />
    <glyph glyph-name="quotedblleft" unicode="&#x201c;" horiz-adv-x="423" 
d="M67 506l62 148h57l-38 -123q19 -6 30.5 -22.5t11.5 -38.5q0 -27 -19 -46.5t-47 -19.5t-47 19.5t-19 46.5q0 18 9 36zM242 506l62 148h57l-38 -123q19 -6 30.5 -22.5t11.5 -38.5q0 -27 -19 -46.5t-47 -19.5t-47 19.5t-19 46.5q0 18 9 36z" />
    <glyph glyph-name="quotedblright" unicode="&#x201d;" horiz-adv-x="423" 
d="M119 417h-56l38 123q-19 7 -31 23.5t-12 37.5q0 28 19 47t47 19t47 -19t19 -47q0 -17 -8 -36zM294 417h-56l38 123q-19 7 -31 23.5t-12 37.5q0 28 19 47t47 19t47 -19t19 -47q0 -17 -8 -36z" />
    <glyph glyph-name="quotedblbase" unicode="&#x201e;" horiz-adv-x="423" 
d="M119 -131h-56l38 123q-19 7 -31 23.5t-12 37.5q0 28 19 47t47 19t47 -19t19 -47q0 -17 -8 -36zM294 -131h-56l38 123q-19 7 -31 23.5t-12 37.5q0 28 19 47t47 19t47 -19t19 -47q0 -17 -8 -36z" />
    <glyph glyph-name="dagger" unicode="&#x2020;" horiz-adv-x="556" 
d="M295 -104h-35l-35 310l29 199l-1 1l-199 -29v106l200 -29l1 1l-30 199h106l-30 -199l1 -1l200 29v-106l-199 29l-1 -1l29 -199z" />
    <glyph glyph-name="daggerdbl" unicode="&#x2021;" horiz-adv-x="556" 
d="M331 -104h-106l30 199l-1 1l-200 -29v106l199 -29l1 1l-29 130l29 130l-1 1l-199 -29v106l200 -29l1 1l-30 199h106l-30 -199l1 -1l200 29v-106l-199 29l-1 -1l29 -130l-29 -130l1 -1l199 29v-106l-200 29l-1 -1z" />
    <glyph glyph-name="bullet" unicode="&#x2022;" horiz-adv-x="396" 
d="M198 138q-55 0 -94.5 39.5t-39.5 94.5t39.5 94.5t94.5 39.5t94.5 -39.5t39.5 -94.5t-39.5 -94.5t-94.5 -39.5z" />
    <glyph glyph-name="ellipsis" unicode="&#x2026;" horiz-adv-x="1000" 
d="M194 -13q-27 0 -46.5 19t-19.5 47t19.5 47t46.5 19q28 0 47 -19t19 -47t-19 -47t-47 -19zM500 -13q-28 0 -47 19t-19 47t19 47t47 19t47 -19t19 -47t-19 -47t-47 -19zM806 -13q-28 0 -47 19t-19 47t19 47t47 19q27 0 46.5 -19t19.5 -47t-19.5 -47t-46.5 -19z" />
    <glyph glyph-name="perthousand" unicode="&#x2030;" horiz-adv-x="1034" 
d="M851 -13q-64 0 -109.5 45.5t-45.5 110.5q0 63 45.5 108.5t109.5 45.5t109 -45.5t45 -108.5q0 -65 -45 -110.5t-109 -45.5zM851 51q37 0 63 27t26 65q0 37 -26 63.5t-63 26.5t-63 -26.5t-26 -63.5q0 -38 26 -65t63 -27zM170 0h-73l415 654h73zM183 357q-64 0 -109 45.5
t-45 109.5t45 109.5t109 45.5t109.5 -45.5t45.5 -109.5t-45.5 -109.5t-109.5 -45.5zM183 421q37 0 63 26.5t26 64.5t-26 64.5t-63 26.5t-63 -26.5t-26 -64.5t26 -64.5t63 -26.5zM501 -13q-64 0 -109.5 45.5t-45.5 110.5q0 63 45.5 108.5t109.5 45.5t109 -45.5t45 -108.5
q0 -65 -45 -110.5t-109 -45.5zM501 51q37 0 63 27t26 65q0 37 -26 63.5t-63 26.5t-63 -26.5t-26 -63.5q0 -38 26 -65t63 -27z" />
    <glyph glyph-name="guilsinglleft" unicode="&#x2039;" horiz-adv-x="366" 
d="M313 48h-101l-159 199l159 199h101l-161 -199z" />
    <glyph glyph-name="guilsinglright" unicode="&#x203a;" horiz-adv-x="366" 
d="M154 48h-101l161 199l-161 199h101l160 -199z" />
    <glyph glyph-name="fraction" unicode="&#x2044;" horiz-adv-x="442" 
d="M50 0h-73l415 654h73z" />
    <glyph glyph-name="zerosuperior" unicode="&#x2070;" horiz-adv-x="340" 
d="M317 515v-134q0 -66 -40.5 -106.5t-106.5 -40.5q-65 0 -105.5 40.5t-40.5 106.5v134q0 66 40.5 106.5t105.5 40.5q66 0 106.5 -40.5t40.5 -106.5zM246 381v134q0 37 -20.5 58.5t-55.5 21.5t-55 -21.5t-20 -58.5v-134q0 -37 20 -58.5t55 -21.5t55.5 21.5t20.5 58.5z" />
    <glyph glyph-name="foursuperior" unicode="&#x2074;" horiz-adv-x="340" 
d="M282 242h-71v87h-190v61l190 264h71v-261h41v-64h-41v-87zM212 555h-2l-112 -160v-2h114v162z" />
    <glyph glyph-name="fivesuperior" unicode="&#x2075;" horiz-adv-x="340" 
d="M282 590h-162l-14 -102h2q27 32 76 32q54 0 92.5 -39t38.5 -99v-5q0 -63 -41 -103t-106 -40q-60 0 -100.5 34.5t-45.5 90.5h73q5 -26 24.5 -42t48.5 -16q34 0 54 21t20 55v5q0 34 -20 55t-54 21q-46 0 -68 -38l-63 17l28 217h217v-64z" />
    <glyph glyph-name="sixsuperior" unicode="&#x2076;" horiz-adv-x="340" 
d="M319 387v-8q0 -64 -41 -104.5t-106 -40.5t-105.5 40.5t-40.5 104.5v4q0 55 38 116l98 155h80l-93 -139v-2q17 10 44 10q54 0 90 -40t36 -96zM246 379v5q0 36 -20 57.5t-54 21.5t-54 -22t-20 -57v-5q0 -36 20 -57t54 -21t54 21t20 57z" />
    <glyph glyph-name="sevensuperior" unicode="&#x2077;" horiz-adv-x="340" 
d="M306 593l-177 -351h-78l176 346v2h-190v64h269v-61z" />
    <glyph glyph-name="eightsuperior" unicode="&#x2078;" horiz-adv-x="340" 
d="M247 459q69 -27 69 -100q0 -57 -40 -91t-106 -34t-106 34t-40 91q0 73 69 100v2q-55 25 -55 88q0 52 36 82.5t96 30.5t96 -30.5t36 -82.5q0 -63 -55 -88v-2zM173 430h-5q-35 0 -54 -17.5t-19 -48.5q0 -30 19.5 -47.5t55.5 -17.5t55.5 17.5t19.5 47.5q0 31 -19 48.5
t-53 17.5zM168 490h5q28 0 43.5 14t15.5 39q0 24 -16 39t-46 15q-29 0 -45.5 -15.5t-16.5 -38.5q0 -25 16 -39t44 -14z" />
    <glyph glyph-name="ninesuperior" unicode="&#x2079;" horiz-adv-x="340" 
d="M178 242h-80l93 139v2q-17 -10 -44 -10q-54 0 -90 40t-36 96v8q0 64 41 104.5t106 40.5t105.5 -40.5t40.5 -104.5v-4q0 -55 -38 -116zM242 512v5q0 36 -20 57t-54 21t-54 -21t-20 -57v-5q0 -36 20 -57.5t54 -21.5t54 22t20 57z" />
    <glyph glyph-name="zeroinferior" unicode="&#x2080;" horiz-adv-x="340" 
d="M317 273v-134q0 -66 -40.5 -106.5t-106.5 -40.5q-65 0 -105.5 40.5t-40.5 106.5v134q0 66 40.5 106.5t105.5 40.5q66 0 106.5 -40.5t40.5 -106.5zM246 139v134q0 37 -20.5 58.5t-55.5 21.5t-55 -21.5t-20 -58.5v-134q0 -37 20 -58.5t55 -21.5t55.5 21.5t20.5 58.5z" />
    <glyph glyph-name="oneinferior" unicode="&#x2081;" horiz-adv-x="340" 
d="M234 0h-71v348h-84v64h155v-412z" />
    <glyph glyph-name="twoinferior" unicode="&#x2082;" horiz-adv-x="340" 
d="M299 0h-260v61l145 141q48 46 48 84q0 30 -16 48.5t-45 18.5t-45.5 -19t-16.5 -52v-6h-70v6q0 63 35.5 100.5t96.5 37.5t97 -38t36 -97q0 -37 -16.5 -65.5t-52.5 -61.5l-98 -92v-2h162v-64z" />
    <glyph glyph-name="threeinferior" unicode="&#x2083;" horiz-adv-x="340" 
d="M162 186h-47v62h48q63 0 63 53q0 23 -15.5 38t-43.5 15q-27 0 -42 -14.5t-17 -38.5h-68q1 57 36 88t92 31q58 0 93.5 -31t35.5 -82q0 -64 -52 -88v-2q66 -25 66 -100q0 -57 -39.5 -91t-103.5 -34t-103 34.5t-40 94.5h70q0 -27 19.5 -44.5t52.5 -17.5t52.5 17.5t19.5 45.5
q0 64 -77 64z" />
    <glyph glyph-name="fourinferior" unicode="&#x2084;" horiz-adv-x="340" 
d="M282 0h-71v87h-190v61l190 264h71v-261h41v-64h-41v-87zM212 313h-2l-112 -160v-2h114v162z" />
    <glyph glyph-name="fiveinferior" unicode="&#x2085;" horiz-adv-x="340" 
d="M282 348h-162l-14 -102h2q27 32 76 32q54 0 92.5 -39t38.5 -99v-5q0 -63 -41 -103t-106 -40q-60 0 -100.5 34.5t-45.5 90.5h73q5 -26 24.5 -42t48.5 -16q34 0 54 21t20 55v5q0 34 -20 55t-54 21q-46 0 -68 -38l-63 17l28 217h217v-64z" />
    <glyph glyph-name="sixinferior" unicode="&#x2086;" horiz-adv-x="340" 
d="M319 145v-8q0 -64 -41 -104.5t-106 -40.5t-105.5 40.5t-40.5 104.5v4q0 55 38 116l98 155h80l-93 -139v-2q17 10 44 10q54 0 90 -40t36 -96zM246 137v5q0 36 -20 57.5t-54 21.5t-54 -22t-20 -57v-5q0 -36 20 -57t54 -21t54 21t20 57z" />
    <glyph glyph-name="seveninferior" unicode="&#x2087;" horiz-adv-x="340" 
d="M306 351l-177 -351h-78l176 346v2h-190v64h269v-61z" />
    <glyph glyph-name="eightinferior" unicode="&#x2088;" horiz-adv-x="340" 
d="M247 217q69 -27 69 -100q0 -57 -40 -91t-106 -34t-106 34t-40 91q0 73 69 100v2q-55 25 -55 88q0 52 36 82.5t96 30.5t96 -30.5t36 -82.5q0 -63 -55 -88v-2zM173 188h-5q-35 0 -54 -17.5t-19 -48.5q0 -30 19.5 -47.5t55.5 -17.5t55.5 17.5t19.5 47.5q0 31 -19 48.5
t-53 17.5zM168 248h5q28 0 43.5 14t15.5 39q0 24 -16 39t-46 15q-29 0 -45.5 -15.5t-16.5 -38.5q0 -25 16 -39t44 -14z" />
    <glyph glyph-name="nineinferior" unicode="&#x2089;" horiz-adv-x="340" 
d="M178 0h-80l93 139v2q-17 -10 -44 -10q-54 0 -90 40t-36 96v8q0 64 41 104.5t106 40.5t105.5 -40.5t40.5 -104.5v-4q0 -55 -38 -116zM242 270v5q0 36 -20 57t-54 21t-54 -21t-20 -57v-5q0 -36 20 -57.5t54 -21.5t54 22t20 57z" />
    <glyph glyph-name="Euro" unicode="&#x20ac;" horiz-adv-x="522" 
d="M137 444v-6h248l-24 -77h-224v-67h205l-24 -77h-181v-7q0 -62 35 -98.5t93 -36.5q49 0 83 26.5t43 70.5h94q-11 -82 -71 -133.5t-149 -51.5q-99 0 -161 61.5t-62 160.5v236q0 99 62 160.5t161 61.5q89 0 149 -51.5t71 -133.5h-94q-9 44 -43 70.5t-83 26.5
q-58 0 -93 -36.5t-35 -98.5z" />
    <glyph glyph-name="uni20B9" unicode="&#x20b9;" horiz-adv-x="522" 
d="M461 0h-130l-278 252l22 57h117q111 0 132 89v2h-284l29 78h256v2q-10 42 -44 65.5t-89 23.5h-152l32 85h122q100 0 159.5 -47t70.5 -129h87l-29 -78h-60q-14 -77 -73 -120.5t-155 -43.5h-2v-2z" />
    <glyph glyph-name="uni2117" unicode="&#x2117;" horiz-adv-x="764" 
d="M730 327q0 -148 -98 -244t-250 -96t-250 96t-98 244t98 244t250 96t250 -96t98 -244zM668 327q0 122 -80 201.5t-206 79.5t-206 -79.5t-80 -201.5t79.5 -201.5t206.5 -79.5t206.5 79.5t79.5 201.5zM327 153h-62v328h163q56 0 88.5 -30.5t32.5 -80.5q0 -51 -32.5 -82
t-88.5 -31h-101v-104zM327 313h97q61 0 61 56t-61 56h-97v-112z" />
    <glyph glyph-name="trademark" unicode="&#x2122;" horiz-adv-x="896" 
d="M829 282h-62v297h-2l-124 -297h-60l-124 297h-2v-297h-60v372h96l119 -284h2l120 284h97v-372zM209 282h-62v316h-120v56h303v-56h-121v-316z" />
    <glyph glyph-name="uni2126" unicode="&#x2126;" horiz-adv-x="596" 
d="M256 0h-221v85h133v2q-72 72 -103 143.5t-31 164.5q0 125 73 198.5t191 73.5t191 -73.5t73 -198.5q0 -93 -31 -164.5t-103 -143.5v-2h133v-85h-221v73q68 78 97.5 151.5t29.5 167.5q0 86 -46.5 136t-122.5 50t-122.5 -50t-46.5 -136q0 -94 29.5 -167.5t97.5 -151.5v-73z
" />
    <glyph glyph-name="onethird" unicode="&#x2153;" horiz-adv-x="824" 
d="M241 0h-73l415 654h73zM234 242h-71v348h-84v64h155v-412zM646 186h-47v62h48q63 0 63 53q0 23 -15.5 38t-43.5 15q-27 0 -42 -14.5t-17 -38.5h-68q1 57 36 88t92 31q58 0 93.5 -31t35.5 -82q0 -64 -52 -88v-2q66 -25 66 -100q0 -57 -39.5 -91t-103.5 -34t-103 34.5
t-40 94.5h70q0 -27 19.5 -44.5t52.5 -17.5t52.5 17.5t19.5 45.5q0 64 -77 64z" />
    <glyph glyph-name="twothirds" unicode="&#x2154;" horiz-adv-x="824" 
d="M241 0h-73l415 654h73zM299 242h-260v61l145 141q48 46 48 84q0 30 -16 48.5t-45 18.5t-45.5 -19t-16.5 -52v-6h-70v6q0 63 35.5 100.5t96.5 37.5t97 -38t36 -97q0 -37 -16.5 -65.5t-52.5 -61.5l-98 -92v-2h162v-64zM646 186h-47v62h48q63 0 63 53q0 23 -15.5 38
t-43.5 15q-27 0 -42 -14.5t-17 -38.5h-68q1 57 36 88t92 31q58 0 93.5 -31t35.5 -82q0 -64 -52 -88v-2q66 -25 66 -100q0 -57 -39.5 -91t-103.5 -34t-103 34.5t-40 94.5h70q0 -27 19.5 -44.5t52.5 -17.5t52.5 17.5t19.5 45.5q0 64 -77 64z" />
    <glyph glyph-name="oneeighth" unicode="&#x215b;" horiz-adv-x="824" 
d="M241 0h-73l415 654h73zM234 242h-71v348h-84v64h155v-412zM731 217q69 -27 69 -100q0 -57 -40 -91t-106 -34t-106 34t-40 91q0 73 69 100v2q-55 25 -55 88q0 52 36 82.5t96 30.5t96 -30.5t36 -82.5q0 -63 -55 -88v-2zM657 188h-5q-35 0 -54 -17.5t-19 -48.5
q0 -30 19.5 -47.5t55.5 -17.5t55.5 17.5t19.5 47.5q0 31 -19 48.5t-53 17.5zM652 248h5q28 0 43.5 14t15.5 39q0 24 -16 39t-46 15q-29 0 -45.5 -15.5t-16.5 -38.5q0 -25 16 -39t44 -14z" />
    <glyph glyph-name="threeeighths" unicode="&#x215c;" horiz-adv-x="824" 
d="M241 0h-73l415 654h73zM731 217q69 -27 69 -100q0 -57 -40 -91t-106 -34t-106 34t-40 91q0 73 69 100v2q-55 25 -55 88q0 52 36 82.5t96 30.5t96 -30.5t36 -82.5q0 -63 -55 -88v-2zM657 188h-5q-35 0 -54 -17.5t-19 -48.5q0 -30 19.5 -47.5t55.5 -17.5t55.5 17.5
t19.5 47.5q0 31 -19 48.5t-53 17.5zM652 248h5q28 0 43.5 14t15.5 39q0 24 -16 39t-46 15q-29 0 -45.5 -15.5t-16.5 -38.5q0 -25 16 -39t44 -14zM162 428h-47v62h48q63 0 63 53q0 23 -15.5 38t-43.5 15q-27 0 -42 -14.5t-17 -38.5h-68q1 57 36 88t92 31q58 0 93.5 -31
t35.5 -82q0 -64 -52 -88v-2q66 -25 66 -100q0 -57 -39.5 -91t-103.5 -34t-103 34.5t-40 94.5h70q0 -27 19.5 -44.5t52.5 -17.5t52.5 17.5t19.5 45.5q0 64 -77 64z" />
    <glyph glyph-name="fiveeighths" unicode="&#x215d;" horiz-adv-x="824" 
d="M241 0h-73l415 654h73zM282 590h-162l-14 -102h2q27 32 76 32q54 0 92.5 -39t38.5 -99v-5q0 -63 -41 -103t-106 -40q-60 0 -100.5 34.5t-45.5 90.5h73q5 -26 24.5 -42t48.5 -16q34 0 54 21t20 55v5q0 34 -20 55t-54 21q-46 0 -68 -38l-63 17l28 217h217v-64zM731 217
q69 -27 69 -100q0 -57 -40 -91t-106 -34t-106 34t-40 91q0 73 69 100v2q-55 25 -55 88q0 52 36 82.5t96 30.5t96 -30.5t36 -82.5q0 -63 -55 -88v-2zM657 188h-5q-35 0 -54 -17.5t-19 -48.5q0 -30 19.5 -47.5t55.5 -17.5t55.5 17.5t19.5 47.5q0 31 -19 48.5t-53 17.5z
M652 248h5q28 0 43.5 14t15.5 39q0 24 -16 39t-46 15q-29 0 -45.5 -15.5t-16.5 -38.5q0 -25 16 -39t44 -14z" />
    <glyph glyph-name="seveneighths" unicode="&#x215e;" horiz-adv-x="824" 
d="M197 0h-73l415 654h73zM731 217q69 -27 69 -100q0 -57 -40 -91t-106 -34t-106 34t-40 91q0 73 69 100v2q-55 25 -55 88q0 52 36 82.5t96 30.5t96 -30.5t36 -82.5q0 -63 -55 -88v-2zM657 188h-5q-35 0 -54 -17.5t-19 -48.5q0 -30 19.5 -47.5t55.5 -17.5t55.5 17.5
t19.5 47.5q0 31 -19 48.5t-53 17.5zM652 248h5q28 0 43.5 14t15.5 39q0 24 -16 39t-46 15q-29 0 -45.5 -15.5t-16.5 -38.5q0 -25 16 -39t44 -14zM306 593l-177 -351h-78l176 346v2h-190v64h269v-61z" />
    <glyph glyph-name="partialdiff" unicode="&#x2202;" horiz-adv-x="522" 
d="M476 209q0 -104 -60 -163t-159 -59q-100 0 -160 58.5t-60 162.5q0 101 56 158.5t144 57.5q94 0 143 -68h2v60q0 78 -38 120t-113 42q-73 0 -133 -41v92q60 38 138 38q118 0 179 -62.5t61 -183.5v-212zM382 206v4q0 61 -34.5 95.5t-90.5 34.5q-57 0 -91.5 -34.5
t-34.5 -96.5v-3q0 -62 34.5 -96.5t91.5 -34.5q56 0 90.5 35t34.5 96z" />
    <glyph glyph-name="uni2206" unicode="&#x2206;" horiz-adv-x="596" 
d="M564 0h-532v81l227 573h78l227 -573v-81zM469 85v2l-170 439h-2l-170 -439v-2h342z" />
    <glyph glyph-name="product" unicode="&#x220f;" horiz-adv-x="666" 
d="M616 -132h-94v701h-378v-701h-94v786h566v-786z" />
    <glyph glyph-name="summation" unicode="&#x2211;" horiz-adv-x="666" 
d="M622 -132h-578v81l284 312l-284 312v81h578v-85h-455v-2l280 -306l-280 -306v-2h455v-85z" />
    <glyph glyph-name="minus" unicode="&#x2212;" horiz-adv-x="562" 
d="M513 221h-464v82h464v-82z" />
    <glyph glyph-name="radical" unicode="&#x221a;" horiz-adv-x="562" 
d="M277 -109h-86l-143 419h85l99 -303h2l232 756h88z" />
    <glyph glyph-name="integral" unicode="&#x222b;" horiz-adv-x="402" 
d="M120 -109h-38v65h18q47 0 72 29t25 83q0 83 -39.5 258.5t-39.5 259.5t41.5 130.5t122.5 46.5h38v-65h-18q-47 0 -72 -29t-25 -83q0 -82 39.5 -256t39.5 -259q0 -86 -41 -133t-123 -47z" />
    <glyph glyph-name="approxequal" unicode="&#x2248;" horiz-adv-x="562" 
d="M443 466h77q-1 -86 -37.5 -132t-99.5 -46q-34 0 -64.5 15t-49 33.5t-41.5 33.5t-43 15q-62 0 -66 -92h-77q1 86 37 132.5t100 46.5q34 0 64.5 -15.5t49 -33.5t41.5 -33.5t43 -15.5q62 0 66 92zM443 230h77q-1 -86 -37.5 -132t-99.5 -46q-34 0 -64.5 15t-49 33.5
t-41.5 33.5t-43 15q-62 0 -66 -92h-77q1 86 37 132.5t100 46.5q34 0 64.5 -15.5t49 -33.5t41.5 -33.5t43 -15.5q62 0 66 92z" />
    <glyph glyph-name="notequal" unicode="&#x2260;" horiz-adv-x="562" 
d="M513 109h-294l-79 -102h-89l78 100v2h-80v82h131l111 140v2h-242v82h293l80 102h89l-78 -100v-2h80v-82h-132l-110 -140v-2h242v-82z" />
    <glyph glyph-name="lessequal" unicode="&#x2264;" horiz-adv-x="562" 
d="M144 303l369 -122v-90l-464 173v80l464 173v-89l-369 -123v-2zM513 7h-464v81h464v-81z" />
    <glyph glyph-name="greaterequal" unicode="&#x2265;" horiz-adv-x="562" 
d="M49 181l369 122v2l-369 123v89l464 -173v-80l-464 -173v90zM513 7h-464v81h464v-81z" />
    <glyph glyph-name="lozenge" unicode="&#x25ca;" horiz-adv-x="616" 
d="M348 0h-81l-229 327l229 327h81l230 -327zM308 81l171 246l-171 246h-2l-169 -246l169 -246h2z" />
    <glyph glyph-name="uniF8FF" unicode="&#xf8ff;" horiz-adv-x="4638" 
d="M1877 125l2 243h-2l-80 -368h-111l130 599h133l1 -314h2l139 314h135l-130 -599h-111l80 368h-2l-112 -243h-74zM466 493l-83 -381q-25 -112 -120 -112h-215l130 599h207q40 0 62.5 -19t22.5 -56q0 -9 -4 -31zM1186 0h-110l25 118h-94l-25 -118h-111l106 493
q11 52 43.5 79t79.5 27h112q40 0 63 -19.5t23 -55.5q0 -15 -4 -31zM1699 493l-58 -269q-13 -61 -60 -87l27 -137h-108l-23 118h-54l-26 -118h-111l130 599h202q39 0 62 -19.5t23 -55.5q0 -15 -4 -31zM3857 493l-57 -268q-11 -52 -43.5 -79.5t-78.5 -27.5h-105l-26 -118h-111
l130 599h210q39 0 62 -19.5t23 -55.5q0 -15 -4 -31zM901 599l-130 -599h-111l26 118h-92l-26 -118h-111l130 599h111l-84 -387h92l84 387h111zM3173 599h111l-80 -367q-5 -20 13 -20h55q20 0 24 20l79 367h112l-81 -374q-11 -51 -42 -78t-75 -29l-59 -118h-115l60 118
q-40 0 -63.5 20t-23.5 57q0 14 4 30zM4116 274l-20 -94h-123l-19 -86h158l-20 -94h-269l130 599h268l-21 -94h-156l-51 -231h123zM3008 505l-109 -505h-111l109 505h-91l21 94h292l-21 -94h-90zM179 94h69q21 0 25 19l81 373q5 19 -13 19h-72zM3690 232l55 254q5 19 -13 19
h-75l-64 -293h72q19 0 25 20zM1168 505h-56q-21 0 -25 -19l-59 -274h94l59 274q6 19 -13 19zM1532 232l55 254q5 19 -14 19h-67l-63 -293h64q21 0 25 20zM4589 573v-207h-34v178h-1l-39 -122h-23l-40 122h-1v-178h-33v207h52l33 -105h1l33 105h52zM4386 573v-30h-49v-177
h-34v177h-49v30h132zM2503 0h-110l25 118h-94l-25 -118h-111l106 493q11 52 43.5 79t79.5 27h112q40 0 63 -19.5t23 -55.5q0 -15 -4 -31zM2485 505h-56q-21 0 -25 -19l-59 -274h94l59 274q5 19 -13 19z" />
    <glyph glyph-name="commaaccent" horiz-adv-x="320" 
d="M159 -241h-48l28 69q-36 14 -36 53q0 24 16.5 41t40.5 17t40.5 -17t16.5 -41q0 -17 -9 -32z" />
    <glyph glyph-name="i.trk" horiz-adv-x="228" 
d="M114 564q-27 0 -46.5 19.5t-19.5 47.5q0 27 19.5 46.5t46.5 19.5q28 0 47 -19.5t19 -46.5q0 -28 -19 -47.5t-47 -19.5zM162 0h-95v494h95v-494z" />
    </font>
</defs>
</svg>
