<svg width="142" height="104" viewBox="0 0 142 104" fill="none" xmlns="http://www.w3.org/2000/svg">
    <path d="M9.60076 15.2408C13.1566 15.2408 15.7494 12.8702 16.0272 9.55516V8.62917H8.85996V10.37H14.0085C13.4344 12.3887 11.8046 13.4999 9.60076 13.4999C6.91538 13.4999 5.06339 11.5738 5.06339 8.94401C5.06339 6.31419 6.91538 4.38812 9.60076 4.38812C11.4527 4.38812 12.8788 5.27707 13.5825 6.7031H15.6753C14.8048 4.25848 12.5454 2.64725 9.60076 2.64725C5.82271 2.64725 3.15585 5.31411 3.15585 8.94401C3.15585 12.5739 5.82271 15.2408 9.60076 15.2408Z" fill="#ECC9F7"/>
    <path d="M9.60076 15.2408C13.1566 15.2408 15.7494 12.8702 16.0272 9.55516V8.62917H8.85996V10.37H14.0085C13.4344 12.3887 11.8046 13.4999 9.60076 13.4999C6.91538 13.4999 5.06339 11.5738 5.06339 8.94401C5.06339 6.31419 6.91538 4.38812 9.60076 4.38812C11.4527 4.38812 12.8788 5.27707 13.5825 6.7031H15.6753C14.8048 4.25848 12.5454 2.64725 9.60076 2.64725C5.82271 2.64725 3.15585 5.31411 3.15585 8.94401C3.15585 12.5739 5.82271 15.2408 9.60076 15.2408Z" fill="white" style="mix-blend-mode:soft-light"/>
    <path d="M29.457 15H31.346V10.6664H34.2351L37.1242 15H39.3837L36.1797 10.4997C38.0873 10.0182 38.9392 8.59213 38.9392 6.77718C38.9392 4.53628 37.6428 2.88801 34.6611 2.88801H29.457V15ZM31.346 8.92549V4.62888H34.6796C36.4205 4.62888 37.0316 5.53635 37.0316 6.77718C37.0316 7.99949 36.439 8.92549 34.6796 8.92549H31.346Z" fill="#ECC9F7"/>
    <path d="M29.457 15H31.346V10.6664H34.2351L37.1242 15H39.3837L36.1797 10.4997C38.0873 10.0182 38.9392 8.59213 38.9392 6.77718C38.9392 4.53628 37.6428 2.88801 34.6611 2.88801H29.457V15ZM31.346 8.92549V4.62888H34.6796C36.4205 4.62888 37.0316 5.53635 37.0316 6.77718C37.0316 7.99949 36.439 8.92549 34.6796 8.92549H31.346Z" fill="white" style="mix-blend-mode:soft-light"/>
    <path d="M58.5107 15.2408C61.3998 15.2408 63.437 13.2036 63.437 10.4256C63.437 7.64762 61.3998 5.61043 58.5107 5.61043C55.6216 5.61043 53.5844 7.64762 53.5844 10.4256C53.5844 13.2036 55.6216 15.2408 58.5107 15.2408ZM58.5107 13.611C56.6217 13.611 55.3623 12.2776 55.3623 10.4256C55.3623 8.57361 56.6217 7.24018 58.5107 7.24018C60.3997 7.24018 61.6591 8.57361 61.6591 10.4256C61.6591 12.2776 60.3997 13.611 58.5107 13.611Z" fill="#ECC9F7"/>
    <path d="M58.5107 15.2408C61.3998 15.2408 63.437 13.2036 63.437 10.4256C63.437 7.64762 61.3998 5.61043 58.5107 5.61043C55.6216 5.61043 53.5844 7.64762 53.5844 10.4256C53.5844 13.2036 55.6216 15.2408 58.5107 15.2408ZM58.5107 13.611C56.6217 13.611 55.3623 12.2776 55.3623 10.4256C55.3623 8.57361 56.6217 7.24018 58.5107 7.24018C60.3997 7.24018 61.6591 8.57361 61.6591 10.4256C61.6591 12.2776 60.3997 13.611 58.5107 13.611Z" fill="white" style="mix-blend-mode:soft-light"/>
    <path d="M84.0278 15H81.9536L77.3792 2.88801H79.3794L82.9722 12.8147L86.5651 2.88801H88.6208L84.0278 15Z" fill="#ECC9F7"/>
    <path d="M84.0278 15H81.9536L77.3792 2.88801H79.3794L82.9722 12.8147L86.5651 2.88801H88.6208L84.0278 15Z" fill="white" style="mix-blend-mode:soft-light"/>
    <path d="M107.648 15H109.407V2.88801H105.018V4.4622H107.648V15Z" fill="#ECC9F7"/>
    <path d="M107.648 15H109.407V2.88801H105.018V4.4622H107.648V15Z" fill="white" style="mix-blend-mode:soft-light"/>
    <path d="M9.37021 43.0996H7.61082V30.9876H12V32.5618H9.37021V43.0996Z" fill="#ECC9F7"/>
    <path d="M9.37021 43.0996H7.61082V30.9876H12V32.5618H9.37021V43.0996Z" fill="white" style="mix-blend-mode:soft-light"/>
    <path d="M33.0653 43.0996H34.9543V32.7285H38.8064V30.9876H29.2317V32.7285H33.0653V43.0996Z" fill="#ECC9F7"/>
    <path d="M33.0653 43.0996H34.9543V32.7285H38.8064V30.9876H29.2317V32.7285H33.0653V43.0996Z" fill="white" style="mix-blend-mode:soft-light"/>
    <path d="M59.4126 43.0996H57.5766V38.0056L52.9506 31.3276H55.0926L58.4946 36.4576L61.8786 31.3276H64.0746L59.4126 38.0596V43.0996Z" fill="#ECC9F7"/>
    <path d="M59.4126 43.0996H57.5766V38.0056L52.9506 31.3276H55.0926L58.4946 36.4576L61.8786 31.3276H64.0746L59.4126 38.0596V43.0996Z" fill="white" style="mix-blend-mode:soft-light"/>
    <path d="M85.942 33.0426L79.2002 39.7845L80.0516 40.6359L86.7935 33.8941L85.942 33.0426ZM86.7935 39.7845L80.0516 33.0426L79.2002 33.8941L85.942 40.6359L86.7935 39.7845Z" fill="#ECC9F7"/>
    <path d="M85.942 33.0426L79.2002 39.7845L80.0516 40.6359L86.7935 33.8941L85.942 33.0426ZM86.7935 39.7845L80.0516 33.0426L79.2002 33.8941L85.942 40.6359L86.7935 39.7845Z" fill="white" style="mix-blend-mode:soft-light"/>
    <path d="M107.485 43.3404C110.374 43.3404 112.412 41.3032 112.412 38.5252C112.412 35.7472 110.374 33.71 107.485 33.71C104.596 33.71 102.559 35.7472 102.559 38.5252C102.559 41.3032 104.596 43.3404 107.485 43.3404ZM107.485 41.7106C105.596 41.7106 104.337 40.3772 104.337 38.5252C104.337 36.6732 105.596 35.3398 107.485 35.3398C109.374 35.3398 110.634 36.6732 110.634 38.5252C110.634 40.3772 109.374 41.7106 107.485 41.7106Z" fill="#ECC9F7"/>
    <path d="M107.485 43.3404C110.374 43.3404 112.412 41.3032 112.412 38.5252C112.412 35.7472 110.374 33.71 107.485 33.71C104.596 33.71 102.559 35.7472 102.559 38.5252C102.559 41.3032 104.596 43.3404 107.485 43.3404ZM107.485 41.7106C105.596 41.7106 104.337 40.3772 104.337 38.5252C104.337 36.6732 105.596 35.3398 107.485 35.3398C109.374 35.3398 110.634 36.6732 110.634 38.5252C110.634 40.3772 109.374 41.7106 107.485 41.7106Z" fill="white" style="mix-blend-mode:soft-light"/>
    <path d="M11.2198 64.0808C10.7524 64.5296 10.1821 64.7539 9.50895 64.7539C8.83581 64.7539 8.26551 64.5296 7.79805 64.0808C7.33059 63.6227 7.09686 63.0384 7.09686 62.3278C7.09686 61.6266 7.33059 61.0563 7.79805 60.6169C8.26551 60.1682 8.83581 59.9438 9.50895 59.9438C10.1821 59.9438 10.7524 60.1682 11.2198 60.6169C11.6873 61.0563 11.921 61.6266 11.921 62.3278C11.921 63.0384 11.6873 63.6227 11.2198 64.0808ZM9.50895 63.8284C9.92031 63.8284 10.2662 63.6928 10.5467 63.4217C10.8365 63.1412 10.9814 62.7766 10.9814 62.3278C10.9814 61.8978 10.8365 61.5472 10.5467 61.276C10.2662 61.0049 9.92031 60.8693 9.50895 60.8693C9.08823 60.8693 8.73764 61.0049 8.45717 61.276C8.17669 61.5472 8.03645 61.8978 8.03645 62.3278C8.03645 62.7766 8.17669 63.1412 8.45717 63.4217C8.73764 63.6928 9.08823 63.8284 9.50895 63.8284ZM7.26515 66.1984V65.4832H11.8509V66.1984H7.26515Z" fill="#ECC9F7"/>
    <path d="M11.2198 64.0808C10.7524 64.5296 10.1821 64.7539 9.50895 64.7539C8.83581 64.7539 8.26551 64.5296 7.79805 64.0808C7.33059 63.6227 7.09686 63.0384 7.09686 62.3278C7.09686 61.6266 7.33059 61.0563 7.79805 60.6169C8.26551 60.1682 8.83581 59.9438 9.50895 59.9438C10.1821 59.9438 10.7524 60.1682 11.2198 60.6169C11.6873 61.0563 11.921 61.6266 11.921 62.3278C11.921 63.0384 11.6873 63.6227 11.2198 64.0808ZM9.50895 63.8284C9.92031 63.8284 10.2662 63.6928 10.5467 63.4217C10.8365 63.1412 10.9814 62.7766 10.9814 62.3278C10.9814 61.8978 10.8365 61.5472 10.5467 61.276C10.2662 61.0049 9.92031 60.8693 9.50895 60.8693C9.08823 60.8693 8.73764 61.0049 8.45717 61.276C8.17669 61.5472 8.03645 61.8978 8.03645 62.3278C8.03645 62.7766 8.17669 63.1412 8.45717 63.4217C8.73764 63.6928 9.08823 63.8284 9.50895 63.8284ZM7.26515 66.1984V65.4832H11.8509V66.1984H7.26515Z" fill="white" style="mix-blend-mode:soft-light"/>
    <path d="M33.4191 60.1719V69.7063H34.6232V60.1719H33.4191ZM38.7883 64.337L29.2539 64.337L29.2539 65.5411L38.7883 65.5411V64.337Z" fill="#ECC9F7"/>
    <path d="M33.4191 60.1719V69.7063H34.6232V60.1719H33.4191ZM38.7883 64.337L29.2539 64.337L29.2539 65.5411L38.7883 65.5411V64.337Z" fill="white" style="mix-blend-mode:soft-light"/>
    <path d="M57.9759 60.1719V69.7063H59.0432V60.1719H57.9759Z" fill="#ECC9F7"/>
    <path d="M57.9759 60.1719V69.7063H59.0432V60.1719H57.9759Z" fill="white" style="mix-blend-mode:soft-light"/>
    <path d="M82.9708 71.4402C85.6747 71.4402 87.4526 69.9957 87.4526 67.6807C87.4526 64.9583 85.2858 64.5879 83.3783 64.2545C81.9152 63.9952 80.6003 63.7915 80.6003 62.5136C80.6003 61.4025 81.4707 60.5876 83.0264 60.5876C84.5265 60.5876 85.3599 61.3839 85.4154 62.4581H87.2119C87.1378 60.2913 85.471 58.8467 82.9893 58.8467C80.4521 58.8467 78.7853 60.3653 78.7853 62.5692C78.7853 65.2916 80.9522 65.662 82.8412 65.9954C84.3043 66.2547 85.6006 66.4584 85.6006 67.7362C85.6006 68.9215 84.6561 69.6994 82.9708 69.6994C81.3226 69.6994 80.4151 68.9215 80.378 67.7362H78.5075C78.5631 70.0327 80.3225 71.4402 82.9708 71.4402Z" fill="#ECC9F7"/>
    <path d="M82.9708 71.4402C85.6747 71.4402 87.4526 69.9957 87.4526 67.6807C87.4526 64.9583 85.2858 64.5879 83.3783 64.2545C81.9152 63.9952 80.6003 63.7915 80.6003 62.5136C80.6003 61.4025 81.4707 60.5876 83.0264 60.5876C84.5265 60.5876 85.3599 61.3839 85.4154 62.4581H87.2119C87.1378 60.2913 85.471 58.8467 82.9893 58.8467C80.4521 58.8467 78.7853 60.3653 78.7853 62.5692C78.7853 65.2916 80.9522 65.662 82.8412 65.9954C84.3043 66.2547 85.6006 66.4584 85.6006 67.7362C85.6006 68.9215 84.6561 69.6994 82.9708 69.6994C81.3226 69.6994 80.4151 68.9215 80.378 67.7362H78.5075C78.5631 70.0327 80.3225 71.4402 82.9708 71.4402Z" fill="white" style="mix-blend-mode:soft-light"/>
    <path d="M107.32 71.1995H105.56V59.0875H109.949V60.6617H107.32V71.1995Z" fill="#ECC9F7"/>
    <path d="M107.32 71.1995H105.56V59.0875H109.949V60.6617H107.32V71.1995Z" fill="white" style="mix-blend-mode:soft-light"/>
    <path d="M9.00005 88.2717V97.8061H10.0673V88.2717H9.00005Z" fill="#ECC9F7"/>
    <path d="M9.00005 88.2717V97.8061H10.0673V88.2717H9.00005Z" fill="white" style="mix-blend-mode:soft-light"/>
    <path d="M34.0556 99.5398C37.3151 99.5398 39.1115 97.5767 39.1115 94.5209V87.1871H37.278V94.5209C37.278 96.5581 36.1854 97.799 34.0556 97.799C31.9258 97.799 30.8331 96.5581 30.8331 94.5209V87.1871H28.9441V94.5209C28.9441 97.5952 30.7776 99.5398 34.0556 99.5398Z" fill="#ECC9F7"/>
    <path d="M34.0556 99.5398C37.3151 99.5398 39.1115 97.5767 39.1115 94.5209V87.1871H37.278V94.5209C37.278 96.5581 36.1854 97.799 34.0556 97.799C31.9258 97.799 30.8331 96.5581 30.8331 94.5209V87.1871H28.9441V94.5209C28.9441 97.5952 30.7776 99.5398 34.0556 99.5398Z" fill="white" style="mix-blend-mode:soft-light"/>
    <path d="M63.5802 99.2991H59.265C55.0425 99.2991 52.8201 96.873 52.8201 93.2431C52.8201 89.6132 55.0425 87.1871 59.265 87.1871H63.5802V99.2991ZM61.6911 97.5582V88.928H59.265C56.1722 88.928 54.7277 90.6318 54.7277 93.2431C54.7277 95.8544 56.1722 97.5582 59.265 97.5582H61.6911Z" fill="#ECC9F7"/>
    <path d="M63.5802 99.2991H59.265C55.0425 99.2991 52.8201 96.873 52.8201 93.2431C52.8201 89.6132 55.0425 87.1871 59.265 87.1871H63.5802V99.2991ZM61.6911 97.5582V88.928H59.265C56.1722 88.928 54.7277 90.6318 54.7277 93.2431C54.7277 95.8544 56.1722 97.5582 59.265 97.5582H61.6911Z" fill="white" style="mix-blend-mode:soft-light"/>
    <path d="M82.8324 99.2991H81.073V87.1871H85.4622V88.7613H82.8324V99.2991Z" fill="#ECC9F7"/>
    <path d="M82.8324 99.2991H81.073V87.1871H85.4622V88.7613H82.8324V99.2991Z" fill="white" style="mix-blend-mode:soft-light"/>
    <path d="M110.428 89.2423L103.686 95.9842L104.537 96.8356L111.279 90.0938L110.428 89.2423ZM111.279 95.9842L104.537 89.2423L103.686 90.0938L110.428 96.8356L111.279 95.9842Z" fill="#ECC9F7"/>
    <path d="M110.428 89.2423L103.686 95.9842L104.537 96.8356L111.279 90.0938L110.428 89.2423ZM111.279 95.9842L104.537 89.2423L103.686 90.0938L110.428 96.8356L111.279 95.9842Z" fill="white" style="mix-blend-mode:soft-light"/>
</svg>
