<svg width="134" height="31" viewBox="0 0 134 31" fill="none" xmlns="http://www.w3.org/2000/svg">
    <path d="M44.709 9.55608C44.709 4.79862 48.2474 1.2998 53.2573 1.2998C57.187 1.2998 60.2116 3.43605 61.3385 6.66927H57.8351C57.3698 5.88143 56.6961 5.23396 55.8864 4.79651C55.0767 4.35906 54.1617 4.1482 53.2398 4.18661C50.0459 4.18661 47.8854 6.44988 47.8854 9.55608C47.8854 12.6623 50.0459 14.9486 53.2398 14.9486C55.7447 14.9486 57.5899 13.7939 58.3723 11.6461H52.2764V8.87479H61.7648V10.3586C61.3969 14.7062 57.9577 17.8181 53.2398 17.8181C48.2474 17.8181 44.709 14.3193 44.709 9.55608Z" fill="white"/>
    <path d="M63.6747 10.5329C63.6747 6.91284 65.8352 5.18652 69.0057 5.18652C72.1763 5.18652 74.3076 6.91862 74.3076 10.5791V10.6541H71.3881V10.5329C71.3881 8.58719 70.4071 7.8828 68.9824 7.8828C67.5577 7.8828 66.5709 8.58719 66.5709 10.5329V17.5017H63.6514L63.6747 10.5329Z" fill="white"/>
    <path d="M75.3877 11.6124C75.3877 7.79603 78.0912 5.1748 81.9508 5.1748C85.8104 5.1748 88.4087 7.72675 88.4087 11.5893V17.5015H85.7345V15.1458C85.3831 15.9756 84.7812 16.6777 84.0109 17.1562C83.2405 17.6347 82.3395 17.8662 81.4311 17.819C78.4824 17.819 75.3877 15.729 75.3877 11.6124ZM85.4892 11.4911C85.4731 10.7941 85.2491 10.1172 84.8454 9.5456C84.4417 8.97395 83.8762 8.53295 83.2199 8.27796C82.5636 8.02296 81.8457 7.96533 81.1564 8.11229C80.4671 8.25925 79.837 8.60427 79.3453 9.10402C78.8536 9.60378 78.5221 10.236 78.3925 10.9214C78.2629 11.6067 78.3409 12.3147 78.6167 12.9564C78.8925 13.5981 79.3539 14.1449 79.9429 14.5283C80.5319 14.9116 81.2223 15.1144 81.9274 15.1112C82.4073 15.1282 82.8854 15.0457 83.3312 14.8692C83.7769 14.6927 84.1804 14.426 84.5158 14.0862C84.8512 13.7464 85.111 13.3411 85.2787 12.8962C85.4463 12.4513 85.518 11.9766 85.4892 11.5027V11.4911Z" fill="white"/>
    <path d="M89.3896 5.50342H92.5836L95.9527 14.8509L99.316 5.50342H102.434L97.6694 17.501H94.166L89.3896 5.50342Z" fill="white"/>
    <path d="M104.005 2.02793C103.99 1.76697 104.03 1.50584 104.121 1.26048C104.212 1.01512 104.353 0.790673 104.534 0.600876C104.716 0.411079 104.935 0.259908 105.178 0.156595C105.421 0.0532816 105.682 0 105.946 0C106.211 0 106.472 0.0532816 106.715 0.156595C106.958 0.259908 107.177 0.411079 107.358 0.600876C107.54 0.790673 107.681 1.01512 107.772 1.26048C107.863 1.50584 107.902 1.76697 107.888 2.02793C107.861 2.51887 107.644 2.98083 107.283 3.31885C106.922 3.65686 106.444 3.84523 105.946 3.84523C105.449 3.84523 104.971 3.65686 104.61 3.31885C104.249 2.98083 104.032 2.51887 104.005 2.02793ZM104.472 5.4921H107.392V17.5012H104.472V5.4921Z" fill="white"/>
    <path d="M110.229 12.8882V1.24854H113.149V5.50369H119.414V8.14801H113.149V12.9112C113.149 14.5105 113.984 15.1456 115.187 15.1456C116.39 15.1456 117.23 14.5394 117.23 12.9112V12.5937H120.15V12.9112C120.15 16.2369 118.136 17.8419 115.187 17.8419C112.238 17.8419 110.229 16.2311 110.229 12.8882Z" fill="white"/>
    <path d="M131.075 5.50342V11.6119C131.075 13.8405 129.802 14.9837 128.004 14.9837C126.205 14.9837 124.932 13.8925 124.932 11.6119V5.50342H122.013V11.6119C122.013 15.8844 124.664 17.6858 127.466 17.6858C128.2 17.7154 128.927 17.5406 129.565 17.1812C130.203 16.8219 130.726 16.2925 131.075 15.6534V17.1546C131.075 19.464 129.965 20.4167 128.004 20.434V22.9398C131.349 22.9398 134 21.2365 134 17.0853V5.50342H131.075Z" fill="white"/>
    <path d="M49.1116 24.0368H46.9512V23.4595H51.9202V24.0368H49.7597V29.5506H49.1116V24.0368Z" fill="white"/>
    <path d="M60.7204 23.4771V29.5509H60.0781V26.7507H56.236V29.5509H55.5879V23.4771H56.236V26.1849H60.0781V23.4771H60.7204Z" fill="white"/>
    <path d="M69.6948 28.9966V29.574H65.3506V23.4771H69.5605V24.0544H65.9987V26.2137H69.1752V26.7565H65.9987V29.0139L69.6948 28.9966Z" fill="white"/>
    <path d="M78.1963 28.8181L78.4474 28.3215C79.0069 28.8074 79.7289 29.0708 80.4735 29.0605C81.6413 29.0605 82.126 28.5813 82.126 27.9809C82.126 26.3181 78.3423 27.34 78.3423 25.0941C78.3423 24.1992 79.0429 23.4255 80.6078 23.4255C81.2824 23.4182 81.9442 23.6069 82.5113 23.9682L82.2894 24.4763C81.7877 24.1562 81.2049 23.9821 80.6078 23.974C79.4867 23.974 78.9845 24.4705 78.9845 25.0768C78.9845 26.7396 82.7682 25.7349 82.7682 27.9636C82.7682 28.8585 82.0442 29.6206 80.4735 29.6206C79.6395 29.6448 78.8268 29.3583 78.1963 28.8181V28.8181Z" fill="white"/>
    <path d="M87.9124 24.0368H85.7578V23.4595H90.721V24.0368H88.5664V29.5506H87.9124V24.0368Z" fill="white"/>
    <path d="M94.2129 26.9583V23.4941H94.861V26.9583C94.861 28.3959 95.55 29.0541 96.7412 29.0541C97.9323 29.0541 98.6272 28.3959 98.6272 26.9583V23.4941H99.2578V26.9583C99.2578 28.6904 98.3119 29.6026 96.7412 29.6026C95.1705 29.6026 94.2129 28.7019 94.2129 26.9583Z" fill="white"/>
    <path d="M103.848 23.4771H106.347C108.315 23.4771 109.64 24.7299 109.64 26.514C109.64 28.298 108.315 29.5509 106.347 29.5509H103.848V23.4771ZM106.312 28.9966C107.947 28.9966 108.998 27.9747 108.998 26.514C108.998 25.0532 107.947 24.0371 106.312 24.0371H104.496V28.9966H106.312Z" fill="white"/>
    <path d="M113.732 23.4771H114.381V29.5509H113.732V23.4771Z" fill="white"/>
    <path d="M118.462 26.5137C118.443 25.8798 118.615 25.2545 118.956 24.7177C119.298 24.181 119.794 23.7573 120.38 23.5008C120.967 23.2443 121.618 23.1667 122.249 23.2779C122.881 23.3891 123.464 23.684 123.925 24.125C124.386 24.566 124.704 25.1329 124.837 25.7533C124.97 26.3736 124.913 27.0192 124.673 27.6074C124.434 28.1956 124.022 28.6996 123.49 29.0551C122.959 29.4105 122.333 29.6011 121.691 29.6026C121.271 29.6215 120.851 29.5553 120.458 29.4081C120.065 29.2609 119.706 29.0358 119.403 28.7466C119.101 28.4574 118.862 28.1101 118.7 27.7262C118.538 27.3422 118.457 26.9296 118.462 26.5137V26.5137ZM124.261 26.5137C124.268 26.0071 124.122 25.5099 123.842 25.0854C123.562 24.661 123.161 24.3285 122.689 24.1303C122.218 23.9322 121.697 23.8774 121.194 23.9728C120.691 24.0683 120.227 24.3097 119.863 24.6664C119.499 25.023 119.251 25.4787 119.15 25.9754C119.049 26.4721 119.099 26.9874 119.296 27.4555C119.492 27.9236 119.824 28.3235 120.251 28.604C120.678 28.8846 121.179 29.0332 121.691 29.031C122.029 29.0405 122.364 28.982 122.678 28.8589C122.991 28.7359 123.276 28.5509 123.515 28.3153C123.754 28.0797 123.942 27.7984 124.067 27.4887C124.192 27.1789 124.252 26.8472 124.243 26.5137H124.261Z" fill="white"/>
    <path d="M11.0066 22.8137C8.82607 22.8091 6.69585 22.1656 4.88506 20.9644C3.07428 19.7633 1.66417 18.0583 0.832916 16.065C0.00166625 14.0718 -0.213427 11.8796 0.214799 9.76548C0.643026 7.65137 1.69535 5.71021 3.23884 4.18723C4.78233 2.66426 6.74772 1.62782 8.88668 1.20886C11.0256 0.789905 13.2422 1.00723 15.2563 1.83338C17.2704 2.65953 18.9916 4.05745 20.2026 5.85049C21.4136 7.64353 22.0599 9.75124 22.0599 11.9073C22.0583 13.3411 21.7712 14.7605 21.2149 16.0846C20.6586 17.4086 19.844 18.6113 18.8176 19.6241C17.7912 20.6368 16.5731 21.4398 15.2329 21.987C13.8927 22.5343 12.4566 22.8152 11.0066 22.8137V22.8137ZM11.0066 4.54596C9.53415 4.54596 8.09478 4.9777 6.87049 5.78658C5.64621 6.59546 4.69199 7.74514 4.12851 9.09026C3.56503 10.4354 3.41761 11.9155 3.70487 13.3435C3.99213 14.7714 4.70116 16.0831 5.74233 17.1126C6.7835 18.1421 8.11005 18.8432 9.55419 19.1273C10.9983 19.4113 12.4952 19.2655 13.8556 18.7083C15.2159 18.1512 16.3786 17.2077 17.1967 15.9971C18.0147 14.7865 18.4514 13.3633 18.4514 11.9073C18.4498 9.95544 17.6649 8.08394 16.2691 6.70375C14.8733 5.32356 12.9806 4.54749 11.0066 4.54596V4.54596Z" fill="white"/>
    <path d="M21.1374 26.3057H0.870117V30.4223H21.1374V26.3057Z" fill="white"/>
    <path d="M27.187 31.0001C28.6575 31.0001 29.8496 29.9274 29.8496 28.6041C29.8496 27.2808 28.6575 26.208 27.187 26.208C25.7165 26.208 24.5244 27.2808 24.5244 28.6041C24.5244 29.9274 25.7165 31.0001 27.187 31.0001Z" fill="white"/>
    <path d="M29.8486 3.19495V26.2894H24.5234V3.19495C24.5234 1.98249 25.6912 1.00098 27.186 1.00098C28.6808 1.00098 29.8486 1.98249 29.8486 3.19495Z" fill="url(#paint0_linear_1711_3198)"/>
    <path d="M29.8496 26.208H24.5244V28.6041H29.8496V26.208Z" fill="white"/>
    <defs>
        <linearGradient id="paint0_linear_1711_3198" x1="27.186" y1="1.00098" x2="27.186" y2="26.2837" gradientUnits="userSpaceOnUse">
            <stop stop-color="white" stop-opacity="0"/>
            <stop offset="0.12" stop-color="white" stop-opacity="0.02"/>
            <stop offset="0.25" stop-color="white" stop-opacity="0.07"/>
            <stop offset="0.37" stop-color="white" stop-opacity="0.15"/>
            <stop offset="0.5" stop-color="white" stop-opacity="0.26"/>
            <stop offset="0.63" stop-color="white" stop-opacity="0.41"/>
            <stop offset="0.76" stop-color="white" stop-opacity="0.59"/>
            <stop offset="0.89" stop-color="white" stop-opacity="0.8"/>
            <stop offset="1" stop-color="white"/>
        </linearGradient>
    </defs>
</svg>