<svg width="125" height="31" viewBox="0 0 125 31" fill="none" xmlns="http://www.w3.org/2000/svg">
    <path d="M42.4121 9.85686C42.4121 5.40464 45.6852 2.13135 50.3297 2.13135C53.9643 2.13135 56.7476 4.13113 57.8049 7.15445H54.5791C53.7819 5.72217 52.2382 4.83376 50.3297 4.83376C47.3775 4.83376 45.3778 6.94839 45.3778 9.85686C45.3778 12.7653 47.3674 14.9002 50.3297 14.9002C52.6469 14.9002 54.3527 13.8328 55.079 11.8093H49.411V9.22179H58.1933V10.6068C57.8556 14.6604 54.6736 17.5824 50.3095 17.5824C45.6852 17.5824 42.4121 14.3091 42.4121 9.85686Z" fill="white"/>
    <path d="M59.9531 10.7656C59.9531 7.38756 61.9528 5.76611 64.8814 5.76611C67.81 5.76611 69.7894 7.3808 69.7894 10.8095V10.8804H67.1107V10.7656C67.1107 8.9482 66.2021 8.28949 64.8814 8.28949C63.5606 8.28949 62.6554 8.9482 62.6554 10.7656V17.2885H59.9531V10.7656Z" fill="white"/>
    <path d="M70.7891 11.7891C70.7891 8.22193 73.2887 5.76611 76.8692 5.76611C80.4497 5.76611 82.8445 8.15099 82.8445 11.7655V17.2885H80.3686V15.0827C79.693 16.7413 78.1629 17.5824 76.3929 17.5824C73.6366 17.5824 70.7891 15.6299 70.7891 11.7891ZM80.1288 11.6743C80.1288 9.69812 78.8114 8.29624 76.832 8.29624C74.8526 8.29624 73.515 9.70487 73.515 11.6743C73.515 13.6436 74.8661 15.0523 76.832 15.0523C78.7979 15.0523 80.1288 13.6504 80.1288 11.6743Z" fill="white"/>
    <path d="M83.7402 6.08057H86.6925L89.8068 14.8262L92.9178 6.08057H95.8058L91.3978 17.2888H88.1618L83.7402 6.08057Z" fill="white"/>
    <path d="M97.2578 2.8137C97.2578 1.82395 98.0584 1.01998 99.0481 1.0166C100.038 1.0166 100.842 1.81719 100.845 2.80695C100.845 3.80008 100.045 4.60405 99.0548 4.60743C98.0651 4.60743 97.2612 3.80684 97.2578 2.81708V2.8137ZM97.6868 6.07686H100.389V17.2885H97.6868V6.08024V6.07686Z" fill="white"/>
    <path d="M103.004 12.9718V2.08447H105.706V6.08066H111.503V8.53309H105.726V12.9718C105.726 14.4683 106.5 15.0594 107.611 15.0594C108.723 15.0594 109.496 14.4919 109.496 12.9718V12.6745H112.198V12.9718C112.198 16.0829 110.334 17.5828 107.608 17.5828C104.882 17.5828 103.004 16.0829 103.004 12.9718Z" fill="white"/>
    <path d="M122.278 6.08057V11.7658C122.278 13.8534 121.102 14.9242 119.44 14.9242C117.779 14.9242 116.6 13.9108 116.6 11.7658V6.08057H113.897V11.7658C113.897 15.7653 116.35 17.4476 118.944 17.4476C120.322 17.505 121.616 16.7753 122.278 15.5626V16.9679C122.278 19.1332 121.265 20.0081 119.44 20.0351V22.3795C122.531 22.3795 124.987 20.7884 124.987 16.9037V6.08057H122.278Z" fill="white"/>
    <path d="M11.0624 0.793945C4.9519 0.793945 0 5.74611 0 11.8569C0 17.9677 4.9519 22.9199 11.0624 22.9199C17.1729 22.9199 22.1248 17.9677 22.1248 11.8569C22.118 5.74949 17.1695 0.800701 11.0624 0.793945ZM18.318 11.8569C18.318 15.8632 15.0685 19.1129 11.0624 19.1129C7.05629 19.1129 3.80682 15.8632 3.80682 11.8569C3.80682 7.85061 7.05629 4.60096 11.0624 4.60096C15.0685 4.60434 18.3146 7.85061 18.318 11.8569Z" fill="white"/>
    <path d="M21.1118 26.2979H1.01367V30.4224H21.1118V26.2979Z" fill="white"/>
    <path d="M29.7483 26.1997V28.6015C29.7483 29.9257 28.5661 30.9999 27.1068 30.9999C25.6476 30.9999 24.4688 29.9257 24.4688 28.6015V26.1997H29.7483Z" fill="white"/>
    <path d="M29.7483 2.28016V26.1999H24.4688V2.28016C24.4688 1.0134 25.651 0 27.1068 0C28.5627 0 29.7483 1.0134 29.7483 2.28016Z" fill="url(#paint0_linear_2496_4966)"/>
    <path d="M44.6377 30.402V23.0244H45.8841V29.2197H49.2518V30.402H44.6411H44.6377Z" fill="white"/>
    <path d="M62.6721 23.0244L65.9216 30.402H64.5502L63.8003 28.7231H60.2638L59.5477 30.402H58.2168L61.4663 23.0244H62.6688H62.6721ZM63.3072 27.5712L62.0405 24.7337L60.7839 27.5712H63.3072Z" fill="white"/>
    <path d="M78.2167 26.3788L80.2333 23.0244H81.5945L78.8281 27.4868V30.3986H77.5817V27.4868L74.8389 23.0244H76.2001L78.2167 26.3788Z" fill="white"/>
    <path d="M96.6392 23.0244V24.1966H92.704V26.1491H96.2406V27.2571H92.704V29.2298H96.7675V30.402H91.4609V23.0244H96.6425H96.6392Z" fill="white"/>
    <path d="M112.998 25.4194C112.998 26.6355 112.468 27.4023 111.404 27.7198L113.336 30.402H111.752L109.989 27.9225H108.354V30.402H107.107V23.0244H109.85C110.975 23.0244 111.782 23.2136 112.265 23.5953C112.752 23.9736 112.995 24.5851 112.995 25.4228L112.998 25.4194ZM111.343 26.4632C111.597 26.2437 111.722 25.8957 111.722 25.4127C111.722 24.9296 111.59 24.5986 111.33 24.4195C111.07 24.2405 110.603 24.1493 109.938 24.1493H108.354V26.7875H109.904C110.607 26.7875 111.087 26.6794 111.34 26.4599L111.343 26.4632Z" fill="white"/>
    <defs>
        <linearGradient id="paint0_linear_2496_4966" x1="27.1102" y1="0" x2="27.1102" y2="26.1999" gradientUnits="userSpaceOnUse">
            <stop stop-color="white" stop-opacity="0"/>
            <stop offset="1" stop-color="white"/>
        </linearGradient>
    </defs>
</svg>
