<svg width="20" height="112" viewBox="0 0 20 112" fill="none" xmlns="http://www.w3.org/2000/svg">
    <path d="M13.411 5.49941L6.66917 12.2413L7.52061 13.0927L14.2625 6.35085L13.411 5.49941ZM14.2625 12.2413L7.52061 5.49941L6.66917 6.35085L13.411 13.0927L14.2625 12.2413Z" fill="#ECC9F7"/>
    <path d="M13.411 5.49941L6.66917 12.2413L7.52061 13.0927L14.2625 6.35085L13.411 5.49941ZM14.2625 12.2413L7.52061 5.49941L6.66917 6.35085L13.411 13.0927L14.2625 12.2413Z" fill="white" style="mix-blend-mode:soft-light"/>
    <path d="M13.411 28.3544L6.66917 35.0962L7.52061 35.9477L14.2625 29.2058L13.411 28.3544ZM14.2625 35.0962L7.52061 28.3544L6.66917 29.2058L13.411 35.9477L14.2625 35.0962Z" fill="#ECC9F7"/>
    <path d="M13.411 28.3544L6.66917 35.0962L7.52061 35.9477L14.2625 29.2058L13.411 28.3544ZM14.2625 35.0962L7.52061 28.3544L6.66917 29.2058L13.411 35.9477L14.2625 35.0962Z" fill="white" style="mix-blend-mode:soft-light"/>
    <path d="M13.411 51.2096L6.66917 57.9515L7.52061 58.8029L14.2625 52.0611L13.411 51.2096ZM14.2625 57.9515L7.52061 51.2096L6.66917 52.0611L13.411 58.8029L14.2625 57.9515Z" fill="#ECC9F7"/>
    <path d="M13.411 51.2096L6.66917 57.9515L7.52061 58.8029L14.2625 52.0611L13.411 51.2096ZM14.2625 57.9515L7.52061 51.2096L6.66917 52.0611L13.411 58.8029L14.2625 57.9515Z" fill="white" style="mix-blend-mode:soft-light"/>
    <path d="M13.411 74.0648L6.66917 80.8067L7.52061 81.6581L14.2625 74.9163L13.411 74.0648ZM14.2625 80.8067L7.52061 74.0648L6.66917 74.9163L13.411 81.6581L14.2625 80.8067Z" fill="#ECC9F7"/>
    <path d="M13.411 74.0648L6.66917 80.8067L7.52061 81.6581L14.2625 74.9163L13.411 74.0648ZM14.2625 80.8067L7.52061 74.0648L6.66917 74.9163L13.411 81.6581L14.2625 80.8067Z" fill="white" style="mix-blend-mode:soft-light"/>
    <path d="M15.2324 100.114L5.698 100.114L5.698 101.318L15.2324 101.318L15.2324 100.114ZM11.0673 105.483L11.0673 95.9487L9.86315 95.9487L9.86315 105.483L11.0673 105.483Z" fill="#ECC9F7"/>
    <path d="M15.2324 100.114L5.698 100.114L5.698 101.318L15.2324 101.318L15.2324 100.114ZM11.0673 105.483L11.0673 95.9487L9.86315 95.9487L9.86315 105.483L11.0673 105.483Z" fill="white" style="mix-blend-mode:soft-light"/>
</svg>
