<svg viewBox="0 0 187 137" fill="none" xmlns="http://www.w3.org/2000/svg">
    <path d="M13.4912 19C13.2689 19 13.0775 18.9259 12.917 18.7778C12.7689 18.6296 12.6948 18.4382 12.6948 18.2036V6.4065L11.0095 7.01765C10.849 7.09173 10.7008 7.12877 10.565 7.12877C10.3304 7.12877 10.1391 7.05469 9.99091 6.90653C9.84275 6.75837 9.76867 6.57317 9.76867 6.35094C9.76867 6.19043 9.80571 6.04227 9.87979 5.90646C9.96621 5.77065 10.102 5.67187 10.2872 5.61014L13.1393 4.61007C13.201 4.58538 13.2627 4.56686 13.3245 4.55451C13.3986 4.52982 13.4603 4.51747 13.5097 4.51747C13.7443 4.51747 13.9295 4.59772 14.0653 4.75823C14.2134 4.90639 14.2875 5.09159 14.2875 5.31382V18.2036C14.2875 18.4382 14.2073 18.6296 14.0468 18.7778C13.8986 18.9259 13.7134 19 13.4912 19Z" fill="#ECC9F7"/>
    <path d="M13.4912 19C13.2689 19 13.0775 18.9259 12.917 18.7778C12.7689 18.6296 12.6948 18.4382 12.6948 18.2036V6.4065L11.0095 7.01765C10.849 7.09173 10.7008 7.12877 10.565 7.12877C10.3304 7.12877 10.1391 7.05469 9.99091 6.90653C9.84275 6.75837 9.76867 6.57317 9.76867 6.35094C9.76867 6.19043 9.80571 6.04227 9.87979 5.90646C9.96621 5.77065 10.102 5.67187 10.2872 5.61014L13.1393 4.61007C13.201 4.58538 13.2627 4.56686 13.3245 4.55451C13.3986 4.52982 13.4603 4.51747 13.5097 4.51747C13.7443 4.51747 13.9295 4.59772 14.0653 4.75823C14.2134 4.90639 14.2875 5.09159 14.2875 5.31382V18.2036C14.2875 18.4382 14.2073 18.6296 14.0468 18.7778C13.8986 18.9259 13.7134 19 13.4912 19Z" fill="white" style="mix-blend-mode:soft-light"/>
    <path d="M41.1131 19C40.8785 19 40.6748 18.9259 40.5019 18.7778C40.3414 18.6296 40.2612 18.4382 40.2612 18.2036V5.33234C40.2612 5.09776 40.3352 4.90639 40.4834 4.75823C40.6316 4.61007 40.8229 4.53599 41.0575 4.53599H45.5393C46.3048 4.53599 46.99 4.69649 47.595 5.01751C48.2123 5.33852 48.7 5.77682 49.0581 6.33242C49.4161 6.87566 49.5952 7.51151 49.5952 8.23996C49.5952 8.89433 49.4161 9.47462 49.0581 9.98083C48.7124 10.487 48.2556 10.8821 47.6876 11.1661C48.5025 11.376 49.163 11.7834 49.6692 12.3884C50.1755 12.981 50.4286 13.7465 50.4286 14.6849C50.4286 15.5368 50.231 16.2838 49.8359 16.9258C49.4532 17.5678 48.9161 18.074 48.2247 18.4444C47.5456 18.8148 46.7616 19 45.8727 19H41.1131ZM41.8539 17.4999H45.8727C46.453 17.4999 46.9653 17.3888 47.4098 17.1665C47.8666 16.9319 48.2247 16.6109 48.484 16.2035C48.7433 15.7837 48.8729 15.2775 48.8729 14.6849C48.8729 14.1416 48.7433 13.6725 48.484 13.2774C48.2247 12.8823 47.8666 12.5798 47.4098 12.3699C46.9653 12.16 46.453 12.0551 45.8727 12.0551H41.8539V17.4999ZM41.8539 10.5364H45.5393C46.2678 10.5364 46.8666 10.3389 47.3357 9.94379C47.8049 9.5487 48.0395 8.98076 48.0395 8.23996C48.0395 7.51151 47.8049 6.96209 47.3357 6.59169C46.8666 6.2213 46.2678 6.0361 45.5393 6.0361H41.8539V10.5364Z" fill="#ECC9F7"/>
    <path d="M41.1131 19C40.8785 19 40.6748 18.9259 40.5019 18.7778C40.3414 18.6296 40.2612 18.4382 40.2612 18.2036V5.33234C40.2612 5.09776 40.3352 4.90639 40.4834 4.75823C40.6316 4.61007 40.8229 4.53599 41.0575 4.53599H45.5393C46.3048 4.53599 46.99 4.69649 47.595 5.01751C48.2123 5.33852 48.7 5.77682 49.0581 6.33242C49.4161 6.87566 49.5952 7.51151 49.5952 8.23996C49.5952 8.89433 49.4161 9.47462 49.0581 9.98083C48.7124 10.487 48.2556 10.8821 47.6876 11.1661C48.5025 11.376 49.163 11.7834 49.6692 12.3884C50.1755 12.981 50.4286 13.7465 50.4286 14.6849C50.4286 15.5368 50.231 16.2838 49.8359 16.9258C49.4532 17.5678 48.9161 18.074 48.2247 18.4444C47.5456 18.8148 46.7616 19 45.8727 19H41.1131ZM41.8539 17.4999H45.8727C46.453 17.4999 46.9653 17.3888 47.4098 17.1665C47.8666 16.9319 48.2247 16.6109 48.484 16.2035C48.7433 15.7837 48.8729 15.2775 48.8729 14.6849C48.8729 14.1416 48.7433 13.6725 48.484 13.2774C48.2247 12.8823 47.8666 12.5798 47.4098 12.3699C46.9653 12.16 46.453 12.0551 45.8727 12.0551H41.8539V17.4999ZM41.8539 10.5364H45.5393C46.2678 10.5364 46.8666 10.3389 47.3357 9.94379C47.8049 9.5487 48.0395 8.98076 48.0395 8.23996C48.0395 7.51151 47.8049 6.96209 47.3357 6.59169C46.8666 6.2213 46.2678 6.0361 45.5393 6.0361H41.8539V10.5364Z" fill="white" style="mix-blend-mode:soft-light"/>
    <path d="M79.4938 10.2403C78.8764 10.8329 78.1233 11.1292 77.2343 11.1292C76.3454 11.1292 75.5922 10.8329 74.9749 10.2403C74.3576 9.63527 74.0489 8.86361 74.0489 7.92527C74.0489 6.99928 74.3576 6.24613 74.9749 5.66585C75.5922 5.07321 76.3454 4.77689 77.2343 4.77689C78.1233 4.77689 78.8764 5.07321 79.4938 5.66585C80.1111 6.24613 80.4197 6.99928 80.4197 7.92527C80.4197 8.86361 80.1111 9.63527 79.4938 10.2403ZM77.2343 9.90689C77.7776 9.90689 78.2344 9.72787 78.6048 9.36982C78.9875 8.99942 79.1789 8.5179 79.1789 7.92527C79.1789 7.35733 78.9875 6.89433 78.6048 6.53628C78.2344 6.17823 77.7776 5.9992 77.2343 5.9992C76.6787 5.9992 76.2157 6.17823 75.8453 6.53628C75.4749 6.89433 75.2897 7.35733 75.2897 7.92527C75.2897 8.5179 75.4749 8.99942 75.8453 9.36982C76.2157 9.72787 76.6787 9.90689 77.2343 9.90689ZM74.2712 13.0367V12.0922H80.3271V13.0367H74.2712Z" fill="#ECC9F7"/>
    <path d="M79.4938 10.2403C78.8764 10.8329 78.1233 11.1292 77.2343 11.1292C76.3454 11.1292 75.5922 10.8329 74.9749 10.2403C74.3576 9.63527 74.0489 8.86361 74.0489 7.92527C74.0489 6.99928 74.3576 6.24613 74.9749 5.66585C75.5922 5.07321 76.3454 4.77689 77.2343 4.77689C78.1233 4.77689 78.8764 5.07321 79.4938 5.66585C80.1111 6.24613 80.4197 6.99928 80.4197 7.92527C80.4197 8.86361 80.1111 9.63527 79.4938 10.2403ZM77.2343 9.90689C77.7776 9.90689 78.2344 9.72787 78.6048 9.36982C78.9875 8.99942 79.1789 8.5179 79.1789 7.92527C79.1789 7.35733 78.9875 6.89433 78.6048 6.53628C78.2344 6.17823 77.7776 5.9992 77.2343 5.9992C76.6787 5.9992 76.2157 6.17823 75.8453 6.53628C75.4749 6.89433 75.2897 7.35733 75.2897 7.92527C75.2897 8.5179 75.4749 8.99942 75.8453 9.36982C76.2157 9.72787 76.6787 9.90689 77.2343 9.90689ZM74.2712 13.0367V12.0922H80.3271V13.0367H74.2712Z" fill="white" style="mix-blend-mode:soft-light"/>
    <path d="M114.55 19C114.785 19 114.964 18.9321 115.088 18.7963C115.211 18.6481 115.279 18.4753 115.291 18.2777C115.304 18.0678 115.242 17.8826 115.106 17.7221L110.328 11.2402L109.606 10.629L105.291 4.79527C105.142 4.62242 104.945 4.53599 104.698 4.53599C104.488 4.53599 104.321 4.61007 104.198 4.75823C104.062 4.89404 103.988 5.06072 103.976 5.25826C103.963 5.44346 104.013 5.61631 104.124 5.77682L108.661 11.9069L109.346 12.481L113.995 18.7592C114.143 18.9197 114.328 19 114.55 19ZM104.642 19C104.753 19 104.865 18.9753 104.976 18.9259C105.075 18.8765 105.167 18.8025 105.254 18.7037L109.772 12.444L110.384 11.981L114.828 5.77682C114.952 5.61631 115.007 5.43729 114.995 5.23974C114.97 5.0422 114.896 4.87552 114.773 4.73971C114.649 4.6039 114.476 4.53599 114.254 4.53599C113.995 4.53599 113.797 4.62242 113.662 4.79527L109.383 10.7216L108.809 11.1476L104.068 17.7221C103.945 17.8826 103.889 18.0678 103.902 18.2777C103.902 18.4753 103.969 18.6481 104.105 18.7963C104.229 18.9321 104.408 19 104.642 19Z" fill="#ECC9F7"/>
    <path d="M114.55 19C114.785 19 114.964 18.9321 115.088 18.7963C115.211 18.6481 115.279 18.4753 115.291 18.2777C115.304 18.0678 115.242 17.8826 115.106 17.7221L110.328 11.2402L109.606 10.629L105.291 4.79527C105.142 4.62242 104.945 4.53599 104.698 4.53599C104.488 4.53599 104.321 4.61007 104.198 4.75823C104.062 4.89404 103.988 5.06072 103.976 5.25826C103.963 5.44346 104.013 5.61631 104.124 5.77682L108.661 11.9069L109.346 12.481L113.995 18.7592C114.143 18.9197 114.328 19 114.55 19ZM104.642 19C104.753 19 104.865 18.9753 104.976 18.9259C105.075 18.8765 105.167 18.8025 105.254 18.7037L109.772 12.444L110.384 11.981L114.828 5.77682C114.952 5.61631 115.007 5.43729 114.995 5.23974C114.97 5.0422 114.896 4.87552 114.773 4.73971C114.649 4.6039 114.476 4.53599 114.254 4.53599C113.995 4.53599 113.797 4.62242 113.662 4.79527L109.383 10.7216L108.809 11.1476L104.068 17.7221C103.945 17.8826 103.889 18.0678 103.902 18.2777C103.902 18.4753 103.969 18.6481 104.105 18.7963C104.229 18.9321 104.408 19 104.642 19Z" fill="white" style="mix-blend-mode:soft-light"/>
    <path d="M142.252 18C142.03 18 141.839 17.9259 141.678 17.7778C141.53 17.6296 141.456 17.4382 141.456 17.2036V5.4065L139.771 6.01765C139.61 6.09173 139.462 6.12877 139.326 6.12877C139.092 6.12877 138.9 6.05469 138.752 5.90653C138.604 5.75837 138.53 5.57317 138.53 5.35094C138.53 5.19043 138.567 5.04227 138.641 4.90646C138.728 4.77065 138.863 4.67187 139.049 4.61014L141.901 3.61007C141.962 3.58538 142.024 3.56686 142.086 3.55451C142.16 3.52982 142.222 3.51747 142.271 3.51747C142.506 3.51747 142.691 3.59772 142.827 3.75823C142.975 3.90639 143.049 4.09159 143.049 4.31382V17.2036C143.049 17.4382 142.969 17.6296 142.808 17.7778C142.66 17.9259 142.475 18 142.252 18Z" fill="#ECC9F7"/>
    <path d="M142.252 18C142.03 18 141.839 17.9259 141.678 17.7778C141.53 17.6296 141.456 17.4382 141.456 17.2036V5.4065L139.771 6.01765C139.61 6.09173 139.462 6.12877 139.326 6.12877C139.092 6.12877 138.9 6.05469 138.752 5.90653C138.604 5.75837 138.53 5.57317 138.53 5.35094C138.53 5.19043 138.567 5.04227 138.641 4.90646C138.728 4.77065 138.863 4.67187 139.049 4.61014L141.901 3.61007C141.962 3.58538 142.024 3.56686 142.086 3.55451C142.16 3.52982 142.222 3.51747 142.271 3.51747C142.506 3.51747 142.691 3.59772 142.827 3.75823C142.975 3.90639 143.049 4.09159 143.049 4.31382V17.2036C143.049 17.4382 142.969 17.6296 142.808 17.7778C142.66 17.9259 142.475 18 142.252 18Z" fill="white" style="mix-blend-mode:soft-light"/>
    <path d="M11.6915 56.1086C11.9137 56.1086 12.1051 56.0346 12.2656 55.8864C12.4137 55.7382 12.4878 55.5469 12.4878 55.3123V43.5151L14.1731 44.1263C14.3336 44.2004 14.4818 44.2374 14.6176 44.2374C14.8522 44.2374 15.0436 44.1633 15.1917 44.0152C15.3399 43.867 15.4139 43.6818 15.4139 43.4596C15.4139 43.2991 15.3769 43.1509 15.3028 43.0151C15.2164 42.8793 15.0806 42.7805 14.8954 42.7188L12.0433 41.7187C11.9816 41.694 11.9199 41.6755 11.8581 41.6632C11.7841 41.6385 11.7223 41.6261 11.6729 41.6261C11.4384 41.6261 11.2532 41.7064 11.1173 41.8669C10.9692 42.015 10.8951 42.2002 10.8951 42.4225V55.3123C10.8951 55.5469 10.9754 55.7382 11.1359 55.8864C11.284 56.0346 11.4692 56.1086 11.6915 56.1086Z" fill="#ECC9F7"/>
    <path d="M11.6915 56.1086C11.9137 56.1086 12.1051 56.0346 12.2656 55.8864C12.4137 55.7382 12.4878 55.5469 12.4878 55.3123V43.5151L14.1731 44.1263C14.3336 44.2004 14.4818 44.2374 14.6176 44.2374C14.8522 44.2374 15.0436 44.1633 15.1917 44.0152C15.3399 43.867 15.4139 43.6818 15.4139 43.4596C15.4139 43.2991 15.3769 43.1509 15.3028 43.0151C15.2164 42.8793 15.0806 42.7805 14.8954 42.7188L12.0433 41.7187C11.9816 41.694 11.9199 41.6755 11.8581 41.6632C11.7841 41.6385 11.7223 41.6261 11.6729 41.6261C11.4384 41.6261 11.2532 41.7064 11.1173 41.8669C10.9692 42.015 10.8951 42.2002 10.8951 42.4225V55.3123C10.8951 55.5469 10.9754 55.7382 11.1359 55.8864C11.284 56.0346 11.4692 56.1086 11.6915 56.1086Z" fill="white" style="mix-blend-mode:soft-light"/>
    <path d="M44.7247 41.6261C45.5766 41.6261 46.3297 41.8175 46.9841 42.2002C47.6385 42.5706 48.1508 43.083 48.5212 43.7374C48.904 44.3917 49.0953 45.1449 49.0953 45.9968C49.0953 46.824 48.904 47.571 48.5212 48.2377C48.1508 48.9044 47.6385 49.4291 46.9841 49.8119C46.3297 50.1823 45.5766 50.3675 44.7247 50.3675C43.8851 50.3675 43.1381 50.1823 42.4838 49.8119C41.8417 49.4291 41.3294 48.9044 40.9466 48.2377C40.5762 47.571 40.391 46.824 40.391 45.9968C40.391 45.1449 40.5762 44.3917 40.9466 43.7374C41.3294 43.083 41.8417 42.5706 42.4838 42.2002C43.1381 41.8175 43.8851 41.6261 44.7247 41.6261ZM44.7432 43.0707C44.1876 43.0707 43.6937 43.1941 43.2616 43.4411C42.8418 43.688 42.5084 44.0337 42.2615 44.4782C42.0146 44.9226 41.8911 45.4289 41.8911 45.9968C41.8911 46.5524 42.0146 47.0524 42.2615 47.4969C42.5084 47.9414 42.8418 48.2933 43.2616 48.5525C43.6937 48.8118 44.1876 48.9415 44.7432 48.9415C45.2864 48.9415 45.7741 48.8118 46.2062 48.5525C46.6384 48.2933 46.9779 47.9414 47.2248 47.4969C47.4718 47.0524 47.5952 46.5524 47.5952 45.9968C47.5952 45.4289 47.4718 44.9226 47.2248 44.4782C46.9779 44.0337 46.6384 43.688 46.2062 43.4411C45.7741 43.1941 45.2864 43.0707 44.7432 43.0707ZM48.5212 48.2377L44.0394 55.6642C43.8542 55.9481 43.6196 56.0901 43.3357 56.0901C43.1134 56.0901 42.9282 56.0284 42.7801 55.9049C42.6443 55.7815 42.5578 55.6271 42.5208 55.4419C42.4838 55.2444 42.5208 55.053 42.6319 54.8678L45.5395 50.0897L48.5212 48.2377Z" fill="#ECC9F7"/>
    <path d="M44.7247 41.6261C45.5766 41.6261 46.3297 41.8175 46.9841 42.2002C47.6385 42.5706 48.1508 43.083 48.5212 43.7374C48.904 44.3917 49.0953 45.1449 49.0953 45.9968C49.0953 46.824 48.904 47.571 48.5212 48.2377C48.1508 48.9044 47.6385 49.4291 46.9841 49.8119C46.3297 50.1823 45.5766 50.3675 44.7247 50.3675C43.8851 50.3675 43.1381 50.1823 42.4838 49.8119C41.8417 49.4291 41.3294 48.9044 40.9466 48.2377C40.5762 47.571 40.391 46.824 40.391 45.9968C40.391 45.1449 40.5762 44.3917 40.9466 43.7374C41.3294 43.083 41.8417 42.5706 42.4838 42.2002C43.1381 41.8175 43.8851 41.6261 44.7247 41.6261ZM44.7432 43.0707C44.1876 43.0707 43.6937 43.1941 43.2616 43.4411C42.8418 43.688 42.5084 44.0337 42.2615 44.4782C42.0146 44.9226 41.8911 45.4289 41.8911 45.9968C41.8911 46.5524 42.0146 47.0524 42.2615 47.4969C42.5084 47.9414 42.8418 48.2933 43.2616 48.5525C43.6937 48.8118 44.1876 48.9415 44.7432 48.9415C45.2864 48.9415 45.7741 48.8118 46.2062 48.5525C46.6384 48.2933 46.9779 47.9414 47.2248 47.4969C47.4718 47.0524 47.5952 46.5524 47.5952 45.9968C47.5952 45.4289 47.4718 44.9226 47.2248 44.4782C46.9779 44.0337 46.6384 43.688 46.2062 43.4411C45.7741 43.1941 45.2864 43.0707 44.7432 43.0707ZM48.5212 48.2377L44.0394 55.6642C43.8542 55.9481 43.6196 56.0901 43.3357 56.0901C43.1134 56.0901 42.9282 56.0284 42.7801 55.9049C42.6443 55.7815 42.5578 55.6271 42.5208 55.4419C42.4838 55.2444 42.5208 55.053 42.6319 54.8678L45.5395 50.0897L48.5212 48.2377Z" fill="white" style="mix-blend-mode:soft-light"/>
    <path d="M77.1368 56.2938C77.927 56.2938 78.6678 56.1765 79.3592 55.942C80.0383 55.7074 80.6309 55.3802 81.1371 54.9604C81.6433 54.5283 82.0199 54.0282 82.2668 53.4603C82.3779 53.2504 82.3841 53.0529 82.2853 52.8677C82.1742 52.6825 81.9952 52.559 81.7483 52.4973C81.5631 52.4479 81.3779 52.4726 81.1927 52.5713C81.0075 52.6578 80.8717 52.7998 80.7852 52.9973C80.6 53.343 80.3346 53.6578 79.9889 53.9418C79.6308 54.2134 79.211 54.4295 78.7295 54.59C78.2357 54.7382 77.7048 54.8123 77.1368 54.8123C76.4948 54.8123 75.9207 54.7073 75.4145 54.4974C74.9083 54.2875 74.507 53.985 74.2107 53.5899C73.9144 53.1949 73.7662 52.7133 73.7662 52.1454C73.7662 51.4293 74.0378 50.8058 74.5811 50.2749C75.1243 49.7316 75.9886 49.3921 77.1739 49.2563C78.6431 49.0834 79.7975 48.6328 80.6371 47.9043C81.4643 47.1759 81.8779 46.2746 81.8779 45.2004C81.8779 44.435 81.668 43.7744 81.2482 43.2188C80.8285 42.6509 80.2543 42.2187 79.5259 41.9224C78.7974 41.6138 77.9702 41.4594 77.0442 41.4594C76.3405 41.4594 75.7108 41.5706 75.1552 41.7928C74.5996 42.0027 74.1181 42.2867 73.7107 42.6447C73.2909 43.0028 72.9452 43.404 72.6735 43.8485C72.5254 44.0707 72.476 44.2868 72.5254 44.4967C72.5624 44.6942 72.6735 44.8486 72.8587 44.9597C73.0563 45.0585 73.2662 45.077 73.4884 45.0152C73.6983 44.9412 73.8588 44.8054 73.9699 44.6078C74.1551 44.3115 74.3897 44.0399 74.6737 43.7929C74.9453 43.5337 75.2787 43.3299 75.6738 43.1818C76.0688 43.0336 76.538 42.9534 77.0813 42.941C78.032 42.941 78.8098 43.1386 79.4148 43.5337C80.0198 43.9287 80.3222 44.5152 80.3222 45.293C80.3222 45.6881 80.2173 46.0647 80.0074 46.4228C79.7852 46.7685 79.4209 47.0648 78.9147 47.3117C78.3962 47.5586 77.6924 47.7438 76.8035 47.8673C75.2725 48.0648 74.1243 48.5278 73.3588 49.2563C72.5933 49.9847 72.2105 50.9416 72.2105 52.1269C72.2105 52.8059 72.3402 53.4047 72.5995 53.9233C72.8464 54.4419 73.1983 54.8802 73.6551 55.2382C74.1119 55.5839 74.6428 55.8494 75.2478 56.0346C75.8404 56.2074 76.4701 56.2938 77.1368 56.2938Z" fill="#ECC9F7"/>
    <path d="M77.1368 56.2938C77.927 56.2938 78.6678 56.1765 79.3592 55.942C80.0383 55.7074 80.6309 55.3802 81.1371 54.9604C81.6433 54.5283 82.0199 54.0282 82.2668 53.4603C82.3779 53.2504 82.3841 53.0529 82.2853 52.8677C82.1742 52.6825 81.9952 52.559 81.7483 52.4973C81.5631 52.4479 81.3779 52.4726 81.1927 52.5713C81.0075 52.6578 80.8717 52.7998 80.7852 52.9973C80.6 53.343 80.3346 53.6578 79.9889 53.9418C79.6308 54.2134 79.211 54.4295 78.7295 54.59C78.2357 54.7382 77.7048 54.8123 77.1368 54.8123C76.4948 54.8123 75.9207 54.7073 75.4145 54.4974C74.9083 54.2875 74.507 53.985 74.2107 53.5899C73.9144 53.1949 73.7662 52.7133 73.7662 52.1454C73.7662 51.4293 74.0378 50.8058 74.5811 50.2749C75.1243 49.7316 75.9886 49.3921 77.1739 49.2563C78.6431 49.0834 79.7975 48.6328 80.6371 47.9043C81.4643 47.1759 81.8779 46.2746 81.8779 45.2004C81.8779 44.435 81.668 43.7744 81.2482 43.2188C80.8285 42.6509 80.2543 42.2187 79.5259 41.9224C78.7974 41.6138 77.9702 41.4594 77.0442 41.4594C76.3405 41.4594 75.7108 41.5706 75.1552 41.7928C74.5996 42.0027 74.1181 42.2867 73.7107 42.6447C73.2909 43.0028 72.9452 43.404 72.6735 43.8485C72.5254 44.0707 72.476 44.2868 72.5254 44.4967C72.5624 44.6942 72.6735 44.8486 72.8587 44.9597C73.0563 45.0585 73.2662 45.077 73.4884 45.0152C73.6983 44.9412 73.8588 44.8054 73.9699 44.6078C74.1551 44.3115 74.3897 44.0399 74.6737 43.7929C74.9453 43.5337 75.2787 43.3299 75.6738 43.1818C76.0688 43.0336 76.538 42.9534 77.0813 42.941C78.032 42.941 78.8098 43.1386 79.4148 43.5337C80.0198 43.9287 80.3222 44.5152 80.3222 45.293C80.3222 45.6881 80.2173 46.0647 80.0074 46.4228C79.7852 46.7685 79.4209 47.0648 78.9147 47.3117C78.3962 47.5586 77.6924 47.7438 76.8035 47.8673C75.2725 48.0648 74.1243 48.5278 73.3588 49.2563C72.5933 49.9847 72.2105 50.9416 72.2105 52.1269C72.2105 52.8059 72.3402 53.4047 72.5995 53.9233C72.8464 54.4419 73.1983 54.8802 73.6551 55.2382C74.1119 55.5839 74.6428 55.8494 75.2478 56.0346C75.8404 56.2074 76.4701 56.2938 77.1368 56.2938Z" fill="white" style="mix-blend-mode:soft-light"/>
    <path d="M113.496 43.6365L104.593 52.5399L105.717 53.6643L114.62 44.7609L113.496 43.6365ZM114.62 52.5399L105.717 43.6365L104.593 44.7609L113.496 53.6643L114.62 52.5399Z" fill="#ECC9F7"/>
    <path d="M113.496 43.6365L104.593 52.5399L105.717 53.6643L114.62 44.7609L113.496 43.6365ZM114.62 52.5399L105.717 43.6365L104.593 44.7609L113.496 53.6643L114.62 52.5399Z" fill="white" style="mix-blend-mode:soft-light"/>
    <path d="M144.17 47.3489C143.552 47.9415 142.799 48.2378 141.91 48.2378C141.021 48.2378 140.268 47.9415 139.651 47.3489C139.033 46.7439 138.725 45.9723 138.725 45.0339C138.725 44.1079 139.033 43.3548 139.651 42.7745C140.268 42.1819 141.021 41.8855 141.91 41.8855C142.799 41.8855 143.552 42.1819 144.17 42.7745C144.787 43.3548 145.096 44.1079 145.096 45.0339C145.096 45.9723 144.787 46.7439 144.17 47.3489ZM141.91 47.0155C142.453 47.0155 142.91 46.8365 143.281 46.4785C143.663 46.1081 143.855 45.6265 143.855 45.0339C143.855 44.466 143.663 44.003 143.281 43.6449C142.91 43.2869 142.453 43.1078 141.91 43.1078C141.355 43.1078 140.892 43.2869 140.521 43.6449C140.151 44.003 139.966 44.466 139.966 45.0339C139.966 45.6265 140.151 46.1081 140.521 46.4785C140.892 46.8365 141.355 47.0155 141.91 47.0155ZM138.947 50.1454V49.2009H145.003V50.1454H138.947Z" fill="#ECC9F7"/>
    <path d="M144.17 47.3489C143.552 47.9415 142.799 48.2378 141.91 48.2378C141.021 48.2378 140.268 47.9415 139.651 47.3489C139.033 46.7439 138.725 45.9723 138.725 45.0339C138.725 44.1079 139.033 43.3548 139.651 42.7745C140.268 42.1819 141.021 41.8855 141.91 41.8855C142.799 41.8855 143.552 42.1819 144.17 42.7745C144.787 43.3548 145.096 44.1079 145.096 45.0339C145.096 45.9723 144.787 46.7439 144.17 47.3489ZM141.91 47.0155C142.453 47.0155 142.91 46.8365 143.281 46.4785C143.663 46.1081 143.855 45.6265 143.855 45.0339C143.855 44.466 143.663 44.003 143.281 43.6449C142.91 43.2869 142.453 43.1078 141.91 43.1078C141.355 43.1078 140.892 43.2869 140.521 43.6449C140.151 44.003 139.966 44.466 139.966 45.0339C139.966 45.6265 140.151 46.1081 140.521 46.4785C140.892 46.8365 141.355 47.0155 141.91 47.0155ZM138.947 50.1454V49.2009H145.003V50.1454H138.947Z" fill="white" style="mix-blend-mode:soft-light"/>
    <path d="M14.817 84.4575C14.1997 85.0502 13.4465 85.3465 12.5576 85.3465C11.6686 85.3465 10.9155 85.0502 10.2981 84.4575C9.68082 83.8526 9.37216 83.0809 9.37216 82.1426C9.37216 81.2166 9.68082 80.4634 10.2981 79.8831C10.9155 79.2905 11.6686 78.9942 12.5576 78.9942C13.4465 78.9942 14.1997 79.2905 14.817 79.8831C15.4343 80.4634 15.743 81.2166 15.743 82.1426C15.743 83.0809 15.4343 83.8526 14.817 84.4575ZM12.5576 84.1242C13.1008 84.1242 13.5576 83.9452 13.928 83.5871C14.3108 83.2167 14.5022 82.7352 14.5022 82.1426C14.5022 81.5746 14.3108 81.1116 13.928 80.7536C13.5576 80.3955 13.1008 80.2165 12.5576 80.2165C12.002 80.2165 11.539 80.3955 11.1686 80.7536C10.7982 81.1116 10.613 81.5746 10.613 82.1426C10.613 82.7352 10.7982 83.2167 11.1686 83.5871C11.539 83.9452 12.002 84.1242 12.5576 84.1242ZM9.59439 87.254V86.3095H15.6504V87.254H9.59439Z" fill="#ECC9F7"/>
    <path d="M14.817 84.4575C14.1997 85.0502 13.4465 85.3465 12.5576 85.3465C11.6686 85.3465 10.9155 85.0502 10.2981 84.4575C9.68082 83.8526 9.37216 83.0809 9.37216 82.1426C9.37216 81.2166 9.68082 80.4634 10.2981 79.8831C10.9155 79.2905 11.6686 78.9942 12.5576 78.9942C13.4465 78.9942 14.1997 79.2905 14.817 79.8831C15.4343 80.4634 15.743 81.2166 15.743 82.1426C15.743 83.0809 15.4343 83.8526 14.817 84.4575ZM12.5576 84.1242C13.1008 84.1242 13.5576 83.9452 13.928 83.5871C14.3108 83.2167 14.5022 82.7352 14.5022 82.1426C14.5022 81.5746 14.3108 81.1116 13.928 80.7536C13.5576 80.3955 13.1008 80.2165 12.5576 80.2165C12.002 80.2165 11.539 80.3955 11.1686 80.7536C10.7982 81.1116 10.613 81.5746 10.613 82.1426C10.613 82.7352 10.7982 83.2167 11.1686 83.5871C11.539 83.9452 12.002 84.1242 12.5576 84.1242ZM9.59439 87.254V86.3095H15.6504V87.254H9.59439Z" fill="white" style="mix-blend-mode:soft-light"/>
    <path d="M44.1333 79.4636V92.0548H45.7235V79.4636H44.1333ZM51.224 84.9641L38.6328 84.9641L38.6328 86.5543L51.224 86.5543V84.9641Z" fill="#ECC9F7"/>
    <path d="M44.1333 79.4636V92.0548H45.7235V79.4636H44.1333ZM51.224 84.9641L38.6328 84.9641L38.6328 86.5543L51.224 86.5543V84.9641Z" fill="white" style="mix-blend-mode:soft-light"/>
    <path d="M76.5628 79.4636V92.0548H77.9723V79.4636H76.5628Z" fill="#ECC9F7"/>
    <path d="M76.5628 79.4636V92.0548H77.9723V79.4636H76.5628Z" fill="white" style="mix-blend-mode:soft-light"/>
    <path d="M109.401 78.7348C110.253 78.7348 111.006 78.9261 111.661 79.3089C112.315 79.6793 112.828 80.1917 113.198 80.846C113.581 81.5004 113.772 82.2535 113.772 83.1054C113.772 83.9327 113.581 84.6796 113.198 85.3463C112.828 86.0131 112.315 86.5378 111.661 86.9205C111.006 87.2909 110.253 87.4761 109.401 87.4761C108.562 87.4761 107.815 87.2909 107.161 86.9205C106.518 86.5378 106.006 86.0131 105.623 85.3463C105.253 84.6796 105.068 83.9327 105.068 83.1054C105.068 82.2535 105.253 81.5004 105.623 80.846C106.006 80.1917 106.518 79.6793 107.161 79.3089C107.815 78.9261 108.562 78.7348 109.401 78.7348ZM109.42 80.1793C108.864 80.1793 108.37 80.3028 107.938 80.5497C107.519 80.7966 107.185 81.1423 106.938 81.5868C106.691 82.0313 106.568 82.5375 106.568 83.1054C106.568 83.661 106.691 84.1611 106.938 84.6055C107.185 85.05 107.519 85.4019 107.938 85.6612C108.37 85.9205 108.864 86.0501 109.42 86.0501C109.963 86.0501 110.451 85.9205 110.883 85.6612C111.315 85.4019 111.655 85.05 111.902 84.6055C112.149 84.1611 112.272 83.661 112.272 83.1054C112.272 82.5375 112.149 82.0313 111.902 81.5868C111.655 81.1423 111.315 80.7966 110.883 80.5497C110.451 80.3028 109.963 80.1793 109.42 80.1793ZM113.198 85.3463L108.716 92.7728C108.531 93.0568 108.296 93.1988 108.012 93.1988C107.79 93.1988 107.605 93.137 107.457 93.0136C107.321 92.8901 107.235 92.7358 107.198 92.5506C107.161 92.353 107.198 92.1617 107.309 91.9765L110.216 87.1983L113.198 85.3463Z" fill="#ECC9F7"/>
    <path d="M109.401 78.7348C110.253 78.7348 111.006 78.9261 111.661 79.3089C112.315 79.6793 112.828 80.1917 113.198 80.846C113.581 81.5004 113.772 82.2535 113.772 83.1054C113.772 83.9327 113.581 84.6796 113.198 85.3463C112.828 86.0131 112.315 86.5378 111.661 86.9205C111.006 87.2909 110.253 87.4761 109.401 87.4761C108.562 87.4761 107.815 87.2909 107.161 86.9205C106.518 86.5378 106.006 86.0131 105.623 85.3463C105.253 84.6796 105.068 83.9327 105.068 83.1054C105.068 82.2535 105.253 81.5004 105.623 80.846C106.006 80.1917 106.518 79.6793 107.161 79.3089C107.815 78.9261 108.562 78.7348 109.401 78.7348ZM109.42 80.1793C108.864 80.1793 108.37 80.3028 107.938 80.5497C107.519 80.7966 107.185 81.1423 106.938 81.5868C106.691 82.0313 106.568 82.5375 106.568 83.1054C106.568 83.661 106.691 84.1611 106.938 84.6055C107.185 85.05 107.519 85.4019 107.938 85.6612C108.37 85.9205 108.864 86.0501 109.42 86.0501C109.963 86.0501 110.451 85.9205 110.883 85.6612C111.315 85.4019 111.655 85.05 111.902 84.6055C112.149 84.1611 112.272 83.661 112.272 83.1054C112.272 82.5375 112.149 82.0313 111.902 81.5868C111.655 81.1423 111.315 80.7966 110.883 80.5497C110.451 80.3028 109.963 80.1793 109.42 80.1793ZM113.198 85.3463L108.716 92.7728C108.531 93.0568 108.296 93.1988 108.012 93.1988C107.79 93.1988 107.605 93.137 107.457 93.0136C107.321 92.8901 107.235 92.7358 107.198 92.5506C107.161 92.353 107.198 92.1617 107.309 91.9765L110.216 87.1983L113.198 85.3463Z" fill="white" style="mix-blend-mode:soft-light"/>
    <path d="M141.044 93.2173C141.266 93.2173 141.458 93.1432 141.618 92.995C141.766 92.8469 141.84 92.6555 141.84 92.4209V80.6238L143.526 81.2349C143.686 81.309 143.834 81.3461 143.97 81.3461C144.205 81.3461 144.396 81.272 144.544 81.1238C144.692 80.9757 144.766 80.7905 144.766 80.5682C144.766 80.4077 144.729 80.2596 144.655 80.1237C144.569 79.9879 144.433 79.8892 144.248 79.8274L141.396 78.8274C141.334 78.8027 141.272 78.7841 141.211 78.7718C141.137 78.7471 141.075 78.7348 141.025 78.7348C140.791 78.7348 140.606 78.815 140.47 78.9755C140.322 79.1237 140.248 79.3089 140.248 79.5311V92.4209C140.248 92.6555 140.328 92.8469 140.488 92.995C140.637 93.1432 140.822 93.2173 141.044 93.2173Z" fill="#ECC9F7"/>
    <path d="M141.044 93.2173C141.266 93.2173 141.458 93.1432 141.618 92.995C141.766 92.8469 141.84 92.6555 141.84 92.4209V80.6238L143.526 81.2349C143.686 81.309 143.834 81.3461 143.97 81.3461C144.205 81.3461 144.396 81.272 144.544 81.1238C144.692 80.9757 144.766 80.7905 144.766 80.5682C144.766 80.4077 144.729 80.2596 144.655 80.1237C144.569 79.9879 144.433 79.8892 144.248 79.8274L141.396 78.8274C141.334 78.8027 141.272 78.7841 141.211 78.7718C141.137 78.7471 141.075 78.7348 141.025 78.7348C140.791 78.7348 140.606 78.815 140.47 78.9755C140.322 79.1237 140.248 79.3089 140.248 79.5311V92.4209C140.248 92.6555 140.328 92.8469 140.488 92.995C140.637 93.1432 140.822 93.2173 141.044 93.2173Z" fill="white" style="mix-blend-mode:soft-light"/>
    <path d="M11.8871 116.572V129.163H13.2965V116.572H11.8871Z" fill="#ECC9F7"/>
    <path d="M11.8871 116.572V129.163H13.2965V116.572H11.8871Z" fill="white" style="mix-blend-mode:soft-light"/>
    <path d="M44.9393 130.511C43.8652 130.511 42.8774 130.326 41.9761 129.956C41.0748 129.585 40.2908 129.073 39.6241 128.418C38.9697 127.752 38.4635 126.968 38.1055 126.066C37.7474 125.153 37.5684 124.159 37.5684 123.085C37.5684 122.011 37.7474 121.023 38.1055 120.121C38.4635 119.22 38.9697 118.442 39.6241 117.788C40.2908 117.121 41.0748 116.603 41.9761 116.232C42.8774 115.862 43.8652 115.677 44.9393 115.677C46.0135 115.677 46.995 115.862 47.884 116.232C48.7853 116.603 49.5693 117.121 50.236 117.788C50.9027 118.442 51.4151 119.22 51.7731 120.121C52.1312 121.023 52.3102 122.011 52.3102 123.085C52.3102 124.159 52.1312 125.153 51.7731 126.066C51.4151 126.968 50.9027 127.752 50.236 128.418C49.5693 129.073 48.7853 129.585 47.884 129.956C46.995 130.326 46.0135 130.511 44.9393 130.511ZM44.9393 129.03C45.7789 129.03 46.5505 128.881 47.2543 128.585C47.9704 128.276 48.5877 127.857 49.1063 127.326C49.6372 126.782 50.0446 126.153 50.3286 125.437C50.6126 124.708 50.7545 123.924 50.7545 123.085C50.7545 122.245 50.6126 121.467 50.3286 120.751C50.0446 120.023 49.6372 119.393 49.1063 118.862C48.5877 118.319 47.9704 117.899 47.2543 117.603C46.5505 117.306 45.7789 117.158 44.9393 117.158C44.0997 117.158 43.3219 117.306 42.6058 117.603C41.8897 117.899 41.2724 118.319 40.7538 118.862C40.2353 119.393 39.8278 120.023 39.5315 120.751C39.2475 121.467 39.1055 122.245 39.1055 123.085C39.1055 123.924 39.2475 124.708 39.5315 125.437C39.8278 126.153 40.2353 126.782 40.7538 127.326C41.2724 127.857 41.8897 128.276 42.6058 128.585C43.3219 128.881 44.0997 129.03 44.9393 129.03Z" fill="#ECC9F7"/>
    <path d="M44.9393 130.511C43.8652 130.511 42.8774 130.326 41.9761 129.956C41.0748 129.585 40.2908 129.073 39.6241 128.418C38.9697 127.752 38.4635 126.968 38.1055 126.066C37.7474 125.153 37.5684 124.159 37.5684 123.085C37.5684 122.011 37.7474 121.023 38.1055 120.121C38.4635 119.22 38.9697 118.442 39.6241 117.788C40.2908 117.121 41.0748 116.603 41.9761 116.232C42.8774 115.862 43.8652 115.677 44.9393 115.677C46.0135 115.677 46.995 115.862 47.884 116.232C48.7853 116.603 49.5693 117.121 50.236 117.788C50.9027 118.442 51.4151 119.22 51.7731 120.121C52.1312 121.023 52.3102 122.011 52.3102 123.085C52.3102 124.159 52.1312 125.153 51.7731 126.066C51.4151 126.968 50.9027 127.752 50.236 128.418C49.5693 129.073 48.7853 129.585 47.884 129.956C46.995 130.326 46.0135 130.511 44.9393 130.511ZM44.9393 129.03C45.7789 129.03 46.5505 128.881 47.2543 128.585C47.9704 128.276 48.5877 127.857 49.1063 127.326C49.6372 126.782 50.0446 126.153 50.3286 125.437C50.6126 124.708 50.7545 123.924 50.7545 123.085C50.7545 122.245 50.6126 121.467 50.3286 120.751C50.0446 120.023 49.6372 119.393 49.1063 118.862C48.5877 118.319 47.9704 117.899 47.2543 117.603C46.5505 117.306 45.7789 117.158 44.9393 117.158C44.0997 117.158 43.3219 117.306 42.6058 117.603C41.8897 117.899 41.2724 118.319 40.7538 118.862C40.2353 119.393 39.8278 120.023 39.5315 120.751C39.2475 121.467 39.1055 122.245 39.1055 123.085C39.1055 123.924 39.2475 124.708 39.5315 125.437C39.8278 126.153 40.2353 126.782 40.7538 127.326C41.2724 127.857 41.8897 128.276 42.6058 128.585C43.3219 128.881 44.0997 129.03 44.9393 129.03Z" fill="white" style="mix-blend-mode:soft-light"/>
    <path d="M77.4716 115.843C76.6197 115.843 75.8666 116.035 75.2122 116.418C74.5578 116.788 74.0455 117.3 73.6751 117.955C73.2923 118.609 73.1009 119.362 73.1009 120.214C73.1009 121.041 73.2923 121.788 73.6751 122.455C74.0455 123.122 74.5578 123.646 75.2122 124.029C75.8666 124.4 76.6197 124.585 77.4716 124.585C78.3112 124.585 79.0582 124.4 79.7125 124.029C80.3546 123.646 80.8669 123.122 81.2497 122.455C81.6201 121.788 81.8053 121.041 81.8053 120.214C81.8053 119.362 81.6201 118.609 81.2497 117.955C80.8669 117.3 80.3546 116.788 79.7125 116.418C79.0582 116.035 78.3112 115.843 77.4716 115.843ZM77.4531 117.288C78.0087 117.288 78.5026 117.411 78.9347 117.658C79.3545 117.905 79.6878 118.251 79.9348 118.695C80.1817 119.14 80.3052 119.646 80.3052 120.214C80.3052 120.77 80.1817 121.27 79.9348 121.714C79.6878 122.159 79.3545 122.511 78.9347 122.77C78.5026 123.029 78.0087 123.159 77.4531 123.159C76.9099 123.159 76.4222 123.029 75.99 122.77C75.5579 122.511 75.2184 122.159 74.9714 121.714C74.7245 121.27 74.6011 120.77 74.6011 120.214C74.6011 119.646 74.7245 119.14 74.9714 118.695C75.2184 118.251 75.5579 117.905 75.99 117.658C76.4222 117.411 76.9099 117.288 77.4531 117.288ZM73.6751 122.455L78.1569 129.881C78.3421 130.165 78.5766 130.307 78.8606 130.307C79.0829 130.307 79.2681 130.246 79.4162 130.122C79.552 129.999 79.6385 129.844 79.6755 129.659C79.7125 129.462 79.6755 129.27 79.5644 129.085L76.6568 124.307L73.6751 122.455Z" fill="#ECC9F7"/>
    <path d="M77.4716 115.843C76.6197 115.843 75.8666 116.035 75.2122 116.418C74.5578 116.788 74.0455 117.3 73.6751 117.955C73.2923 118.609 73.1009 119.362 73.1009 120.214C73.1009 121.041 73.2923 121.788 73.6751 122.455C74.0455 123.122 74.5578 123.646 75.2122 124.029C75.8666 124.4 76.6197 124.585 77.4716 124.585C78.3112 124.585 79.0582 124.4 79.7125 124.029C80.3546 123.646 80.8669 123.122 81.2497 122.455C81.6201 121.788 81.8053 121.041 81.8053 120.214C81.8053 119.362 81.6201 118.609 81.2497 117.955C80.8669 117.3 80.3546 116.788 79.7125 116.418C79.0582 116.035 78.3112 115.843 77.4716 115.843ZM77.4531 117.288C78.0087 117.288 78.5026 117.411 78.9347 117.658C79.3545 117.905 79.6878 118.251 79.9348 118.695C80.1817 119.14 80.3052 119.646 80.3052 120.214C80.3052 120.77 80.1817 121.27 79.9348 121.714C79.6878 122.159 79.3545 122.511 78.9347 122.77C78.5026 123.029 78.0087 123.159 77.4531 123.159C76.9099 123.159 76.4222 123.029 75.99 122.77C75.5579 122.511 75.2184 122.159 74.9714 121.714C74.7245 121.27 74.6011 120.77 74.6011 120.214C74.6011 119.646 74.7245 119.14 74.9714 118.695C75.2184 118.251 75.5579 117.905 75.99 117.658C76.4222 117.411 76.9099 117.288 77.4531 117.288ZM73.6751 122.455L78.1569 129.881C78.3421 130.165 78.5766 130.307 78.8606 130.307C79.0829 130.307 79.2681 130.246 79.4162 130.122C79.552 129.999 79.6385 129.844 79.6755 129.659C79.7125 129.462 79.6755 129.27 79.5644 129.085L76.6568 124.307L73.6751 122.455Z" fill="white" style="mix-blend-mode:soft-light"/>
    <path d="M108.706 130.326C108.928 130.326 109.12 130.252 109.28 130.104C109.428 129.956 109.502 129.764 109.502 129.53V117.732L111.188 118.344C111.348 118.418 111.496 118.455 111.632 118.455C111.867 118.455 112.058 118.381 112.206 118.232C112.355 118.084 112.429 117.899 112.429 117.677C112.429 117.516 112.392 117.368 112.317 117.232C112.231 117.097 112.095 116.998 111.91 116.936L109.058 115.936C108.996 115.911 108.935 115.893 108.873 115.88C108.799 115.856 108.737 115.843 108.688 115.843C108.453 115.843 108.268 115.924 108.132 116.084C107.984 116.232 107.91 116.418 107.91 116.64V129.53C107.91 129.764 107.99 129.956 108.151 130.104C108.299 130.252 108.484 130.326 108.706 130.326Z" fill="#ECC9F7"/>
    <path d="M108.706 130.326C108.928 130.326 109.12 130.252 109.28 130.104C109.428 129.956 109.502 129.764 109.502 129.53V117.732L111.188 118.344C111.348 118.418 111.496 118.455 111.632 118.455C111.867 118.455 112.058 118.381 112.206 118.232C112.355 118.084 112.429 117.899 112.429 117.677C112.429 117.516 112.392 117.368 112.317 117.232C112.231 117.097 112.095 116.998 111.91 116.936L109.058 115.936C108.996 115.911 108.935 115.893 108.873 115.88C108.799 115.856 108.737 115.843 108.688 115.843C108.453 115.843 108.268 115.924 108.132 116.084C107.984 116.232 107.91 116.418 107.91 116.64V129.53C107.91 129.764 107.99 129.956 108.151 130.104C108.299 130.252 108.484 130.326 108.706 130.326Z" fill="white" style="mix-blend-mode:soft-light"/>
    <path d="M145.833 117.854L136.929 126.757L138.054 127.882L146.957 118.978L145.833 117.854ZM146.957 126.757L138.054 117.854L136.929 118.978L145.833 127.882L146.957 126.757Z" fill="#ECC9F7"/>
    <path d="M145.833 117.854L136.929 126.757L138.054 127.882L146.957 118.978L145.833 117.854ZM146.957 126.757L138.054 117.854L136.929 118.978L145.833 127.882L146.957 126.757Z" fill="white" style="mix-blend-mode:soft-light"/>
</svg>
