<svg width="64" height="64" viewBox="0 0 64 64" fill="none" xmlns="http://www.w3.org/2000/svg">
    <path d="M54.003 11.9058C50.0042 10.0769 45.7574 8.74396 41.3246 8C40.7666 8.96096 40.1466 10.2629 39.7126 11.2858C34.9978 10.6039 30.317 10.6039 25.6672 11.2858C25.2332 10.2629 24.5822 8.96096 24.0552 8C19.5915 8.74396 15.3447 10.0769 11.3738 11.9058C3.3452 23.7472 1.1753 35.3096 2.26025 46.717C7.59198 50.5918 12.7378 52.9478 17.7936 54.4978C19.0336 52.8238 20.1495 51.0258 21.1105 49.135C19.2816 48.453 17.5457 47.616 15.8717 46.624C16.3057 46.3142 16.7397 45.9732 17.1427 45.6322C27.2482 50.251 38.1938 50.251 48.1752 45.6322C48.6092 45.9732 49.0122 46.3142 49.4462 46.624C47.7722 47.616 46.0364 48.453 44.2074 49.135C45.1684 51.0258 46.2844 52.8238 47.5242 54.4978C52.577 52.9478 57.7538 50.5918 63.0576 46.717C64.3904 33.5118 60.9466 22.0424 54.003 11.9058ZM22.5054 39.6804C19.4675 39.6804 16.9876 36.9216 16.9876 33.5428C16.9876 30.164 19.4055 27.405 22.5054 27.405C25.5742 27.405 28.085 30.164 28.023 33.5428C28.023 36.9216 25.5742 39.6804 22.5054 39.6804ZM42.8746 39.6804C39.8366 39.6804 37.3536 36.9216 37.3536 33.5428C37.3536 30.164 39.7746 27.405 42.8746 27.405C45.9434 27.405 48.4542 30.164 48.3922 33.5428C48.3922 36.9216 45.9744 39.6804 42.8746 39.6804Z" fill="white"/>
</svg>
