<svg width="24" height="25" viewBox="0 0 24 25" fill="none" xmlns="http://www.w3.org/2000/svg">
    <g clip-path="url(#clip0_2144_17867)">
        <path d="M9.24703 10.0571H6.90587C6.80197 10.0571 6.71777 10.1414 6.71777 10.2452V17.7664C6.71777 17.8703 6.80197 17.9545 6.90587 17.9545H9.24703C9.35093 17.9545 9.43512 17.8703 9.43512 17.7664V10.2452C9.43512 10.1414 9.35093 10.0571 9.24703 10.0571Z" fill="#D4F23F"/>
        <path d="M8.07807 6.31812C7.22622 6.31812 6.5332 7.01038 6.5332 7.86129C6.5332 8.71258 7.22622 9.40511 8.07807 9.40511C8.92925 9.40511 9.6217 8.71254 9.6217 7.86129C9.62174 7.01038 8.92925 6.31812 8.07807 6.31812Z" fill="#D4F23F"/>
        <path d="M15.2026 9.87012C14.2623 9.87012 13.5672 10.2743 13.1456 10.7336V10.2451C13.1456 10.1413 13.0614 10.057 12.9575 10.057H10.7154C10.6115 10.057 10.5273 10.1413 10.5273 10.2451V17.7663C10.5273 17.8702 10.6115 17.9544 10.7154 17.9544H13.0515C13.1554 17.9544 13.2396 17.8702 13.2396 17.7663V14.0451C13.2396 12.7911 13.5802 12.3026 14.4543 12.3026C15.4063 12.3026 15.4819 13.0857 15.4819 14.1096V17.7663C15.4819 17.8702 15.5661 17.9544 15.67 17.9544H18.0069C18.1109 17.9544 18.195 17.8702 18.195 17.7663V13.6408C18.195 11.7762 17.8395 9.87012 15.2026 9.87012Z" fill="#D4F23F"/>
        <rect x="0.5" y="1" width="23" height="23" rx="11.5" stroke="#D4F23F"/>
    </g>
    <defs>
        <clipPath id="clip0_2144_17867">
            <rect width="24" height="24" fill="white" transform="translate(0 0.5)"/>
        </clipPath>
    </defs>
</svg>
