<svg width="148" height="64" viewBox="0 0 148 64" fill="none" xmlns="http://www.w3.org/2000/svg">
    <path opacity="0.32" d="M31.9323 64C25.6062 63.9866 19.426 62.0984 14.1725 58.5741C8.91907 55.0498 4.82807 50.0474 2.41645 44.199C0.0048341 38.3506 -0.619194 31.9186 0.623174 25.7156C1.86554 19.5127 4.91855 13.8172 9.39652 9.34869C13.8745 4.88018 19.5765 1.83919 25.782 0.609948C31.9875 -0.619298 38.4182 0.0183509 44.2615 2.44234C50.1047 4.86632 55.0985 8.96789 58.6117 14.2288C62.1249 19.4897 64 25.6738 64 32C63.9956 36.2067 63.1626 40.3714 61.5486 44.2562C59.9347 48.1411 57.5713 51.67 54.5935 54.6414C51.6158 57.6129 48.0819 59.9688 44.1937 61.5745C40.3054 63.1803 36.139 64.0044 31.9323 64ZM31.9323 10.4012C27.6604 10.4012 23.4845 11.668 19.9326 14.0413C16.3807 16.4146 13.6124 19.7878 11.9776 23.7345C10.3429 27.6811 9.91517 32.0239 10.7486 36.2137C11.582 40.4034 13.639 44.2519 16.6596 47.2726C19.6803 50.2932 23.5288 52.3503 27.7186 53.1837C31.9083 54.0171 36.2511 53.5894 40.1977 51.9546C44.1444 50.3198 47.5176 47.5515 49.8909 43.9996C52.2642 40.4477 53.531 36.2718 53.531 32C53.5265 26.273 51.2495 20.7819 47.1999 16.7323C43.1503 12.6827 37.6592 10.4057 31.9323 10.4012Z" fill="white"/>
    <path opacity="0.32" d="M110 0L110 64L121 64L121 -4.96336e-07L110 0Z" fill="white"/>
</svg>