<svg width="26" height="116" viewBox="0 0 26 116" fill="none" xmlns="http://www.w3.org/2000/svg">
    <g opacity="0.4">
        <path d="M18.8867 10.7466L6.29551 10.7466L6.29551 12.3368L18.8867 12.3368L18.8867 10.7466ZM13.3862 17.8373L13.3862 5.24609L11.796 5.24609L11.796 17.8373L13.3862 17.8373Z" fill="#ECC9F7"/>
        <path d="M18.8867 10.7466L6.29551 10.7466L6.29551 12.3368L18.8867 12.3368L18.8867 10.7466ZM13.3862 17.8373L13.3862 5.24609L11.796 5.24609L11.796 17.8373L13.3862 17.8373Z" fill="white" style="mix-blend-mode:soft-light"/>
        <path d="M16.4803 36.7103L7.57695 45.6136L8.70136 46.738L17.6047 37.8347L16.4803 36.7103ZM17.6047 45.6136L8.70136 36.7103L7.57695 37.8347L16.4803 46.738L17.6047 45.6136Z" fill="#ECC9F7"/>
        <path d="M16.4803 36.7103L7.57695 45.6136L8.70136 46.738L17.6047 37.8347L16.4803 36.7103ZM17.6047 45.6136L8.70136 36.7103L7.57695 37.8347L16.4803 46.738L17.6047 45.6136Z" fill="white" style="mix-blend-mode:soft-light"/>
        <path d="M16.4803 66.8926L7.57695 75.796L8.70136 76.9204L17.6047 68.017L16.4803 66.8926ZM17.6047 75.796L8.70136 66.8926L7.57695 68.017L16.4803 76.9204L17.6047 75.796Z" fill="#ECC9F7"/>
        <path d="M16.4803 66.8926L7.57695 75.796L8.70136 76.9204L17.6047 68.017L16.4803 66.8926ZM17.6047 75.796L8.70136 66.8926L7.57695 68.017L16.4803 76.9204L17.6047 75.796Z" fill="white" style="mix-blend-mode:soft-light"/>
        <path d="M18.8867 101.294L6.29551 101.294L6.29551 102.884L18.8867 102.884L18.8867 101.294ZM13.3862 108.385L13.3862 95.7935L11.796 95.7935L11.796 108.385L13.3862 108.385Z" fill="#ECC9F7"/>
        <path d="M18.8867 101.294L6.29551 101.294L6.29551 102.884L18.8867 102.884L18.8867 101.294ZM13.3862 108.385L13.3862 95.7935L11.796 95.7935L11.796 108.385L13.3862 108.385Z" fill="white" style="mix-blend-mode:soft-light"/>
    </g>
</svg>
