<svg width="26" height="86" viewBox="0 0 26 86" fill="none" xmlns="http://www.w3.org/2000/svg">
    <path d="M16.4803 6.52788L7.57695 15.4312L8.70136 16.5556L17.6047 7.6523L16.4803 6.52788ZM17.6047 15.4312L8.70136 6.52788L7.57695 7.6523L16.4803 16.5556L17.6047 15.4312Z" fill="#ECC9F7"/>
    <path d="M16.4803 6.52788L7.57695 15.4312L8.70136 16.5556L17.6047 7.6523L16.4803 6.52788ZM17.6047 15.4312L8.70136 6.52788L7.57695 7.6523L16.4803 16.5556L17.6047 15.4312Z" fill="white" style="mix-blend-mode:soft-light"/>
    <path d="M16.4803 36.7103L7.57695 45.6136L8.70136 46.738L17.6047 37.8347L16.4803 36.7103ZM17.6047 45.6136L8.70136 36.7103L7.57695 37.8347L16.4803 46.738L17.6047 45.6136Z" fill="#ECC9F7"/>
    <path d="M16.4803 36.7103L7.57695 45.6136L8.70136 46.738L17.6047 37.8347L16.4803 36.7103ZM17.6047 45.6136L8.70136 36.7103L7.57695 37.8347L16.4803 46.738L17.6047 45.6136Z" fill="white" style="mix-blend-mode:soft-light"/>
    <path d="M18.8867 71.1114L6.29551 71.1114L6.29551 72.7015L18.8867 72.7015L18.8867 71.1114ZM13.3862 78.202L13.3862 65.6108L11.796 65.6108L11.796 78.202L13.3862 78.202Z" fill="#ECC9F7"/>
    <path d="M18.8867 71.1114L6.29551 71.1114L6.29551 72.7015L18.8867 72.7015L18.8867 71.1114ZM13.3862 78.202L13.3862 65.6108L11.796 65.6108L11.796 78.202L13.3862 78.202Z" fill="white" style="mix-blend-mode:soft-light"/>
</svg>
